<svg width="2776" height="899" viewBox="0 0 2776 899" fill="none" xmlns="http://www.w3.org/2000/svg">
<rect width="2776" height="899" fill="white"/>
<path d="M152.33 346C152.737 346.086 153.148 346.15 153.562 346.192C179.787 347.505 202.402 357.351 221.507 375.343C221.944 375.781 222.416 376.218 222.77 376.546L208.058 391.27C207.451 390.706 206.686 390.01 205.93 389.302C197.04 381.058 186.477 374.831 174.962 371.047C169.979 369.428 164.858 368.267 159.664 367.579C154.221 366.9 148.726 366.731 143.252 367.076C137.328 367.416 131.462 368.431 125.768 370.103C120.9 371.484 116.169 373.308 111.633 375.553C105.407 378.579 99.6057 382.41 94.3768 386.948C92.3575 388.698 90.3644 390.535 88.4762 392.447C84.7111 396.29 81.343 400.503 78.4233 405.023C75.6172 409.323 73.2133 413.872 71.242 418.614C68.7168 424.599 66.9263 430.868 65.9095 437.284C65.4719 440.004 65.1714 442.744 65.0091 445.494C64.795 448.774 64.7512 452.062 64.878 455.345C65.1502 461.028 66.0219 466.666 67.4787 472.165C71.8817 489.073 81.4368 504.189 94.8167 515.414C108.197 526.639 124.737 533.415 142.141 534.801C146.184 535.095 150.242 535.124 154.288 534.888C160.842 534.502 167.324 533.315 173.59 531.354C177.893 530.033 182.082 528.361 186.112 526.354C199.411 519.744 210.732 509.74 218.933 497.352C223.536 490.417 227.072 482.829 229.423 474.842C229.637 474.116 229.86 473.385 230.1 472.471C227.32 472.44 224.715 472.471 222.11 472.471H127.774L149.152 451.076H253.659V452.55C253.082 478.118 244.546 500.668 227.792 519.989C212.84 537.216 194.058 548.239 171.846 553.392C166.015 554.7 160.085 555.513 154.118 555.824C149.124 556.116 144.115 556.009 139.139 555.505C116.235 553.234 96.0684 544.569 78.9041 529.189C62.2162 514.25 51.4858 495.725 46.4811 473.893C45.0482 467.678 44.2342 461.336 44.0509 454.96C43.2511 427.144 51.866 402.613 70.1493 381.664C84.914 364.735 103.442 353.874 125.296 348.716C130.646 347.484 136.084 346.668 141.56 346.276C142.36 346.214 143.169 346.241 143.973 346.192C144.384 346.149 144.79 346.083 145.197 346H152.33Z" fill="#1B1657"/>
<path d="M797.885 555.968H776.988V472.527H713.995V555.775C713.169 556.016 694.558 556.086 693.129 555.871V430.512H713.943V450.817C714.817 451.053 774.938 451.141 776.97 450.918V388.693C777.259 388.637 777.551 388.599 777.845 388.579H797.356C797.531 388.579 797.701 388.61 797.876 388.627L797.885 555.968Z" fill="#1B1657"/>
<path d="M587.985 472.42H504.532L483.194 451.055H563.902C560.992 442.763 556.366 435.178 550.326 428.799C540.649 418.602 528.861 412.22 515.014 409.871C501.304 407.53 487.206 409.792 474.913 416.303C462.621 422.813 452.824 433.209 447.048 445.871C441.271 458.532 439.84 472.75 442.976 486.31C446.112 499.871 453.639 512.014 464.386 520.848C476.865 531.058 491.271 535.865 507.356 535.13C523.441 534.395 537.183 528.171 548.695 517.121L563.185 531.626C542.506 553.38 503.234 565.252 466.895 547.015C425.621 526.237 408.995 475.91 429.743 434.595C438.297 417.581 452.392 403.995 469.702 396.079C487.012 388.164 506.501 386.392 524.953 391.057C567.346 401.879 588.75 440.098 587.985 472.42Z" fill="#1B1657"/>
<path d="M337.854 513.582L409.934 388.638H433.816C433.839 388.668 433.859 388.7 433.877 388.734C433.877 388.764 433.908 388.808 433.877 388.834C433.829 388.965 433.772 389.092 433.707 389.215L337.548 555.921H316.738V388.821C316.76 388.783 316.786 388.747 316.817 388.716C316.841 388.693 316.872 388.676 316.905 388.668C317.039 388.631 317.177 388.608 317.315 388.598H337.037C337.213 388.615 337.388 388.643 337.561 388.681V513.538L337.854 513.582Z" fill="#1B1657"/>
<path d="M630.072 555.915H609.149V408.99C607.724 408.911 606.373 408.964 605.027 408.955C603.681 408.946 602.23 408.955 600.831 408.955H584.366L572.517 388.627H713.887V408.942H630.072V555.915Z" fill="#1B1657"/>
<path d="M295.567 555.917H274.779V430.5H295.467L295.519 430.552C295.519 430.579 295.58 430.605 295.58 430.631C295.598 472.199 295.612 513.768 295.624 555.339C295.62 555.506 295.589 555.676 295.567 555.917Z" fill="#1B1657"/>
<path d="M285.186 388.579C287.935 388.6 290.563 389.71 292.496 391.666C294.428 393.622 295.508 396.265 295.497 399.016C295.487 401.767 294.387 404.401 292.44 406.343C290.493 408.284 287.856 409.374 285.108 409.374C282.359 409.374 279.722 408.284 277.775 406.343C275.828 404.401 274.729 401.767 274.718 399.016C274.708 396.265 275.787 393.622 277.72 391.666C279.652 389.71 282.28 388.6 285.029 388.579H285.186Z" fill="#1B1657"/>
</svg>
