<svg width="901" height="186" viewBox="0 0 901 186" fill="none" xmlns="http://www.w3.org/2000/svg">
<path d="M95.896 0.963867C96.2544 1.03969 96.6166 1.09625 96.9811 1.1333C120.068 2.28855 139.976 10.9568 156.794 26.7953C157.179 27.1804 157.595 27.5655 157.906 27.8543L144.955 40.8162C144.42 40.3194 143.747 39.7071 143.081 39.0833C135.255 31.8259 125.956 26.3445 115.82 23.0138C111.433 21.5879 106.925 20.5658 102.352 19.9601C97.5607 19.3623 92.7236 19.214 87.9042 19.5172C82.6893 19.8168 77.5256 20.7109 72.5132 22.182C68.2277 23.398 64.0625 25.0041 60.0696 26.9801C54.589 29.644 49.4817 33.0167 44.8786 37.0115C43.101 38.5519 41.3464 40.1692 39.6842 41.852C36.3696 45.2351 33.4047 48.9443 30.8343 52.9232C28.3641 56.7084 26.2479 60.7136 24.5125 64.8877C22.2896 70.1561 20.7133 75.6748 19.8182 81.3231C19.4329 83.7176 19.1684 86.13 19.0256 88.5511C18.8371 91.4378 18.7985 94.3324 18.9101 97.2232C19.1498 102.226 19.9172 107.189 21.1996 112.03C25.0756 126.914 33.4872 140.222 45.2659 150.103C57.0446 159.984 71.6058 165.949 86.9269 167.17C90.4857 167.428 94.0576 167.454 97.6198 167.247C103.389 166.906 109.095 165.861 114.611 164.135C118.4 162.972 122.087 161.5 125.635 159.734C137.342 153.915 147.308 145.108 154.528 134.203C158.58 128.097 161.693 121.417 163.763 114.386C163.951 113.747 164.147 113.104 164.359 112.299C161.912 112.272 159.619 112.299 157.325 112.299H74.2793L93.0987 93.4648H185.098V94.7625C184.591 117.271 177.076 137.122 162.327 154.131C149.164 169.295 132.63 178.999 113.076 183.536C107.943 184.687 102.723 185.403 97.4698 185.677C93.0739 185.934 88.6645 185.84 84.2835 185.396C64.1213 183.397 46.3677 175.769 31.2576 162.229C16.5669 149.078 7.12064 132.77 2.71496 113.551C1.45354 108.08 0.73692 102.497 0.575611 96.8843C-0.128528 72.3969 7.45539 50.8014 23.5505 32.3597C36.5482 17.457 52.8589 7.89537 72.0977 3.35524C76.8076 2.27031 81.5944 1.55191 86.4152 1.20647C87.1193 1.15256 87.8311 1.17566 88.5391 1.1333C88.9008 1.0948 89.2586 1.03703 89.6165 0.963867H95.896Z" fill="#E185B0"/>
<path d="M664.194 185.804H645.798V112.349H590.344V185.635C589.617 185.846 573.233 185.908 571.975 185.719V75.3621H590.298V93.2377C591.067 93.4456 643.993 93.5226 645.782 93.3262V38.5481C646.037 38.4994 646.294 38.466 646.552 38.448H663.728C663.882 38.448 664.032 38.475 664.186 38.4904L664.194 185.804Z" fill="#E185B0"/>
<path d="M479.413 112.253H405.948L387.163 93.4454H458.212C455.651 86.1452 451.579 79.4685 446.261 73.8523C437.742 64.8761 427.365 59.2577 415.175 57.1898C403.106 55.1293 390.695 57.1199 379.874 62.8516C369.052 68.5833 360.428 77.7346 355.343 88.881C350.258 100.027 348.998 112.543 351.758 124.481C354.519 136.419 361.146 147.108 370.607 154.885C381.592 163.873 394.274 168.105 408.434 167.458C422.594 166.811 434.691 161.332 444.826 151.605L457.581 164.374C439.377 183.524 404.805 193.975 372.815 177.921C336.481 159.63 321.844 115.326 340.109 78.9547C347.64 63.9769 360.048 52.0168 375.286 45.0486C390.525 38.0804 407.682 36.5209 423.925 40.6274C461.244 50.1543 480.087 83.799 479.413 112.253Z" fill="#E185B0"/>
<path d="M259.217 148.489L322.671 38.4981H343.695C343.715 38.5248 343.733 38.5532 343.749 38.5828C343.749 38.6098 343.776 38.6483 343.749 38.6714C343.707 38.7864 343.657 38.8984 343.599 39.0064L258.948 185.762H240.629V38.6598C240.648 38.6259 240.671 38.5948 240.698 38.5674C240.72 38.5466 240.746 38.532 240.775 38.525C240.893 38.4927 241.015 38.472 241.137 38.4634H258.498C258.653 38.4784 258.807 38.5029 258.96 38.5366V148.451L259.217 148.489Z" fill="#E185B0"/>
<path d="M516.464 185.758H498.045V56.4159C496.791 56.3466 495.602 56.3928 494.416 56.3851C493.231 56.3774 491.954 56.3851 490.723 56.3851H476.228L465.797 38.4902H590.249V56.3735H516.464V185.758Z" fill="#E185B0"/>
<path d="M221.991 185.758H203.691V75.3503H221.902L221.949 75.3965C221.949 75.4196 222.003 75.4427 222.003 75.4658C222.018 112.059 222.031 148.653 222.041 185.249C222.037 185.396 222.01 185.546 221.991 185.758Z" fill="#E185B0"/>
<path d="M212.853 38.448C215.272 38.4664 217.586 39.4435 219.287 41.1656C220.989 42.8877 221.939 45.2142 221.93 47.6358C221.92 50.0575 220.953 52.3768 219.238 54.0859C217.524 55.795 215.203 56.7546 212.783 56.7546C210.364 56.7546 208.043 55.795 206.328 54.0859C204.614 52.3768 203.647 50.0575 203.637 47.6358C203.628 45.2142 204.578 42.8877 206.28 41.1656C207.981 39.4435 210.295 38.4664 212.714 38.448H212.853Z" fill="#E185B0"/>
<path d="M733.808 185.746H715.508V75.3389H733.719L733.765 75.3851C733.785 75.4082 733.819 75.4313 733.819 75.4544C733.835 112.053 733.848 148.647 733.858 185.238C733.854 185.384 733.827 185.534 733.808 185.746Z" fill="#D3D5FF"/>
<path d="M724.677 38.4363C727.098 38.4552 729.412 39.4331 731.114 41.156C732.815 42.879 733.765 45.2065 733.756 47.629C733.747 50.0514 732.778 52.3715 731.064 54.0811C729.349 55.7907 727.027 56.7506 724.606 56.7506C722.186 56.7506 719.864 55.7907 718.149 54.0811C716.434 52.3715 715.466 50.0514 715.456 47.629C715.447 45.2065 716.397 42.879 718.098 41.156C719.8 39.4331 722.114 38.4552 724.535 38.4363H724.677Z" fill="#D3D5FF"/>
<path d="M689.205 167.37C691.625 167.388 693.939 168.365 695.64 170.087C697.341 171.81 698.291 174.136 698.282 176.558C698.273 178.979 697.305 181.299 695.591 183.008C693.877 184.717 691.556 185.676 689.136 185.676C686.716 185.676 684.395 184.717 682.681 183.008C680.967 181.299 679.999 178.979 679.99 176.558C679.981 174.136 680.931 171.81 682.632 170.087C684.333 168.365 686.647 167.388 689.067 167.37H689.205Z" fill="#D3D5FF"/>
<path d="M826.742 37.3787C786.098 37.3787 753.15 70.3534 753.15 111.03C753.15 151.706 786.098 184.681 826.742 184.681C867.386 184.681 900.33 151.706 900.33 111.03C900.33 70.3534 867.386 37.3787 826.742 37.3787ZM826.742 166.381C815.819 166.382 805.14 163.141 796.057 157.068C786.974 150.996 779.895 142.363 775.714 132.264C771.533 122.164 770.438 111.051 772.568 100.328C774.698 89.606 779.957 79.7566 787.68 72.0256C795.403 64.2946 805.244 59.0292 815.957 56.8952C826.67 54.7612 837.776 55.8545 847.868 60.0369C857.96 64.2192 866.587 71.3027 872.657 80.3917C878.727 89.4806 881.967 100.167 881.969 111.099C881.971 118.358 880.543 125.547 877.768 132.254C874.994 138.961 870.926 145.055 865.798 150.189C860.669 155.323 854.58 159.395 847.879 162.173C841.178 164.951 833.996 166.382 826.742 166.381Z" fill="#D3D5FF"/>
</svg>
