<svg width="2776" height="899" viewBox="0 0 2776 899" fill="none" xmlns="http://www.w3.org/2000/svg">
<rect width="2776" height="899" fill="#18191A"/>
<path d="M152.33 345C152.737 345.086 153.148 345.15 153.562 345.192C179.787 346.505 202.402 356.351 221.507 374.343C221.944 374.78 222.416 375.218 222.77 375.546L208.058 390.27C207.45 389.706 206.685 389.01 205.929 388.302C197.04 380.057 186.477 373.831 174.962 370.047C169.979 368.428 164.858 367.267 159.664 366.579C154.221 365.9 148.726 365.731 143.251 366.076C137.328 366.416 131.462 367.431 125.768 369.103C120.9 370.484 116.169 372.308 111.633 374.553C105.407 377.579 99.6056 381.41 94.3767 385.948C92.3574 387.698 90.3643 389.535 88.4761 391.447C84.711 395.29 81.3429 399.503 78.4232 404.023C75.6171 408.323 73.2132 412.872 71.2419 417.614C68.7168 423.598 66.9263 429.867 65.9095 436.284C65.4719 439.004 65.1713 441.744 65.0091 444.494C64.795 447.773 64.7512 451.061 64.878 454.345C65.1502 460.028 66.0219 465.665 67.4786 471.164C71.8816 488.073 81.4367 503.189 94.8167 514.414C108.197 525.638 124.737 532.414 142.141 533.801C146.184 534.094 150.241 534.124 154.288 533.888C160.842 533.501 167.323 532.314 173.589 530.354C177.893 529.033 182.081 527.36 186.112 525.354C199.41 518.744 210.731 508.74 218.932 496.352C223.536 489.416 227.072 481.828 229.422 473.842C229.637 473.115 229.86 472.385 230.1 471.471C227.32 471.44 224.715 471.471 222.11 471.471H127.774L149.152 450.076H253.659V451.55C253.082 477.118 244.546 499.668 227.792 518.989C212.839 536.215 194.058 547.238 171.845 552.391C166.015 553.699 160.084 554.513 154.117 554.824C149.124 555.115 144.115 555.009 139.138 554.504C116.235 552.234 96.0683 543.568 78.904 528.188C62.2161 513.25 51.4857 494.725 46.4811 472.892C45.0482 466.677 44.2342 460.336 44.0509 453.96C43.2511 426.144 51.866 401.613 70.1492 380.664C84.9139 363.735 103.442 352.874 125.296 347.716C130.646 346.484 136.084 345.668 141.56 345.276C142.36 345.214 143.168 345.241 143.973 345.192C144.383 345.149 144.79 345.083 145.196 345H152.33Z" fill="white"/>
<path d="M797.884 554.968H776.987V471.528H713.995V554.776C713.168 555.016 694.557 555.086 693.128 554.872V429.512H713.942V449.818C714.816 450.054 774.937 450.142 776.97 449.919V387.694C777.258 387.638 777.55 387.6 777.844 387.58H797.355C797.53 387.58 797.7 387.611 797.875 387.628L797.884 554.968Z" fill="white"/>
<path d="M587.983 471.419H504.531L483.193 450.055H563.9C560.991 441.762 556.365 434.178 550.324 427.798C540.647 417.602 528.859 411.22 515.012 408.871C501.303 406.53 487.204 408.791 474.912 415.302C462.619 421.813 452.823 432.208 447.046 444.87C441.27 457.532 439.839 471.749 442.974 485.31C446.11 498.87 453.638 511.013 464.385 519.847C476.864 530.057 491.27 534.864 507.355 534.13C523.439 533.395 537.181 527.17 548.694 516.12L563.183 530.626C542.505 552.379 503.233 564.251 466.894 546.015C425.62 525.237 408.993 474.91 429.742 433.594C438.296 416.58 452.391 402.994 469.701 395.079C487.011 387.163 506.5 385.392 524.952 390.057C567.344 400.879 588.748 439.097 587.983 471.419Z" fill="white"/>
<path d="M337.853 512.582L409.933 387.638H433.815C433.838 387.668 433.858 387.701 433.876 387.734C433.876 387.765 433.907 387.809 433.876 387.835C433.828 387.966 433.771 388.093 433.706 388.215L337.547 554.921H316.738V387.822C316.759 387.783 316.786 387.748 316.816 387.717C316.841 387.693 316.871 387.676 316.904 387.669C317.038 387.632 317.176 387.608 317.315 387.599H337.036C337.212 387.616 337.388 387.643 337.56 387.682V512.538L337.853 512.582Z" fill="white"/>
<path d="M630.071 554.916H609.148V407.99C607.723 407.912 606.372 407.964 605.026 407.955C603.68 407.947 602.229 407.955 600.83 407.955H584.365L572.516 387.628H713.886V407.942H630.071V554.916Z" fill="white"/>
<path d="M295.566 554.916H274.779V429.5H295.466L295.518 429.552C295.518 429.579 295.58 429.605 295.58 429.631C295.597 471.199 295.612 512.768 295.623 554.339C295.619 554.505 295.588 554.676 295.566 554.916Z" fill="white"/>
<path d="M285.186 387.58C287.934 387.601 290.563 388.711 292.495 390.667C294.428 392.623 295.507 395.266 295.497 398.017C295.486 400.768 294.387 403.402 292.44 405.344C290.492 407.285 287.856 408.375 285.107 408.375C282.358 408.375 279.722 407.285 277.775 405.344C275.827 403.402 274.728 400.768 274.718 398.017C274.707 395.266 275.787 392.623 277.719 390.667C279.652 388.711 282.28 387.601 285.028 387.58H285.186Z" fill="white"/>
</svg>
