<svg width="986" height="280" viewBox="0 0 986 280" fill="none" xmlns="http://www.w3.org/2000/svg">
<path d="M280 143.457C279.726 147.392 279.629 151.352 279.147 155.259C274.04 196.738 254.694 229.976 220.734 254.315C195.365 272.501 166.733 280.988 135.547 279.909C99.4842 278.668 68.3931 265.246 42.332 240.288C42.0922 240.058 42.098 239.139 42.332 238.893C74.8424 206.323 107.386 173.786 139.964 141.282C140.732 140.579 141.725 140.172 142.765 140.133C188.511 140.076 234.256 140.06 280 140.085V143.457Z" fill="white" fill-opacity="0.85"/>
<path d="M143.405 0C147.251 0.292138 151.105 0.462391 154.937 0.876414C177.379 3.30896 198.047 10.7175 216.941 23.1021C217.07 23.1984 217.192 23.3017 217.309 23.4117L205.365 35.3313C202.765 37.9257 200.182 40.5375 197.551 43.0991C197.385 43.2066 197.195 43.2719 196.997 43.2891C196.8 43.3063 196.602 43.2749 196.419 43.1977C177.398 32.2538 156.925 27.2204 134.999 28.0975C85.9358 30.0747 43.1636 64.8237 31.3993 112.473C24.1174 141.996 28.1685 170.044 43.1636 196.516C43.3068 196.767 43.3145 197.323 43.1423 197.483C36.633 204.041 30.1011 210.581 23.5467 217.105C23.4828 217.169 23.4035 217.221 23.2546 217.341C22.6374 216.385 22.0164 215.46 21.4322 214.516C5.25306 188.375 -1.88564 159.962 0.424281 129.293C5.23951 65.5395 52.6915 13.3087 115.833 2.21715C122.217 1.09697 128.747 0.812569 135.206 0.141232L136.526 0H143.405Z" fill="white" fill-opacity="0.85"/>
<path d="M214.377 84.511C214.388 78.6888 216.417 73.0503 220.117 68.5554C223.817 64.0604 228.961 60.9867 234.672 59.8575C240.384 58.7283 246.31 59.6134 251.443 62.3621C256.575 65.1107 260.596 69.5531 262.822 74.9331C265.048 80.3131 265.34 86.2982 263.65 91.8697C261.96 97.4412 258.391 102.255 253.551 105.491C248.712 108.727 242.9 110.186 237.106 109.62C231.311 109.053 225.892 106.496 221.771 102.384C219.424 100.037 217.563 97.2507 216.294 94.1838C215.025 91.117 214.374 87.83 214.377 84.511V84.511Z" fill="white" fill-opacity="0.85"/>
<path d="M419.014 91.0187C419.372 91.0969 419.733 91.1547 420.097 91.1919C443.101 92.3713 462.941 101.213 479.701 117.369C480.084 117.762 480.496 118.156 480.806 118.45L467.915 131.691C467.381 131.186 466.709 130.563 466.047 129.927C458.249 122.527 448.984 116.94 438.885 113.545C434.513 112.092 430.021 111.049 425.464 110.428C420.689 109.814 415.869 109.657 411.066 109.96C405.87 110.269 400.726 111.182 395.731 112.679C391.46 113.92 387.308 115.559 383.329 117.575C377.87 120.294 372.782 123.734 368.195 127.806C366.422 129.398 364.673 131.027 363.019 132.744C359.717 136.197 356.762 139.98 354.198 144.038C351.738 147.903 349.628 151.991 347.894 156.249C345.682 161.624 344.112 167.253 343.216 173.014C342.833 175.457 342.569 177.916 342.426 180.391C342.24 183.335 342.202 186.288 342.312 189.236C342.553 194.339 343.318 199.402 344.596 204.34C347.463 215.615 352.837 226.057 360.296 234.851C372.951 249.797 390.836 259.044 410.088 260.594C413.635 260.855 417.195 260.88 420.745 260.668C426.494 260.321 432.179 259.256 437.675 257.495C441.443 256.31 445.11 254.808 448.638 253.007C460.3 247.068 470.227 238.082 477.417 226.956C481.456 220.729 484.557 213.914 486.617 206.741C486.804 206.091 487 205.431 487.211 204.612C484.771 204.583 482.487 204.612 480.203 204.612H397.49L416.219 185.38H507.913V186.7C507.406 209.662 499.919 229.914 485.223 247.264C472.104 262.737 455.632 272.636 436.144 277.265C431.036 278.435 425.84 279.164 420.613 279.446C416.232 279.709 411.837 279.614 407.471 279.161C387.371 277.12 369.693 269.332 354.637 255.529C339.996 242.111 330.581 225.477 326.191 205.871C324.931 200.29 324.212 194.596 324.044 188.871C323.345 163.892 330.896 141.862 346.935 123.047C359.89 107.845 376.143 98.0861 395.315 93.4385C400.005 92.3327 404.772 91.6003 409.572 91.248C410.271 91.1919 410.984 91.2153 411.687 91.1732C412.048 91.131 412.409 91.0749 412.765 91L419.014 91.0187Z" fill="white" fill-opacity="0.85"/>
<path d="M985.33 279.591H966.999V204.658H911.725V279.418C910.999 279.633 894.673 279.699 893.421 279.507V166.901H911.693V185.155C912.461 185.365 965.199 185.445 966.967 185.244V129.351C967.22 129.3 967.476 129.266 967.734 129.248H984.851C985.001 129.248 985.152 129.276 985.307 129.29L985.33 279.591Z" fill="white" fill-opacity="0.85"/>
<path d="M801.177 204.539H727.969L709.24 185.35H780.045C777.495 177.91 773.438 171.108 768.14 165.388C759.653 156.233 749.311 150.5 737.165 148.389C725.138 146.286 712.771 148.317 701.987 154.164C691.204 160.011 682.61 169.347 677.543 180.718C672.476 192.089 671.22 204.858 673.971 217.036C676.722 229.214 683.326 240.119 692.754 248.053C703.717 257.222 716.339 261.542 730.445 260.882C744.551 260.222 756.611 254.629 766.711 244.706L779.419 257.718C761.279 277.254 726.832 287.916 694.956 271.539C678.791 263.229 666.192 249.094 659.575 231.849C652.958 214.604 652.79 195.462 659.104 178.098C665.417 160.734 677.767 146.37 693.783 137.763C709.799 129.157 728.354 126.914 745.885 131.465C783.073 141.2 801.848 175.54 801.177 204.539Z" fill="white" fill-opacity="0.85"/>
<path d="M581.772 241.518L644.999 129.315H665.952C665.971 129.342 665.987 129.37 666.003 129.399C666.003 129.427 666.03 129.469 666.003 129.493C665.96 129.609 665.912 129.724 665.856 129.834L581.503 279.546H563.23V129.479L563.299 129.385C563.321 129.365 563.348 129.35 563.377 129.343C563.495 129.309 563.615 129.287 563.738 129.277H581.037C581.19 129.293 581.343 129.318 581.494 129.352V241.471L581.772 241.518Z" fill="white" fill-opacity="0.85"/>
<path d="M838.106 279.536H819.751V147.605C818.5 147.535 817.317 147.605 816.134 147.572H798.012L787.615 129.319H911.629V147.572H838.083L838.106 279.536Z" fill="white" fill-opacity="0.85"/>
<path d="M544.678 279.537H526.442V166.903H544.591L544.637 166.95C544.637 166.974 544.692 166.997 544.692 167.02C544.692 204.351 544.704 241.683 544.728 279.017C544.724 279.167 544.701 279.321 544.678 279.537Z" fill="white" fill-opacity="0.85"/>
<path d="M535.567 129.256C537.671 129.273 539.704 130.036 541.321 131.416C542.938 132.795 544.04 134.705 544.438 136.822C544.836 138.939 544.506 141.132 543.505 143.029C542.504 144.925 540.893 146.408 538.946 147.225C536.998 148.042 534.835 148.143 532.823 147.511C530.812 146.879 529.075 145.553 527.91 143.758C526.744 141.963 526.221 139.81 526.43 137.664C526.638 135.519 527.565 133.514 529.052 131.989C529.908 131.115 530.924 130.423 532.042 129.954C533.16 129.485 534.358 129.247 535.567 129.256V129.256Z" fill="white" fill-opacity="0.85"/>
</svg>
