<svg width="1232" height="190" viewBox="0 0 1232 190" fill="none" xmlns="http://www.w3.org/2000/svg">
<path d="M1043.54 55.7366C1055.67 57.7779 1066 63.3239 1074.48 72.1846L1088.91 61.3255C1079.9 51.2916 1067.66 43.2899 1052.24 39.3875C1036.08 35.3339 1019 36.8734 1003.84 43.7518C988.67 50.6303 976.32 62.4363 968.826 77.2212C950.646 113.124 965.215 156.857 1001.38 174.913C1033.22 190.76 1067.62 180.444 1085.74 161.54L1073.05 148.935C1062.96 158.537 1050.92 163.946 1036.83 164.585C1022.73 165.224 1010.11 161.046 999.179 152.174C989.762 144.497 983.167 133.945 980.42 122.161C977.672 110.377 978.926 98.0224 983.987 87.0196C989.048 76.0168 997.632 66.9834 1008.4 61.3255C1019.17 55.6677 1031.52 53.7027 1043.54 55.7366Z" fill="#D3D5FF"/>
<path d="M1231.98 110.09H1158.86L1140.17 91.5252H1210.88C1208.34 84.3191 1204.27 77.7284 1198.99 72.1846C1190.51 63.3239 1180.19 57.7779 1168.05 55.7366C1156.04 53.7027 1143.69 55.6677 1132.92 61.3255C1122.14 66.9834 1113.56 76.0168 1108.5 87.0196C1103.44 98.0224 1102.19 110.377 1104.93 122.161C1107.68 133.945 1114.28 144.497 1123.69 152.174C1134.63 161.046 1147.25 165.224 1161.34 164.585C1175.44 163.946 1187.47 158.537 1197.56 148.935L1210.25 161.54C1192.14 180.444 1157.72 190.76 1125.89 174.913C1089.73 156.857 1075.16 113.124 1093.34 77.2212C1100.83 62.4363 1113.18 50.6303 1128.35 43.7518C1143.52 36.8734 1160.59 35.3339 1176.76 39.3875C1213.9 48.7918 1232.65 82.0032 1231.98 110.09Z" fill="#D3D5FF"/>
<path d="M926.974 74.0435L863.821 182.618H842.897C842.877 182.592 842.859 182.564 842.843 182.534C842.843 182.508 842.816 182.469 842.843 182.447C842.885 182.334 842.936 182.223 842.993 182.117L927.243 37.2515H945.475V182.458C945.457 182.492 945.434 182.523 945.406 182.55C945.384 182.571 945.358 182.584 945.329 182.591C945.211 182.623 945.091 182.643 944.969 182.653H927.69C927.536 182.638 927.383 182.614 927.231 182.58V74.0816L926.974 74.0435Z" fill="#D3D5FF"/>
<path d="M782.869 136.224L828.554 182.67H853.682L793.354 121.225C793.266 121.142 793.171 121.065 793.071 120.996C793.056 120.964 793.011 120.98 792.986 120.973C792.953 120.981 792.922 120.991 792.891 121.003L782.869 136.224Z" fill="#D3D5FF"/>
<path d="M727.655 182.649H709.323V54.9728C708.075 54.9044 706.891 54.95 705.712 54.9424C704.532 54.9348 703.261 54.9424 702.035 54.9424H687.61L677.228 37.2781H772.537V54.931H727.655V182.649Z" fill="#D3D5FF"/>
<path d="M95.61 0.235107C95.9668 0.309951 96.3273 0.365783 96.6901 0.402362C119.668 1.54274 139.482 10.0993 156.22 25.7338C156.604 26.1139 157.017 26.494 157.327 26.7791L144.437 39.5741C143.904 39.0837 143.234 38.4793 142.572 37.8635C134.783 30.6996 125.528 25.2888 115.439 22.0009C111.073 20.5934 106.587 19.5845 102.036 18.9866C97.2669 18.3965 92.4527 18.2502 87.6562 18.5494C82.466 18.8452 77.3267 19.7277 72.338 21.1799C68.0728 22.3802 63.9272 23.9656 59.9533 25.9163C54.4986 28.5458 49.4156 31.875 44.8342 35.8185C43.065 37.3389 41.3188 38.9355 39.6644 40.5966C36.3655 43.9361 33.4146 47.5974 30.8564 51.5251C28.3979 55.2616 26.2917 59.2152 24.5645 63.3356C22.352 68.5361 20.7833 73.9838 19.8924 79.5592C19.509 81.9229 19.2457 84.3042 19.1035 86.6941C18.916 89.5437 18.8776 92.401 18.9887 95.2546C19.2272 100.193 19.9909 105.092 21.2672 109.87C25.125 124.563 33.4967 137.699 45.2196 147.454C56.9426 157.207 71.4349 163.095 86.6834 164.3C90.2254 164.555 93.7804 164.581 97.3258 164.376C103.068 164.041 108.747 163.009 114.237 161.304C118.008 160.156 121.677 158.704 125.208 156.959C136.861 151.216 146.78 142.523 153.964 131.758C157.997 125.731 161.096 119.137 163.156 112.197C163.343 111.566 163.539 110.931 163.749 110.136C161.314 110.11 159.031 110.136 156.748 110.136H74.0957L92.826 91.5445H184.39V92.8255C183.885 115.043 176.406 134.64 161.727 151.429C148.627 166.398 132.171 175.978 112.709 180.456C107.6 181.592 102.405 182.299 97.1764 182.568C92.8013 182.822 88.4128 182.73 84.0525 182.291C63.9857 180.318 46.3163 172.789 31.2776 159.423C16.6565 146.442 7.25497 130.343 2.87015 111.372C1.61469 105.971 0.901472 100.46 0.740927 94.92C0.0401205 70.748 7.58814 49.4307 23.6071 31.2266C36.5433 16.5158 52.7767 7.07732 71.9244 2.59568C76.612 1.52472 81.3762 0.815576 86.1741 0.474585C86.8749 0.421368 87.5834 0.444176 88.288 0.402362C88.648 0.36435 89.0042 0.307331 89.3603 0.235107H95.61Z" fill="#70B07E"/>
<path d="M661.257 182.695H642.948V110.186H587.756V182.528C587.033 182.737 570.726 182.797 569.474 182.611V73.6753H587.71V91.3206C588.476 91.5258 641.151 91.6018 642.933 91.408V37.3354C643.185 37.2873 643.441 37.2543 643.698 37.2366H660.793C660.946 37.2366 661.096 37.2632 661.249 37.2784L661.257 182.695Z" fill="#70B07E"/>
<path d="M477.352 110.09H404.233L385.538 91.5252H456.251C453.702 84.3191 449.648 77.7284 444.356 72.1846C435.878 63.3239 425.549 57.7779 413.417 55.7366C401.405 53.7027 389.053 55.6677 378.282 61.3255C367.512 66.9834 358.929 76.0168 353.868 87.0196C348.807 98.0224 347.553 110.377 350.301 122.161C353.048 133.945 359.643 144.497 369.06 152.174C379.993 161.046 392.614 165.224 406.708 164.585C420.8 163.946 432.84 158.537 442.928 148.935L455.622 161.54C437.504 180.444 403.097 190.76 371.257 174.913C335.095 156.857 320.527 113.124 338.707 77.2212C346.201 62.4363 358.551 50.6303 373.717 43.7518C388.883 36.8734 405.959 35.3339 422.125 39.3875C459.269 48.7918 478.022 82.0032 477.352 110.09Z" fill="#70B07E"/>
<path d="M258.198 145.86L321.35 37.2857H342.276C342.295 37.3121 342.314 37.3401 342.328 37.3693C342.328 37.396 342.356 37.434 342.328 37.4567C342.287 37.5703 342.237 37.6808 342.179 37.7874L257.93 182.653H239.697V37.4453C239.716 37.4119 239.739 37.3812 239.766 37.3541C239.787 37.3336 239.814 37.3192 239.843 37.3123C239.96 37.2804 240.08 37.26 240.203 37.2515H257.481C257.636 37.2663 257.79 37.2904 257.941 37.3237V145.822L258.198 145.86Z" fill="#70B07E"/>
<path d="M514.227 182.649H495.895V54.9728C494.645 54.9044 493.463 54.95 492.282 54.9424C491.103 54.9348 489.832 54.9424 488.607 54.9424H474.181L463.798 37.2781H587.662V54.931H514.227V182.649Z" fill="#70B07E"/>
<path d="M221.147 182.648H202.935V73.6633H221.059L221.105 73.709C221.105 73.7317 221.159 73.7546 221.159 73.7773C221.174 109.899 221.187 146.022 221.197 182.146C221.193 182.291 221.167 182.44 221.147 182.648Z" fill="#70B07E"/>
<path d="M212.053 37.2366C214.461 37.2548 216.763 38.2193 218.456 39.9192C220.149 41.6191 221.096 43.9157 221.087 46.3061C221.077 48.6965 220.114 50.986 218.408 52.6731C216.702 54.3601 214.392 55.3074 211.983 55.3074C209.575 55.3074 207.265 54.3601 205.559 52.6731C203.854 50.986 202.89 48.6965 202.881 46.3061C202.872 43.9157 203.817 41.6191 205.511 39.9192C207.204 38.2193 209.507 37.2548 211.914 37.2366H212.053Z" fill="#70B07E"/>
<path d="M796.884 54.7674H804.958C823.116 54.7674 837.836 69.3668 837.836 87.3762C837.836 105.386 823.116 119.985 804.958 119.985H770.022L783.728 137.648H804.958C832.951 137.648 855.645 115.14 855.645 87.3762C855.645 59.6117 832.951 37.1042 804.958 37.1042H786.866L796.884 54.7674Z" fill="#D3D5FF"/>
</svg>
