<svg width="3170" height="769" viewBox="0 0 3170 769" fill="none" xmlns="http://www.w3.org/2000/svg">
<g clip-path="url(#clip0)">
<rect width="3170" height="769" fill="#092560"/>
<path d="M3930.15 -508C3966.46 -505.242 4002.85 -503.634 4039.04 -499.725C4250.95 -476.759 4446.11 -406.812 4624.53 -289.885C4625.74 -288.976 4626.9 -288 4628 -286.962L4515.21 -174.425C4490.66 -149.93 4466.27 -125.271 4441.43 -101.086C4439.86 -100.07 4438.06 -99.4545 4436.2 -99.2921C4434.34 -99.1298 4432.46 -99.4259 4430.74 -100.155C4251.12 -203.48 4057.77 -251.002 3850.7 -242.722C3387.4 -224.054 2983.52 104.024 2872.43 553.899C2803.67 832.64 2841.92 1097.44 2983.52 1347.38C2984.87 1349.75 2984.94 1355 2983.31 1356.51C2921.85 1418.42 2860.17 1480.17 2798.28 1541.77C2797.68 1542.37 2796.93 1542.86 2795.52 1543.99C2789.69 1534.97 2783.83 1526.24 2778.31 1517.33C2625.61 1270.51 2558.2 1002.26 2580.01 712.705C2625.48 110.782 3073.56 -382.348 3669.79 -487.067C3730.07 -497.643 3791.73 -500.328 3852.73 -506.667L3865.18 -508H3930.15Z" fill="#491EE0"/>
<path opacity="0.3" d="M711.995 1303.14C709.236 1339.46 707.629 1375.85 703.72 1412.03C680.753 1623.94 610.806 1819.11 493.879 1997.52C492.97 1998.73 491.994 1999.89 490.957 2000.99L378.419 1888.21C353.924 1863.66 329.265 1839.27 305.081 1814.42C304.065 1812.85 303.449 1811.06 303.287 1809.2C303.124 1807.33 303.42 1805.46 304.149 1803.74C407.474 1624.11 454.997 1430.77 446.716 1223.69C428.048 760.397 99.9709 356.51 -349.905 245.422C-628.645 176.662 -893.449 214.915 -1143.38 356.51C-1145.76 357.862 -1151 357.935 -1152.52 356.309C-1214.43 294.843 -1276.18 233.164 -1337.77 171.272C-1338.37 170.67 -1338.87 169.921 -1340 168.514C-1330.98 162.686 -1322.25 156.822 -1313.33 151.305C-1066.52 -1.39665 -798.264 -68.8055 -508.71 -46.9935C93.2125 -1.52448 586.342 446.553 691.062 1042.78C701.638 1103.07 704.323 1164.72 710.661 1225.72L711.995 1238.18L711.995 1303.14Z" fill="#491EE0"/>
<path fill-rule="evenodd" clip-rule="evenodd" d="M2482.36 570.045C2484.67 571.591 2486.88 573.064 2488.87 574.427L2489.6 574.926L2505.04 583.841L2508.88 585.543L2508.91 585.554C2512.34 587.088 2516.1 588.852 2520.07 590.716L2520.08 590.72C2529.69 595.231 2540.55 600.327 2551.05 604.159L2551.06 604.161C2698.47 657.927 2863.08 605.313 2951.37 475.978L2951.38 475.974C2993.77 413.843 3013.43 344.682 3011.15 269.753L3011.15 269.749C3011.09 267.751 3010.96 265.499 3010.86 263.645L3010.86 263.644C3010.82 262.897 3010.78 262.215 3010.75 261.64L3009.32 232.875L2901.14 261.461L2900.99 279.287C2900.47 343.021 2878.62 399.016 2834.88 444.541C2764.51 517.738 2651.64 535.834 2561.58 488.567L2561.57 488.564C2520.89 467.194 2487.17 435.793 2464.4 396.511L2455.56 381.252L2438.47 385.587C2432.29 387.153 2426.08 388.822 2420.05 390.44L2420 390.454C2417.94 391.008 2415.9 391.556 2413.89 392.092L2348.92 409.424L2361.86 435.083C2386.67 484.297 2421.82 526.441 2466.47 559.104L2466.47 559.109C2471.6 562.857 2477.25 566.628 2482.35 570.041L2482.36 570.045ZM2851.71 460.719C2851.71 460.719 2851.71 460.719 2851.71 460.719C2857.72 454.465 2863.35 448.028 2868.61 441.415C2863.35 448.028 2857.72 454.466 2851.71 460.719ZM2382.7 424.572L2382.7 424.572C2405.91 470.601 2438.68 509.851 2480.25 540.263C2484.99 543.725 2489.87 546.984 2494.75 550.244L2494.75 550.244C2489.87 546.984 2484.99 543.725 2480.25 540.263C2445.17 514.604 2416.37 482.651 2394.28 445.644C2390.19 438.791 2386.33 431.764 2382.7 424.572Z" fill="#FED670"/>
<path fill-rule="evenodd" clip-rule="evenodd" d="M2417.26 313.955L2407.16 308.109L2417.26 313.964C2409.17 327.906 2396.51 338.616 2381.41 344.269C2366.32 349.923 2349.74 350.172 2334.48 344.974C2319.23 339.775 2306.24 329.451 2297.74 315.758C2289.24 302.065 2285.75 285.85 2287.86 269.872C2289.97 253.894 2297.55 239.141 2309.32 228.124C2321.08 217.108 2336.3 210.508 2352.38 209.448C2368.46 208.389 2384.41 212.935 2397.52 222.314C2410.63 231.692 2420.08 245.322 2424.27 260.885L2424.27 260.896C2426.65 269.766 2427.25 279.019 2426.05 288.123C2424.85 297.228 2421.86 306.006 2417.26 313.955Z" fill="#FED670"/>
</g>
<defs>
<clipPath id="clip0">
<rect width="3170" height="769" fill="white"/>
</clipPath>
</defs>
</svg>
