<svg id="Capa_1" data-name="Capa 1" xmlns="http://www.w3.org/2000/svg" viewBox="0 0 3023 1080">
  <path d="M1408.2,325.2l2.6.4c56.7,2.9,105.6,24.1,146.9,63l2.7,2.6L1528.6,423l-4.6-4.2a180.9,180.9,0,0,0-66.9-39.5,186.7,186.7,0,0,0-33.1-7.5,199.3,199.3,0,0,0-35.4-1.1,173.1,173.1,0,0,0-37.8,6.6,176.5,176.5,0,0,0-30.5,11.8,168.5,168.5,0,0,0-37.3,24.6c-4.4,3.8-8.7,7.7-12.8,11.9a179.1,179.1,0,0,0-37.2,56.5,171.8,171.8,0,0,0-11.5,40.3,176.2,176.2,0,0,0-2,17.8q-.6,10.6-.3,21.3a179.2,179.2,0,0,0,5.6,36.3,181.8,181.8,0,0,0,161.4,135.3,190.9,190.9,0,0,0,26.2.2,173.2,173.2,0,0,0,41.7-7.6,186.6,186.6,0,0,0,27.1-10.8,182.5,182.5,0,0,0,93.6-111.3c.4-1.6.9-3.2,1.4-5.1-6-.1-11.6,0-17.2,0H1355.1l46.2-46.3h225.8v3.2c-1.2,55.3-19.7,104-55.9,145.7-32.3,37.3-72.9,61.1-120.8,72.2a236.5,236.5,0,0,1-38.4,5.3,205,205,0,0,1-32.3-.7c-49.5-4.9-93.1-23.7-130.2-56.9s-59.2-72.3-70-119.5a208.3,208.3,0,0,1-5.3-40.9c-1.7-60.1,16.9-113.1,56.4-158.3,31.9-36.6,72-60.1,119.2-71.2a218.7,218.7,0,0,1,35.1-5.3l5.2-.2,2.7-.4Z" fill="#211985"/>
  <path d="M2803,778.9h-45.2V598.6H2621.7V778.5c-1.7.5-42,.6-45,.2V507.8h44.9v43.9c1.9.5,131.8.7,136.2.2V417.4l1.9-.2H2803Z" fill="#211985"/>
  <path d="M2349.5,598.3H2169.2l-46.1-46.1h174.3a133.3,133.3,0,0,0-29.3-48.1c-20.9-22-46.4-35.8-76.3-40.9A136.4,136.4,0,0,0,2082.4,703c27,22,58.1,32.4,92.9,30.8s64.4-15,89.3-38.9l31.3,31.4c-44.7,47-129.5,72.6-208.1,33.2-89.1-44.9-125.1-153.6-80.2-242.9a180.5,180.5,0,0,1,205.7-94C2304.9,445.9,2351.1,528.5,2349.5,598.3Z" fill="#211985"/>
  <path d="M1809,687.3l155.8-270h51.6v.2c0,.1.1.2,0,.2l-.3.9L1808.4,778.8h-45V417.7l.2-.2c0-.1.1-.1.2-.1l.9-.2h42.6l1.1.2V687.2Z" fill="#211985"/>
  <path d="M2440.4,778.8h-45.2V461.3c-3.1-.2-6-.1-8.9-.1h-44.6l-25.6-43.9h305.4v43.9H2440.4Z" fill="#211985"/>
  <path d="M1717.7,778.8h-45v-271h44.9c0,.1.1.1.1.2q0,134.7.1,269.4C1717.8,777.9,1717.7,778.2,1717.7,778.8Z" fill="#211985"/>
  <path d="M1695.2,417.2a21.8,21.8,0,0,1,15.8,6.7,22.3,22.3,0,1,1-16.1-6.7Z" fill="#211985"/>
  <path d="M974.4,550.4c-.8,11.5-1,23-2.5,34.5C957,706,900.5,803.1,801.3,874.2c-74,53.1-157.7,77.9-248.7,74.7-105.4-3.6-196.2-42.8-272.3-115.7-.7-.7-.7-3.4,0-4.1Q422.7,686.5,565.5,544a12.8,12.8,0,0,1,8.2-3.3q200.4-.3,400.8-.2Z" fill="#211985"/>
  <path d="M575.5,131.4c11.2.8,22.5,1.3,33.7,2.6a405.4,405.4,0,0,1,181.1,64.9,4.1,4.1,0,0,1,1,.9l-34.8,34.8c-7.6,7.6-15.2,15.2-22.9,22.7a2.8,2.8,0,0,1-1.6.5,3.5,3.5,0,0,1-1.7-.2q-83.2-48-179.4-44.1c-143.3,5.7-268.2,107.2-302.5,246.4-21.3,86.2-9.5,168.1,34.3,245.5.4.7.5,2.3,0,2.8l-57.3,57.3-.8.7c-1.8-2.8-3.6-5.5-5.3-8.3C172,681.6,151.2,598.6,157.9,509,172,322.8,310.6,170.3,495,137.9c18.6-3.3,37.7-4.1,56.6-6.1l3.8-.4Z" fill="#211985"/>
  <path d="M782.8,378.2a73.7,73.7,0,1,1,21.6,52.2,72.8,72.8,0,0,1-16-23.9A74.4,74.4,0,0,1,782.8,378.2Z" fill="#211985"/>
</svg>
