<svg width="169" height="185" viewBox="0 0 169 185" fill="none" xmlns="http://www.w3.org/2000/svg">
<path d="M76.4618 121V116.872C74.4778 118.472 72.2698 119.688 69.8378 120.52C67.4058 121.288 64.8778 121.672 62.2538 121.672C58.7338 121.672 55.4058 121 52.2698 119.656C49.1978 118.312 46.5098 116.488 44.2058 114.184C41.9018 111.88 40.0778 109.16 38.7338 106.024C37.4538 102.888 36.8138 99.528 36.8138 95.944C36.8138 92.36 37.4858 89 38.8298 85.864C40.1738 82.728 41.9978 80.008 44.3018 77.704C46.6058 75.4 49.3258 73.608 52.4618 72.328C55.6618 70.984 59.0538 70.312 62.6378 70.312C65.0698 70.312 67.4378 70.664 69.7418 71.368C72.1098 72.008 74.2858 72.968 76.2698 74.248V53.8L89.4218 50.92V121H76.4618ZM49.7738 95.944C49.7738 99.976 51.1818 103.4 53.9978 106.216C56.8138 109.032 60.2698 110.44 64.3657 110.44C66.7978 110.44 69.0058 110.024 70.9897 109.192C73.0378 108.36 74.7978 107.176 76.2698 105.64V86.152C74.8618 84.68 73.1018 83.528 70.9897 82.696C68.9417 81.864 66.7337 81.448 64.3657 81.448C60.2057 81.448 56.7178 82.856 53.9018 85.672C51.1498 88.424 49.7738 91.848 49.7738 95.944Z" fill="#C2449F"/>
<path d="M93.63 96.04C93.63 92.392 94.302 89 95.646 85.864C97.054 82.664 98.942 79.912 101.31 77.608C103.742 75.24 106.59 73.384 109.854 72.04C113.118 70.696 116.606 70.024 120.318 70.024C124.03 70.024 127.518 70.696 130.782 72.04C134.046 73.384 136.862 75.24 139.23 77.608C141.662 79.912 143.55 82.664 144.894 85.864C146.302 89 147.006 92.392 147.006 96.04C147.006 99.688 146.302 103.112 144.894 106.312C143.55 109.448 141.662 112.168 139.23 114.472C136.862 116.776 134.046 118.6 130.782 119.944C127.518 121.288 124.03 121.96 120.318 121.96C116.606 121.96 113.118 121.288 109.854 119.944C106.59 118.6 103.742 116.776 101.31 114.472C98.942 112.168 97.054 109.448 95.646 106.312C94.302 103.112 93.63 99.688 93.63 96.04ZM120.318 110.536C124.158 110.536 127.422 109.128 130.11 106.312C132.798 103.496 134.142 100.072 134.142 96.04C134.142 91.944 132.798 88.488 130.11 85.672C127.422 82.856 124.158 81.448 120.318 81.448C116.478 81.448 113.214 82.856 110.526 85.672C107.838 88.488 106.494 91.944 106.494 96.04C106.494 100.072 107.838 103.496 110.526 106.312C113.214 109.128 116.478 110.536 120.318 110.536Z" fill="#C2449F"/>
<path d="M65.8683 172.579C68.2826 172.579 70.5245 172.096 72.5939 171.129C74.7323 170.163 76.7672 168.645 78.6987 166.575L87.1833 175.373C84.4241 178.41 81.113 180.791 77.2501 182.516C73.3872 184.172 69.3863 185 65.2475 185C61.3156 185 57.5907 184.275 54.0727 182.826C50.6236 181.377 47.623 179.41 45.0707 176.926C42.5874 174.442 40.6215 171.509 39.1729 168.128C37.7243 164.677 37 160.985 37 157.052C37 153.118 37.7243 149.461 39.1729 146.079C40.6215 142.629 42.5874 139.662 45.0707 137.177C47.623 134.624 50.6236 132.623 54.0727 131.174C57.5907 129.725 61.3156 129 65.2475 129C69.5243 129 73.6286 129.863 77.5605 131.588C81.4924 133.244 84.8379 135.59 87.5972 138.627L78.9056 147.839C76.9742 145.7 74.9048 144.078 72.6974 142.974C70.49 141.87 68.1102 141.318 65.5579 141.318C61.4881 141.318 58.039 142.836 55.2108 145.872C52.4516 148.909 51.072 152.635 51.072 157.052C51.072 161.468 52.4861 165.16 55.3143 168.128C58.2115 171.095 61.7295 172.579 65.8683 172.579Z" fill="#C2449F"/>
<path d="M95.6792 177.547L102.715 168.128C105.888 170.198 108.889 171.75 111.717 172.786C114.545 173.752 117.374 174.235 120.202 174.235C123.375 174.235 125.893 173.717 127.755 172.682C129.687 171.647 130.652 170.267 130.652 168.542C130.652 167.161 130.1 166.057 128.997 165.229C127.962 164.401 126.272 163.815 123.927 163.469L113.58 161.917C108.268 161.089 104.198 159.364 101.37 156.741C98.6109 154.119 97.2313 150.634 97.2313 146.287C97.2313 141.111 99.2662 136.97 103.336 133.865C107.406 130.76 112.855 129.207 119.684 129.207C123.616 129.207 127.445 129.794 131.17 130.967C134.895 132.071 138.447 133.727 141.827 135.935L134.998 145.044C132.032 143.319 129.204 142.043 126.513 141.214C123.823 140.317 121.098 139.869 118.339 139.869C115.787 139.869 113.718 140.352 112.131 141.318C110.613 142.284 109.855 143.561 109.855 145.148C109.855 146.597 110.407 147.736 111.51 148.564C112.683 149.323 114.58 149.875 117.201 150.22L127.548 151.773C132.791 152.532 136.826 154.257 139.654 156.948C142.551 159.64 144 163.055 144 167.196C144 169.749 143.379 172.13 142.138 174.338C140.965 176.478 139.344 178.341 137.274 179.928C135.205 181.515 132.722 182.757 129.825 183.654C126.927 184.551 123.789 185 120.409 185C115.511 185 110.924 184.379 106.647 183.137C102.37 181.826 98.7143 179.962 95.6792 177.547Z" fill="#C2449F"/>
<path d="M85.0163 0C87.2964 0.173197 89.581 0.274133 91.853 0.519591C105.157 1.96175 117.41 6.35399 128.612 13.6963C128.688 13.7534 128.76 13.8147 128.829 13.8798L121.748 20.9465C120.207 22.4846 118.676 24.0331 117.116 25.5517C117.017 25.6155 116.905 25.6542 116.788 25.6644C116.671 25.6746 116.553 25.656 116.445 25.6102C105.168 19.122 93.029 16.1379 80.0284 16.6579C50.9416 17.8301 25.5845 38.4314 18.6101 66.6808C14.2932 84.184 16.6948 100.812 25.5845 116.506C25.6694 116.656 25.674 116.985 25.5719 117.08C21.7129 120.968 17.8406 124.845 13.9548 128.713C13.917 128.751 13.87 128.782 13.7817 128.853C13.4158 128.286 13.0476 127.738 12.7013 127.178C3.11423 111.68 -1.11787 94.8351 0.251539 76.6528C3.1062 38.8557 31.2376 7.89021 68.6705 1.31446C72.4553 0.650349 76.3262 0.48174 80.1557 0.083731L80.9379 0H85.0163Z" fill="#303B72"/>
<path d="M127.092 50.1049C127.099 46.6531 128.301 43.3103 130.495 40.6454C132.689 37.9805 135.738 36.1582 139.124 35.4888C142.51 34.8193 146.023 35.3441 149.066 36.9736C152.109 38.6032 154.493 41.2369 155.812 44.4265C157.132 47.6161 157.305 51.1644 156.303 54.4675C155.301 57.7707 153.185 60.6244 150.316 62.5431C147.447 64.4618 144.002 65.3268 140.566 64.9909C137.131 64.655 133.919 63.139 131.475 60.7009C130.084 59.3097 128.981 57.6577 128.228 55.8395C127.476 54.0213 127.09 52.0726 127.092 50.1049Z" fill="#303B72"/>
</svg>
