<svg width="893" height="190" viewBox="0 0 893 190" fill="none" xmlns="http://www.w3.org/2000/svg">
<g clip-path="url(#clip0)">
<path d="M10.1887 126.788C9.87557 127.236 9.43758 127.573 8.87476 127.797C8.31616 128.017 7.66447 128.127 6.91968 128.127C6.16642 128.127 5.4978 127.951 4.91382 127.6C4.32983 127.245 3.87703 126.741 3.55542 126.089C3.23804 125.438 3.07511 124.682 3.06665 123.823V123.017C3.06665 121.625 3.39038 120.546 4.03784 119.78C4.68953 119.014 5.6036 118.631 6.78003 118.631C7.74487 118.631 8.5214 118.878 9.10962 119.374C9.69784 119.864 10.0575 120.563 10.1887 121.468H8.96997C8.74146 120.245 8.01359 119.634 6.78638 119.634C5.96965 119.634 5.34969 119.922 4.92651 120.497C4.50757 121.068 4.29598 121.898 4.29175 122.985V123.741C4.29175 124.778 4.52873 125.603 5.00269 126.216C5.47664 126.826 6.11776 127.13 6.92603 127.13C7.38306 127.13 7.78296 127.08 8.12573 126.978C8.46851 126.876 8.75203 126.705 8.97632 126.464V124.388H6.83716V123.398H10.1887V126.788ZM13.2927 128H12.1121V120.605H13.2927V128ZM17.6663 126.146L17.825 126.743L17.99 126.159L20.0212 120.605H21.2781L18.3772 128H17.2791L14.3782 120.605H15.6414L17.6663 126.146ZM26.8386 124.661H23.4617V127.042H27.3909V128H22.2874V120.605H27.3528V121.576H23.4617V123.696H26.8386V124.661ZM31.5676 125.15H29.7966V128H28.6223V120.605H31.3264C32.2278 120.605 32.9218 120.802 33.4084 121.195C33.8993 121.589 34.1448 122.145 34.1448 122.865C34.1448 123.83 33.6475 124.5 32.6531 124.877L34.4812 127.937V128H33.2244L31.5676 125.15ZM29.7966 124.191H31.3582C31.8533 124.191 32.2447 124.077 32.5325 123.849C32.8245 123.616 32.9705 123.303 32.9705 122.909C32.9705 122.486 32.8287 122.158 32.5452 121.925C32.2616 121.693 31.8533 121.576 31.3201 121.576H29.7966V124.191Z" fill="#515556"/>
<path d="M24.4716 22.6477C20.9413 19.1175 15.2176 19.1175 11.6874 22.6477C8.15715 26.178 8.15715 31.9016 11.6874 35.4318C15.2176 38.9621 20.9413 38.9621 24.4716 35.4318C28.0018 31.9016 28.0018 26.178 24.4716 22.6477ZM27.1196 50.7351C27.1097 50.3371 27.2567 49.9359 27.5605 49.6321C28.1488 49.0438 29.1028 49.0438 29.6912 49.6321C29.995 49.9359 30.1418 50.3371 30.132 50.7351H30.1448V68.0613C30.1448 71.4512 29.7697 74.8411 33.1457 74.8411C36.5216 74.8411 36.1466 71.4512 36.1466 68.0613V47.7219H36.1589C36.1589 42.7294 31.3022 38.6822 25.3112 38.6822H18.0794H10.8477C4.85663 38.6822 9.17922e-06 42.7294 9.17922e-06 47.7219H0.0123993V68.0613C0.0123993 71.4512 -0.362696 74.8411 3.01325 74.8411C6.3892 74.8411 6.01411 71.4512 6.01411 68.0613V50.7351H6.02693C6.03623 50.3622 6.18312 49.9921 6.46772 49.7075C7.05612 49.1191 8.0101 49.1191 8.59846 49.7075C8.88306 49.9921 9.03002 50.3622 9.03926 50.7351H9.03974V50.7713C9.03974 50.7723 9.03974 50.7733 9.03974 50.7743V77.8544H9.05586V101.96C9.05586 106.48 8.56822 111 12.9569 111C17.3457 111 16.858 106.48 16.858 101.96V77.8544H16.8748C16.8648 77.5335 16.9822 77.2093 17.2272 76.9644C17.6979 76.4937 18.4611 76.4937 18.9318 76.9644C19.1767 77.2093 19.2941 77.5335 19.2842 77.8544H19.3009V101.96C19.3009 106.48 18.8132 111 23.202 111C27.5907 111 27.1031 106.48 27.1031 101.96V77.8544H27.1193V50.7351H27.1196Z" fill="#1DB100"/>
<path d="M485.826 1.5H196.826V152.5H485.826V1.5Z" fill="white"/>
<path d="M196.826 1.5H485.826V152.5H196.826V1.5Z" stroke="#808080" stroke-width="3" stroke-linecap="round" stroke-linejoin="round" stroke-dasharray="4 4"/>
<path d="M215.551 129.078C214.649 129.078 213.835 128.879 213.107 128.48C212.387 128.081 211.82 127.531 211.404 126.829C210.996 126.118 210.793 125.325 210.793 124.45C210.793 123.575 210.996 122.786 211.404 122.084C211.82 121.373 212.392 120.819 213.12 120.42C213.848 120.021 214.662 119.822 215.564 119.822C216.24 119.822 216.864 119.935 217.436 120.16C218.008 120.385 218.493 120.715 218.892 121.148L218.281 121.759C217.57 121.04 216.673 120.68 215.59 120.68C214.87 120.68 214.216 120.845 213.627 121.174C213.037 121.503 212.574 121.954 212.236 122.526C211.906 123.098 211.742 123.739 211.742 124.45C211.742 125.161 211.906 125.802 212.236 126.374C212.574 126.946 213.037 127.397 213.627 127.726C214.216 128.055 214.87 128.22 215.59 128.22C216.682 128.22 217.579 127.856 218.281 127.128L218.892 127.739C218.493 128.172 218.003 128.506 217.423 128.74C216.851 128.965 216.227 129.078 215.551 129.078ZM225.274 127.102H221.153L220.295 129H219.359L222.752 121.655H223.675L227.068 129H226.132L225.274 127.102ZM224.936 126.348L223.22 122.539L221.491 126.348H224.936ZM235.41 129V123.345L232.602 128.077H232.173L229.365 123.423V129H228.468V121.655H229.274L232.394 126.92L235.501 121.655H236.307L236.32 129H235.41ZM241.916 121.655C242.869 121.655 243.619 121.88 244.165 122.331C244.711 122.773 244.984 123.393 244.984 124.19C244.984 124.987 244.707 125.611 244.152 126.062C243.606 126.504 242.861 126.725 241.916 126.725H239.992V129H239.056V121.655H241.916ZM241.864 125.945C242.566 125.945 243.103 125.793 243.476 125.49C243.857 125.187 244.048 124.753 244.048 124.19C244.048 123.627 243.862 123.193 243.489 122.89C243.116 122.587 242.575 122.435 241.864 122.435H239.992V125.945H241.864ZM251.071 127.102H246.95L246.092 129H245.156L248.549 121.655H249.472L252.865 129H251.929L251.071 127.102ZM250.733 126.348L249.017 122.539L247.288 126.348H250.733ZM254.265 121.655H255.201V129H254.265V121.655ZM263.03 125.321H263.927V128.142C263.589 128.445 263.177 128.679 262.692 128.844C262.215 129 261.713 129.078 261.184 129.078C260.43 129.078 259.75 128.918 259.143 128.597C258.536 128.268 258.06 127.817 257.713 127.245C257.366 126.673 257.193 126.032 257.193 125.321C257.193 124.619 257.362 123.982 257.7 123.41C258.047 122.838 258.519 122.387 259.117 122.058C259.724 121.729 260.4 121.564 261.145 121.564C262.376 121.564 263.32 121.928 263.979 122.656L263.381 123.267C262.792 122.678 262.051 122.383 261.158 122.383C260.586 122.383 260.07 122.513 259.611 122.773C259.152 123.024 258.788 123.375 258.519 123.826C258.259 124.268 258.129 124.766 258.129 125.321C258.129 125.876 258.259 126.378 258.519 126.829C258.788 127.271 259.152 127.622 259.611 127.882C260.079 128.133 260.608 128.259 261.197 128.259C261.908 128.259 262.519 128.086 263.03 127.739V125.321ZM272.745 121.655V129H271.965L267.35 123.267V129H266.414V121.655H267.194L271.809 127.388V121.655H272.745ZM288.449 119.9V129H287.526V121.72L283.951 127.843H283.496L279.921 121.759V129H278.998V119.9H279.791L283.743 126.647L287.656 119.9H288.449ZM295.873 127.102H291.752L290.894 129H289.958L293.351 121.655H294.274L297.667 129H296.731L295.873 127.102ZM295.535 126.348L293.819 122.539L292.09 126.348H295.535ZM305.398 121.655V129H304.618L300.003 123.267V129H299.067V121.655H299.847L304.462 127.388V121.655H305.398ZM312.707 127.102H308.586L307.728 129H306.792L310.185 121.655H311.108L314.501 129H313.565L312.707 127.102ZM312.369 126.348L310.653 122.539L308.924 126.348H312.369ZM320.87 125.321H321.767V128.142C321.429 128.445 321.017 128.679 320.532 128.844C320.055 129 319.552 129.078 319.024 129.078C318.27 129.078 317.589 128.918 316.983 128.597C316.376 128.268 315.899 127.817 315.553 127.245C315.206 126.673 315.033 126.032 315.033 125.321C315.033 124.619 315.202 123.982 315.54 123.41C315.886 122.838 316.359 122.387 316.957 122.058C317.563 121.729 318.239 121.564 318.985 121.564C320.215 121.564 321.16 121.928 321.819 122.656L321.221 123.267C320.631 122.678 319.89 122.383 318.998 122.383C318.426 122.383 317.91 122.513 317.451 122.773C316.991 123.024 316.627 123.375 316.359 123.826C316.099 124.268 315.969 124.766 315.969 125.321C315.969 125.876 316.099 126.378 316.359 126.829C316.627 127.271 316.991 127.622 317.451 127.882C317.919 128.133 318.447 128.259 319.037 128.259C319.747 128.259 320.358 128.086 320.87 127.739V125.321ZM329.597 128.22V129H324.254V121.655H329.441V122.435H325.19V124.892H328.986V125.659H325.19V128.22H329.597ZM336.648 129L334.984 126.686C334.759 126.703 334.59 126.712 334.477 126.712H332.553V129H331.617V121.655H334.477C335.431 121.655 336.18 121.88 336.726 122.331C337.272 122.773 337.545 123.393 337.545 124.19C337.545 124.753 337.398 125.234 337.103 125.633C336.817 126.032 336.406 126.322 335.868 126.504L337.662 129H336.648ZM334.425 125.945C335.127 125.945 335.665 125.793 336.037 125.49C336.419 125.187 336.609 124.753 336.609 124.19C336.609 123.627 336.423 123.193 336.05 122.89C335.678 122.587 335.136 122.435 334.425 122.435H332.553V125.945H334.425Z" fill="#515556"/>
<path d="M275.625 22.6477C272.095 19.1175 266.371 19.1175 262.841 22.6477C259.31 26.178 259.31 31.9016 262.841 35.4318C266.371 38.9621 272.095 38.9621 275.625 35.4318C279.155 31.9016 279.155 26.178 275.625 22.6477ZM278.273 50.7351C278.263 50.3371 278.41 49.9359 278.714 49.6321C279.302 49.0438 280.256 49.0438 280.845 49.6321C281.148 49.9359 281.295 50.3371 281.285 50.7351H281.298V68.0613C281.298 71.4512 280.923 74.8411 284.299 74.8411C287.675 74.8411 287.3 71.4512 287.3 68.0613V47.7219H287.312C287.312 42.7294 282.456 38.6822 276.465 38.6822H269.233H262.001C256.01 38.6822 251.153 42.7294 251.153 47.7219H251.166V68.0613C251.166 71.4512 250.791 74.8411 254.167 74.8411C257.543 74.8411 257.167 71.4512 257.167 68.0613V50.7351H257.18C257.19 50.3622 257.336 49.9921 257.621 49.7075C258.209 49.1191 259.163 49.1191 259.752 49.7075C260.036 49.9921 260.183 50.3622 260.193 50.7351H260.193V50.7713C260.193 50.7723 260.193 50.7733 260.193 50.7743V77.8544H260.209V101.96C260.209 106.48 259.722 111 264.11 111C268.499 111 268.011 106.48 268.011 101.96V77.8544H268.028C268.018 77.5335 268.136 77.2093 268.381 76.9644C268.851 76.4937 269.614 76.4937 270.085 76.9644C270.33 77.2093 270.447 77.5335 270.438 77.8544H270.454V101.96C270.454 106.48 269.966 111 274.355 111C278.744 111 278.256 106.48 278.256 101.96V77.8544H278.273V50.7351H278.273Z" fill="#00A2FF"/>
<path d="M356.908 129.078C356.006 129.078 355.192 128.879 354.464 128.48C353.744 128.081 353.177 127.531 352.761 126.829C352.353 126.118 352.15 125.325 352.15 124.45C352.15 123.575 352.353 122.786 352.761 122.084C353.177 121.373 353.749 120.819 354.477 120.42C355.205 120.021 356.019 119.822 356.921 119.822C357.597 119.822 358.221 119.935 358.793 120.16C359.365 120.385 359.85 120.715 360.249 121.148L359.638 121.759C358.927 121.04 358.03 120.68 356.947 120.68C356.227 120.68 355.573 120.845 354.984 121.174C354.394 121.503 353.931 121.954 353.593 122.526C353.263 123.098 353.099 123.739 353.099 124.45C353.099 125.161 353.263 125.802 353.593 126.374C353.931 126.946 354.394 127.397 354.984 127.726C355.573 128.055 356.227 128.22 356.947 128.22C358.039 128.22 358.936 127.856 359.638 127.128L360.249 127.739C359.85 128.172 359.36 128.506 358.78 128.74C358.208 128.965 357.584 129.078 356.908 129.078ZM366.631 127.102H362.51L361.652 129H360.716L364.109 121.655H365.032L368.425 129H367.489L366.631 127.102ZM366.293 126.348L364.577 122.539L362.848 126.348H366.293ZM376.767 129V123.345L373.959 128.077H373.53L370.722 123.423V129H369.825V121.655H370.631L373.751 126.92L376.858 121.655H377.664L377.677 129H376.767ZM383.273 121.655C384.226 121.655 384.976 121.88 385.522 122.331C386.068 122.773 386.341 123.393 386.341 124.19C386.341 124.987 386.064 125.611 385.509 126.062C384.963 126.504 384.218 126.725 383.273 126.725H381.349V129H380.413V121.655H383.273ZM383.221 125.945C383.923 125.945 384.46 125.793 384.833 125.49C385.214 125.187 385.405 124.753 385.405 124.19C385.405 123.627 385.219 123.193 384.846 122.89C384.473 122.587 383.932 122.435 383.221 122.435H381.349V125.945H383.221ZM392.428 127.102H388.307L387.449 129H386.513L389.906 121.655H390.829L394.222 129H393.286L392.428 127.102ZM392.09 126.348L390.374 122.539L388.645 126.348H392.09ZM395.622 121.655H396.558V129H395.622V121.655ZM404.387 125.321H405.284V128.142C404.946 128.445 404.534 128.679 404.049 128.844C403.572 129 403.069 129.078 402.541 129.078C401.787 129.078 401.106 128.918 400.5 128.597C399.893 128.268 399.416 127.817 399.07 127.245C398.723 126.673 398.55 126.032 398.55 125.321C398.55 124.619 398.719 123.982 399.057 123.41C399.403 122.838 399.876 122.387 400.474 122.058C401.08 121.729 401.756 121.564 402.502 121.564C403.732 121.564 404.677 121.928 405.336 122.656L404.738 123.267C404.148 122.678 403.407 122.383 402.515 122.383C401.943 122.383 401.427 122.513 400.968 122.773C400.508 123.024 400.144 123.375 399.876 123.826C399.616 124.268 399.486 124.766 399.486 125.321C399.486 125.876 399.616 126.378 399.876 126.829C400.144 127.271 400.508 127.622 400.968 127.882C401.436 128.133 401.964 128.259 402.554 128.259C403.264 128.259 403.875 128.086 404.387 127.739V125.321ZM414.102 121.655V129H413.322L408.707 123.267V129H407.771V121.655H408.551L413.166 127.388V121.655H414.102ZM426.569 129L424.489 126.075C424.255 126.101 424.012 126.114 423.761 126.114H421.317V129H420.355V119.9H423.761C424.922 119.9 425.832 120.177 426.491 120.732C427.15 121.287 427.479 122.049 427.479 123.02C427.479 123.731 427.297 124.333 426.933 124.827C426.578 125.312 426.066 125.663 425.399 125.88L427.622 129H426.569ZM423.735 125.295C424.636 125.295 425.325 125.096 425.802 124.697C426.279 124.298 426.517 123.739 426.517 123.02C426.517 122.283 426.279 121.72 425.802 121.33C425.325 120.931 424.636 120.732 423.735 120.732H421.317V125.295H423.735ZM434.976 128.22V129H429.633V121.655H434.82V122.435H430.569V124.892H434.365V125.659H430.569V128.22H434.976ZM443.199 121.655L439.91 129H438.987L435.698 121.655H436.699L439.468 127.895L442.25 121.655H443.199ZM444.727 121.655H445.663V129H444.727V121.655ZM453.739 128.22V129H448.396V121.655H453.583V122.435H449.332V124.892H453.128V125.659H449.332V128.22H453.739ZM466.006 121.655L463.497 129H462.522L460.416 122.942L458.31 129H457.309L454.8 121.655H455.775L457.842 127.791L459.987 121.655H460.871L462.99 127.817L465.096 121.655H466.006ZM473.227 128.22V129H467.884V121.655H473.071V122.435H468.82V124.892H472.616V125.659H468.82V128.22H473.227ZM480.278 129L478.614 126.686C478.389 126.703 478.22 126.712 478.107 126.712H476.183V129H475.247V121.655H478.107C479.06 121.655 479.81 121.88 480.356 122.331C480.902 122.773 481.175 123.393 481.175 124.19C481.175 124.753 481.028 125.234 480.733 125.633C480.447 126.032 480.035 126.322 479.498 126.504L481.292 129H480.278ZM478.055 125.945C478.757 125.945 479.294 125.793 479.667 125.49C480.048 125.187 480.239 124.753 480.239 124.19C480.239 123.627 480.053 123.193 479.68 122.89C479.307 122.587 478.766 122.435 478.055 122.435H476.183V125.945H478.055Z" fill="#515556"/>
<path d="M417.951 22.6477C414.42 19.1175 408.697 19.1175 405.167 22.6477C401.636 26.178 401.636 31.9016 405.167 35.4318C408.697 38.9621 414.42 38.9621 417.951 35.4318C421.481 31.9016 421.481 26.178 417.951 22.6477ZM420.599 50.7351C420.589 50.3371 420.736 49.9359 421.04 49.6321C421.628 49.0438 422.582 49.0438 423.17 49.6321C423.474 49.9359 423.621 50.3371 423.611 50.7351H423.624V68.0613C423.624 71.4512 423.249 74.8411 426.625 74.8411C430.001 74.8411 429.626 71.4512 429.626 68.0613V47.7219H429.638C429.638 42.7294 424.781 38.6822 418.79 38.6822H411.558H404.327C398.336 38.6822 393.479 42.7294 393.479 47.7219H393.491V68.0613C393.491 71.4512 393.116 74.8411 396.492 74.8411C399.868 74.8411 399.493 71.4512 399.493 68.0613V50.7351H399.506C399.515 50.3622 399.662 49.9921 399.947 49.7075C400.535 49.1191 401.489 49.1191 402.078 49.7075C402.362 49.9921 402.509 50.3622 402.518 50.7351H402.519V50.7713C402.519 50.7723 402.519 50.7733 402.519 50.7743V77.8544H402.535V101.96C402.535 106.48 402.047 111 406.436 111C410.825 111 410.337 106.48 410.337 101.96V77.8544H410.354C410.344 77.5335 410.461 77.2093 410.706 76.9644C411.177 76.4937 411.94 76.4937 412.411 76.9644C412.656 77.2093 412.773 77.5335 412.763 77.8544H412.78V101.96C412.78 106.48 412.292 111 416.681 111C421.07 111 420.582 106.48 420.582 101.96V77.8544H420.598V50.7351H420.599Z" fill="#E400E4"/>
<path d="M891.159 1.5H518.159V152.5H891.159V1.5Z" fill="white"/>
<path d="M518.159 1.5H891.159V152.5H518.159V1.5Z" stroke="#808080" stroke-width="3" stroke-linecap="round" stroke-linejoin="round" stroke-dasharray="4 4"/>
<path d="M691.25 121.732H688.052V120.9H695.41V121.732H692.212V130H691.25V121.732ZM701.759 130L700.095 127.686C699.87 127.703 699.701 127.712 699.588 127.712H697.664V130H696.728V122.655H699.588C700.542 122.655 701.291 122.88 701.837 123.331C702.383 123.773 702.656 124.393 702.656 125.19C702.656 125.753 702.509 126.234 702.214 126.633C701.928 127.032 701.517 127.322 700.979 127.504L702.773 130H701.759ZM699.536 126.945C700.238 126.945 700.776 126.793 701.148 126.49C701.53 126.187 701.72 125.753 701.72 125.19C701.72 124.627 701.534 124.193 701.161 123.89C700.789 123.587 700.247 123.435 699.536 123.435H697.664V126.945H699.536ZM709.417 128.102H705.296L704.438 130H703.502L706.895 122.655H707.818L711.211 130H710.275L709.417 128.102ZM709.079 127.348L707.363 123.539L705.634 127.348H709.079ZM715.668 130.078C714.931 130.078 714.264 129.918 713.666 129.597C713.068 129.268 712.596 128.817 712.249 128.245C711.911 127.673 711.742 127.032 711.742 126.321C711.742 125.619 711.911 124.982 712.249 124.41C712.596 123.838 713.068 123.387 713.666 123.058C714.264 122.729 714.931 122.564 715.668 122.564C716.873 122.564 717.804 122.928 718.463 123.656L717.865 124.267C717.284 123.678 716.561 123.383 715.694 123.383C715.122 123.383 714.606 123.513 714.147 123.773C713.688 124.024 713.328 124.375 713.068 124.826C712.808 125.268 712.678 125.766 712.678 126.321C712.678 126.876 712.808 127.378 713.068 127.829C713.328 128.271 713.688 128.622 714.147 128.882C714.606 129.133 715.122 129.259 715.694 129.259C716.578 129.259 717.302 128.964 717.865 128.375L718.463 128.986C717.796 129.714 716.864 130.078 715.668 130.078ZM725.646 129.22V130H720.303V122.655H725.49V123.435H721.239V125.892H725.035V126.659H721.239V129.22H725.646ZM740.802 130L738.722 127.075C738.488 127.101 738.246 127.114 737.994 127.114H735.55V130H734.588V120.9H737.994C739.156 120.9 740.066 121.177 740.724 121.732C741.383 122.287 741.712 123.049 741.712 124.02C741.712 124.731 741.53 125.333 741.166 125.827C740.811 126.312 740.3 126.663 739.632 126.88L741.855 130H740.802ZM737.968 126.295C738.87 126.295 739.559 126.096 740.035 125.697C740.512 125.298 740.75 124.739 740.75 124.02C740.75 123.283 740.512 122.72 740.035 122.33C739.559 121.931 738.87 121.732 737.968 121.732H735.55V126.295H737.968ZM749.209 129.22V130H743.866V122.655H749.053V123.435H744.802V125.892H748.598V126.659H744.802V129.22H749.209ZM757.433 122.655L754.144 130H753.221L749.932 122.655H750.933L753.702 128.895L756.484 122.655H757.433ZM758.961 122.655H759.897V130H758.961V122.655ZM767.973 129.22V130H762.63V122.655H767.817V123.435H763.566V125.892H767.362V126.659H763.566V129.22H767.973ZM780.239 122.655L777.73 130H776.755L774.649 123.942L772.543 130H771.542L769.033 122.655H770.008L772.075 128.791L774.22 122.655H775.104L777.223 128.817L779.329 122.655H780.239ZM787.46 129.22V130H782.117V122.655H787.304V123.435H783.053V125.892H786.849V126.659H783.053V129.22H787.46ZM794.511 130L792.847 127.686C792.622 127.703 792.453 127.712 792.34 127.712H790.416V130H789.48V122.655H792.34C793.294 122.655 794.043 122.88 794.589 123.331C795.135 123.773 795.408 124.393 795.408 125.19C795.408 125.753 795.261 126.234 794.966 126.633C794.68 127.032 794.269 127.322 793.731 127.504L795.525 130H794.511ZM792.288 126.945C792.99 126.945 793.528 126.793 793.9 126.49C794.282 126.187 794.472 125.753 794.472 125.19C794.472 124.627 794.286 124.193 793.913 123.89C793.541 123.587 792.999 123.435 792.288 123.435H790.416V126.945H792.288Z" fill="#515556"/>
<path d="M739.202 24.3977C735.671 20.8674 729.948 20.8674 726.417 24.3977C722.887 27.9279 722.887 33.6515 726.417 37.1817C729.948 40.712 735.671 40.712 739.202 37.1817C742.732 33.6515 742.732 27.9279 739.202 24.3977ZM741.85 52.4851C741.84 52.0871 741.987 51.6858 742.29 51.382C742.879 50.7937 743.833 50.7937 744.421 51.382C744.725 51.6858 744.872 52.0871 744.862 52.4851H744.875V69.8112C744.875 73.2011 744.5 76.591 747.876 76.591C751.252 76.591 750.877 73.2011 750.877 69.8112V49.4718H750.889C750.889 44.4793 746.032 40.4321 740.041 40.4321H732.809H725.578C719.587 40.4321 714.73 44.4793 714.73 49.4718H714.742V69.8112C714.742 73.2011 714.367 76.591 717.743 76.591C721.119 76.591 720.744 73.2011 720.744 69.8112V52.4851H720.757C720.766 52.1122 720.913 51.742 721.198 51.4574C721.786 50.869 722.74 50.869 723.328 51.4574C723.613 51.742 723.76 52.1122 723.769 52.4851H723.77V52.5212C723.77 52.5222 723.77 52.5232 723.77 52.5242V79.6043H723.786V103.71C723.786 108.23 723.298 112.75 727.687 112.75C732.076 112.75 731.588 108.23 731.588 103.71V79.6043H731.605C731.595 79.2834 731.712 78.9592 731.957 78.7143C732.428 78.2436 733.191 78.2436 733.662 78.7143C733.907 78.9592 734.024 79.2834 734.014 79.6043H734.031V103.71C734.031 108.23 733.543 112.75 737.932 112.75C742.321 112.75 741.833 108.23 741.833 103.71V79.6043H741.849V52.4851H741.85Z" fill="#EE220C"/>
<path d="M554.25 122.732H551.052V121.9H558.41V122.732H555.212V131H554.25V122.732ZM564.759 131L563.095 128.686C562.87 128.703 562.701 128.712 562.588 128.712H560.664V131H559.728V123.655H562.588C563.542 123.655 564.291 123.88 564.837 124.331C565.383 124.773 565.656 125.393 565.656 126.19C565.656 126.753 565.509 127.234 565.214 127.633C564.928 128.032 564.517 128.322 563.979 128.504L565.773 131H564.759ZM562.536 127.945C563.238 127.945 563.776 127.793 564.148 127.49C564.53 127.187 564.72 126.753 564.72 126.19C564.72 125.627 564.534 125.193 564.161 124.89C563.789 124.587 563.247 124.435 562.536 124.435H560.664V127.945H562.536ZM572.417 129.102H568.296L567.438 131H566.502L569.895 123.655H570.818L574.211 131H573.275L572.417 129.102ZM572.079 128.348L570.363 124.539L568.634 128.348H572.079ZM578.668 131.078C577.931 131.078 577.264 130.918 576.666 130.597C576.068 130.268 575.596 129.817 575.249 129.245C574.911 128.673 574.742 128.032 574.742 127.321C574.742 126.619 574.911 125.982 575.249 125.41C575.596 124.838 576.068 124.387 576.666 124.058C577.264 123.729 577.931 123.564 578.668 123.564C579.873 123.564 580.804 123.928 581.463 124.656L580.865 125.267C580.284 124.678 579.561 124.383 578.694 124.383C578.122 124.383 577.606 124.513 577.147 124.773C576.688 125.024 576.328 125.375 576.068 125.826C575.808 126.268 575.678 126.766 575.678 127.321C575.678 127.876 575.808 128.378 576.068 128.829C576.328 129.271 576.688 129.622 577.147 129.882C577.606 130.133 578.122 130.259 578.694 130.259C579.578 130.259 580.302 129.964 580.865 129.375L581.463 129.986C580.796 130.714 579.864 131.078 578.668 131.078ZM588.646 130.22V131H583.303V123.655H588.49V124.435H584.239V126.892H588.035V127.659H584.239V130.22H588.646ZM603.637 121.9V131H602.714V123.72L599.139 129.843H598.684L595.109 123.759V131H594.186V121.9H594.979L598.931 128.647L602.844 121.9H603.637ZM611.061 129.102H606.94L606.082 131H605.146L608.539 123.655H609.462L612.855 131H611.919L611.061 129.102ZM610.723 128.348L609.007 124.539L607.278 128.348H610.723ZM620.586 123.655V131H619.806L615.191 125.267V131H614.255V123.655H615.035L619.65 129.388V123.655H620.586ZM627.895 129.102H623.774L622.916 131H621.98L625.373 123.655H626.296L629.689 131H628.753L627.895 129.102ZM627.557 128.348L625.841 124.539L624.112 128.348H627.557ZM636.058 127.321H636.955V130.142C636.617 130.445 636.205 130.679 635.72 130.844C635.243 131 634.74 131.078 634.212 131.078C633.458 131.078 632.777 130.918 632.171 130.597C631.564 130.268 631.087 129.817 630.741 129.245C630.394 128.673 630.221 128.032 630.221 127.321C630.221 126.619 630.39 125.982 630.728 125.41C631.074 124.838 631.547 124.387 632.145 124.058C632.751 123.729 633.427 123.564 634.173 123.564C635.403 123.564 636.348 123.928 637.007 124.656L636.409 125.267C635.819 124.678 635.078 124.383 634.186 124.383C633.614 124.383 633.098 124.513 632.639 124.773C632.179 125.024 631.815 125.375 631.547 125.826C631.287 126.268 631.157 126.766 631.157 127.321C631.157 127.876 631.287 128.378 631.547 128.829C631.815 129.271 632.179 129.622 632.639 129.882C633.107 130.133 633.635 130.259 634.225 130.259C634.935 130.259 635.546 130.086 636.058 129.739V127.321ZM644.785 130.22V131H639.442V123.655H644.629V124.435H640.378V126.892H644.174V127.659H640.378V130.22H644.785ZM651.836 131L650.172 128.686C649.947 128.703 649.778 128.712 649.665 128.712H647.741V131H646.805V123.655H649.665C650.619 123.655 651.368 123.88 651.914 124.331C652.46 124.773 652.733 125.393 652.733 126.19C652.733 126.753 652.586 127.234 652.291 127.633C652.005 128.032 651.594 128.322 651.056 128.504L652.85 131H651.836ZM649.613 127.945C650.315 127.945 650.853 127.793 651.225 127.49C651.607 127.187 651.797 126.753 651.797 126.19C651.797 125.627 651.611 125.193 651.238 124.89C650.866 124.587 650.324 124.435 649.613 124.435H647.741V127.945H649.613Z" fill="#515556"/>
<path d="M599.904 24.3977C596.374 20.8674 590.65 20.8674 587.12 24.3977C583.59 27.9279 583.59 33.6515 587.12 37.1817C590.65 40.712 596.374 40.712 599.904 37.1817C603.434 33.6515 603.434 27.9279 599.904 24.3977ZM602.552 52.4851C602.542 52.0871 602.689 51.6858 602.993 51.382C603.581 50.7937 604.535 50.7937 605.124 51.382C605.427 51.6858 605.574 52.0871 605.564 52.4851H605.577V69.8112C605.577 73.2011 605.202 76.591 608.578 76.591C611.954 76.591 611.579 73.2011 611.579 69.8112V49.4718H611.592C611.592 44.4793 606.735 40.4321 600.744 40.4321H593.512H586.28C580.289 40.4321 575.433 44.4793 575.433 49.4718H575.445V69.8112C575.445 73.2011 575.07 76.591 578.446 76.591C581.822 76.591 581.447 73.2011 581.447 69.8112V52.4851H581.459C581.469 52.1122 581.616 51.742 581.9 51.4574C582.489 50.869 583.443 50.869 584.031 51.4574C584.316 51.742 584.463 52.1122 584.472 52.4851H584.472V52.5212C584.472 52.5222 584.472 52.5232 584.472 52.5242V79.6043H584.488V103.71C584.488 108.23 584.001 112.75 588.39 112.75C592.778 112.75 592.291 108.23 592.291 103.71V79.6043H592.307C592.297 79.2834 592.415 78.9592 592.66 78.7143C593.13 78.2436 593.894 78.2436 594.364 78.7143C594.609 78.9592 594.727 79.2834 594.717 79.6043H594.733V103.71C594.733 108.23 594.246 112.75 598.635 112.75C603.023 112.75 602.536 108.23 602.536 103.71V79.6043H602.552V52.4851H602.552Z" fill="#01A99D"/>
<path d="M821.471 130.75L819.391 127.825C819.157 127.851 818.914 127.864 818.663 127.864H816.219V130.75H815.257V121.65H818.663C819.824 121.65 820.734 121.927 821.393 122.482C822.052 123.037 822.381 123.799 822.381 124.77C822.381 125.481 822.199 126.083 821.835 126.577C821.48 127.062 820.968 127.413 820.301 127.63L822.524 130.75H821.471ZM818.637 127.045C819.538 127.045 820.227 126.846 820.704 126.447C821.181 126.048 821.419 125.489 821.419 124.77C821.419 124.033 821.181 123.47 820.704 123.08C820.227 122.681 819.538 122.482 818.637 122.482H816.219V127.045H818.637ZM829.877 129.97V130.75H824.534V123.405H829.721V124.185H825.47V126.642H829.266V127.409H825.47V129.97H829.877ZM835.032 130.828C834.295 130.828 833.628 130.668 833.03 130.347C832.432 130.018 831.96 129.567 831.613 128.995C831.275 128.423 831.106 127.782 831.106 127.071C831.106 126.369 831.275 125.732 831.613 125.16C831.96 124.588 832.432 124.137 833.03 123.808C833.628 123.479 834.295 123.314 835.032 123.314C836.237 123.314 837.168 123.678 837.827 124.406L837.229 125.017C836.648 124.428 835.925 124.133 835.058 124.133C834.486 124.133 833.97 124.263 833.511 124.523C833.052 124.774 832.692 125.125 832.432 125.576C832.172 126.018 832.042 126.516 832.042 127.071C832.042 127.626 832.172 128.128 832.432 128.579C832.692 129.021 833.052 129.372 833.511 129.632C833.97 129.883 834.486 130.009 835.058 130.009C835.942 130.009 836.666 129.714 837.229 129.125L837.827 129.736C837.16 130.464 836.228 130.828 835.032 130.828ZM839.667 123.405H840.603V130.75H839.667V123.405ZM846.196 123.405C847.15 123.405 847.899 123.63 848.445 124.081C848.991 124.523 849.264 125.143 849.264 125.94C849.264 126.737 848.987 127.361 848.432 127.812C847.886 128.254 847.141 128.475 846.196 128.475H844.272V130.75H843.336V123.405H846.196ZM846.144 127.695C846.846 127.695 847.384 127.543 847.756 127.24C848.138 126.937 848.328 126.503 848.328 125.94C848.328 125.377 848.142 124.943 847.769 124.64C847.397 124.337 846.855 124.185 846.144 124.185H844.272V127.695H846.144ZM851.36 123.405H852.296V130.75H851.36V123.405ZM860.372 129.97V130.75H855.029V123.405H860.216V124.185H855.965V126.642H859.761V127.409H855.965V129.97H860.372ZM868.723 123.405V130.75H867.943L863.328 125.017V130.75H862.392V123.405H863.172L867.787 129.138V123.405H868.723ZM872.73 124.185H870.143V123.405H876.253V124.185H873.666V130.75H872.73V124.185Z" fill="#515556"/>
<path d="M847.999 24.3977C844.468 20.8674 838.745 20.8674 835.215 24.3977C831.684 27.9279 831.684 33.6515 835.215 37.1817C838.745 40.712 844.468 40.712 847.999 37.1817C851.529 33.6515 851.529 27.9279 847.999 24.3977ZM850.647 52.4851C850.637 52.0871 850.784 51.6858 851.088 51.382C851.676 50.7937 852.63 50.7937 853.218 51.382C853.522 51.6858 853.669 52.0871 853.659 52.4851H853.672V69.8112C853.672 73.2011 853.297 76.591 856.673 76.591C860.049 76.591 859.674 73.2011 859.674 69.8112V49.4718H859.686C859.686 44.4793 854.83 40.4321 848.839 40.4321H841.607H834.375C828.384 40.4321 823.527 44.4793 823.527 49.4718H823.54V69.8112C823.54 73.2011 823.165 76.591 826.541 76.591C829.916 76.591 829.541 73.2011 829.541 69.8112V52.4851H829.554C829.563 52.1122 829.71 51.742 829.995 51.4574C830.583 50.869 831.537 50.869 832.126 51.4574C832.41 51.742 832.557 52.1122 832.567 52.4851H832.567V52.5212C832.567 52.5222 832.567 52.5232 832.567 52.5242V79.6043H832.583V103.71C832.583 108.23 832.096 112.75 836.484 112.75C840.873 112.75 840.385 108.23 840.385 103.71V79.6043H840.402C840.392 79.2834 840.51 78.9592 840.755 78.7143C841.225 78.2436 841.988 78.2436 842.459 78.7143C842.704 78.9592 842.821 79.2834 842.811 79.6043H842.828V103.71C842.828 108.23 842.341 112.75 846.729 112.75C851.118 112.75 850.63 108.23 850.63 103.71V79.6043H850.646V52.4851H850.647Z" fill="#F9BA00"/>
<path d="M164.492 1.5H68.4922V152.5H164.492V1.5Z" fill="white"/>
<path d="M68.4922 1.5H164.492V152.5H68.4922V1.5Z" stroke="#808080" stroke-width="3" stroke-linecap="round" stroke-linejoin="round" stroke-dasharray="4 4"/>
<path d="M89.0438 121.65H92.7488C93.7108 121.65 94.5601 121.845 95.2968 122.235C96.0334 122.616 96.6054 123.154 97.0128 123.847C97.4201 124.532 97.6238 125.316 97.6238 126.2C97.6238 127.084 97.4201 127.873 97.0128 128.566C96.6054 129.251 96.0334 129.788 95.2968 130.178C94.5601 130.559 93.7108 130.75 92.7488 130.75H89.0438V121.65ZM92.6968 129.918C93.4941 129.918 94.1918 129.762 94.7898 129.45C95.3878 129.129 95.8514 128.692 96.1808 128.137C96.5101 127.574 96.6748 126.928 96.6748 126.2C96.6748 125.472 96.5101 124.831 96.1808 124.276C95.8514 123.713 95.3878 123.275 94.7898 122.963C94.1918 122.642 93.4941 122.482 92.6968 122.482H90.0058V129.918H92.6968ZM105.01 129.97V130.75H99.667V123.405H104.854V124.185H100.603V126.642H104.399V127.409H100.603V129.97H105.01ZM107.03 123.405H107.966V129.97H112.061V130.75H107.03V123.405ZM118.873 129.97V130.75H113.53V123.405H118.717V124.185H114.466V126.642H118.262V127.409H114.466V129.97H118.873ZM125.939 127.071H126.836V129.892C126.498 130.195 126.086 130.429 125.601 130.594C125.124 130.75 124.621 130.828 124.093 130.828C123.339 130.828 122.658 130.668 122.052 130.347C121.445 130.018 120.968 129.567 120.622 128.995C120.275 128.423 120.102 127.782 120.102 127.071C120.102 126.369 120.271 125.732 120.609 125.16C120.955 124.588 121.428 124.137 122.026 123.808C122.632 123.479 123.308 123.314 124.054 123.314C125.284 123.314 126.229 123.678 126.888 124.406L126.29 125.017C125.7 124.428 124.959 124.133 124.067 124.133C123.495 124.133 122.979 124.263 122.52 124.523C122.06 124.774 121.696 125.125 121.428 125.576C121.168 126.018 121.038 126.516 121.038 127.071C121.038 127.626 121.168 128.128 121.428 128.579C121.696 129.021 122.06 129.372 122.52 129.632C122.988 129.883 123.516 130.009 124.106 130.009C124.816 130.009 125.427 129.836 125.939 129.489V127.071ZM133.899 128.852H129.778L128.92 130.75H127.984L131.377 123.405H132.3L135.693 130.75H134.757L133.899 128.852ZM133.561 128.098L131.845 124.289L130.116 128.098H133.561ZM137.91 124.185H135.323V123.405H141.433V124.185H138.846V130.75H137.91V124.185ZM148.187 129.97V130.75H142.844V123.405H148.031V124.185H143.78V126.642H147.576V127.409H143.78V129.97H148.187Z" fill="#515556"/>
<path d="M121.292 24.3977C117.761 20.8674 112.038 20.8674 108.508 24.3977C104.977 27.9279 104.977 33.6515 108.508 37.1817C112.038 40.712 117.761 40.712 121.292 37.1817C124.822 33.6515 124.822 27.9279 121.292 24.3977ZM123.94 52.4851C123.93 52.0871 124.077 51.6858 124.381 51.382C124.969 50.7937 125.923 50.7937 126.511 51.382C126.815 51.6858 126.962 52.0871 126.952 52.4851H126.965V69.8112C126.965 73.2011 126.59 76.591 129.966 76.591C133.342 76.591 132.967 73.2011 132.967 69.8112V49.4718H132.979C132.979 44.4793 128.122 40.4321 122.131 40.4321H114.9H107.668C101.677 40.4321 96.8201 44.4793 96.8201 49.4718H96.8325V69.8112C96.8325 73.2011 96.4573 76.591 99.8333 76.591C103.209 76.591 102.834 73.2011 102.834 69.8112V52.4851H102.847C102.856 52.1122 103.003 51.742 103.288 51.4574C103.876 50.869 104.83 50.869 105.419 51.4574C105.703 51.742 105.85 52.1122 105.859 52.4851H105.86V52.5212C105.86 52.5222 105.86 52.5232 105.86 52.5242V79.6043H105.876V103.71C105.876 108.23 105.388 112.75 109.777 112.75C114.166 112.75 113.678 108.23 113.678 103.71V79.6043H113.695C113.685 79.2834 113.802 78.9592 114.047 78.7143C114.518 78.2436 115.281 78.2436 115.752 78.7143C115.997 78.9592 116.114 79.2834 116.104 79.6043H116.121V103.71C116.121 108.23 115.633 112.75 120.022 112.75C124.411 112.75 123.923 108.23 123.923 103.71V79.6043H123.939V52.4851H123.94Z" fill="#FF9400"/>
<path d="M62.524 183.18C61.252 183.18 60.1 182.904 59.068 182.352C58.048 181.788 57.244 181.014 56.656 180.03C56.08 179.046 55.792 177.936 55.792 176.7C55.792 175.464 56.086 174.354 56.674 173.37C57.262 172.386 58.066 171.618 59.086 171.066C60.118 170.502 61.27 170.22 62.542 170.22C63.574 170.22 64.516 170.4 65.368 170.76C66.22 171.12 66.94 171.642 67.528 172.326L66.016 173.748C65.104 172.764 63.982 172.272 62.65 172.272C61.786 172.272 61.012 172.464 60.328 172.848C59.644 173.22 59.11 173.742 58.726 174.414C58.342 175.086 58.15 175.848 58.15 176.7C58.15 177.552 58.342 178.314 58.726 178.986C59.11 179.658 59.644 180.186 60.328 180.57C61.012 180.942 61.786 181.128 62.65 181.128C63.982 181.128 65.104 180.63 66.016 179.634L67.528 181.074C66.94 181.758 66.214 182.28 65.35 182.64C64.498 183 63.556 183.18 62.524 183.18ZM74.2045 183.18C73.1365 183.18 72.1705 182.952 71.3065 182.496C70.4425 182.028 69.7645 181.392 69.2725 180.588C68.7805 179.772 68.5345 178.86 68.5345 177.852C68.5345 176.844 68.7805 175.938 69.2725 175.134C69.7645 174.318 70.4425 173.682 71.3065 173.226C72.1705 172.77 73.1365 172.542 74.2045 172.542C75.2845 172.542 76.2565 172.77 77.1205 173.226C77.9845 173.682 78.6625 174.318 79.1545 175.134C79.6465 175.938 79.8925 176.844 79.8925 177.852C79.8925 178.86 79.6465 179.772 79.1545 180.588C78.6625 181.392 77.9845 182.028 77.1205 182.496C76.2565 182.952 75.2845 183.18 74.2045 183.18ZM74.2045 181.254C74.8525 181.254 75.4345 181.11 75.9505 180.822C76.4665 180.522 76.8685 180.114 77.1565 179.598C77.4445 179.082 77.5885 178.5 77.5885 177.852C77.5885 177.204 77.4445 176.622 77.1565 176.106C76.8685 175.59 76.4665 175.188 75.9505 174.9C75.4345 174.612 74.8525 174.468 74.2045 174.468C73.5685 174.468 72.9925 174.618 72.4765 174.918C71.9605 175.206 71.5525 175.608 71.2525 176.124C70.9645 176.628 70.8205 177.204 70.8205 177.852C70.8205 178.5 70.9645 179.082 71.2525 179.598C71.5525 180.114 71.9605 180.522 72.4765 180.822C72.9925 181.11 73.5685 181.254 74.2045 181.254ZM91.6638 183L91.6458 176.664L88.4958 181.848H87.4698L84.3198 176.826V183H82.1598V172.704H84.1038L88.0098 179.148L91.8618 172.704H93.8058L93.8238 183H91.6638ZM106.465 183L106.447 176.664L103.297 181.848H102.271L99.1205 176.826V183H96.9605V172.704H98.9045L102.811 179.148L106.663 172.704H108.607L108.625 183H106.465ZM116.351 183.18C114.875 183.18 113.723 182.772 112.895 181.956C112.067 181.14 111.653 180.018 111.653 178.59V172.704H113.921V178.518C113.921 179.406 114.131 180.084 114.551 180.552C114.971 181.02 115.577 181.254 116.369 181.254C117.149 181.254 117.743 181.026 118.151 180.57C118.571 180.102 118.781 179.418 118.781 178.518V172.704H121.013V178.59C121.013 180.03 120.605 181.158 119.789 181.974C118.973 182.778 117.827 183.18 116.351 183.18ZM133.534 172.704V183H131.662L126.316 176.52V183H124.048V172.704H125.938L131.284 179.202V172.704H133.534ZM136.67 172.704H138.938V183H136.67V172.704ZM143.956 174.558H140.572V172.704H149.608V174.558H146.224V183H143.956V174.558ZM155.89 179.616V183H153.604V179.58L149.428 172.704H151.84L154.81 177.546L157.78 172.704H160.084L155.89 179.616Z" fill="black"/>
<path d="M294.524 183.18C293.252 183.18 292.1 182.904 291.068 182.352C290.048 181.788 289.244 181.014 288.656 180.03C288.08 179.046 287.792 177.936 287.792 176.7C287.792 175.464 288.086 174.354 288.674 173.37C289.262 172.386 290.066 171.618 291.086 171.066C292.118 170.502 293.27 170.22 294.542 170.22C295.574 170.22 296.516 170.4 297.368 170.76C298.22 171.12 298.94 171.642 299.528 172.326L298.016 173.748C297.104 172.764 295.982 172.272 294.65 172.272C293.786 172.272 293.012 172.464 292.328 172.848C291.644 173.22 291.11 173.742 290.726 174.414C290.342 175.086 290.15 175.848 290.15 176.7C290.15 177.552 290.342 178.314 290.726 178.986C291.11 179.658 291.644 180.186 292.328 180.57C293.012 180.942 293.786 181.128 294.65 181.128C295.982 181.128 297.104 180.63 298.016 179.634L299.528 181.074C298.94 181.758 298.214 182.28 297.35 182.64C296.498 183 295.556 183.18 294.524 183.18ZM308.2 180.768H302.998L302.026 183H299.812L304.492 172.704H306.742L311.404 183H309.154L308.2 180.768ZM307.462 179.04L305.608 174.756L303.754 179.04H307.462ZM322.381 183L322.363 176.664L319.213 181.848H318.187L315.037 176.826V183H312.877V172.704H314.821L318.727 179.148L322.579 172.704H324.523L324.541 183H322.381ZM332.123 172.704C333.515 172.704 334.613 173.034 335.417 173.694C336.221 174.342 336.623 175.248 336.623 176.412C336.623 177.576 336.215 178.488 335.399 179.148C334.595 179.808 333.503 180.138 332.123 180.138H329.945V183H327.677V172.704H332.123ZM331.961 178.302C332.741 178.302 333.329 178.14 333.725 177.816C334.133 177.492 334.337 177.024 334.337 176.412C334.337 175.8 334.133 175.338 333.725 175.026C333.329 174.702 332.741 174.54 331.961 174.54H329.945V178.302H331.961ZM344.921 180.768H339.719L338.747 183H336.533L341.213 172.704H343.463L348.125 183H345.875L344.921 180.768ZM344.183 179.04L342.329 174.756L340.475 179.04H344.183ZM349.597 172.704H351.865V183H349.597V172.704ZM361.852 177.762H363.994V181.866C363.466 182.274 362.836 182.598 362.104 182.838C361.384 183.066 360.646 183.18 359.89 183.18C358.786 183.18 357.796 182.952 356.92 182.496C356.056 182.028 355.378 181.392 354.886 180.588C354.394 179.772 354.148 178.86 354.148 177.852C354.148 176.844 354.394 175.938 354.886 175.134C355.378 174.318 356.056 173.682 356.92 173.226C357.784 172.77 358.756 172.542 359.836 172.542C361.756 172.542 363.196 173.118 364.156 174.27L362.68 175.692C361.948 174.876 361.012 174.468 359.872 174.468C359.212 174.468 358.618 174.612 358.09 174.9C357.574 175.188 357.166 175.59 356.866 176.106C356.578 176.622 356.434 177.204 356.434 177.852C356.434 178.5 356.584 179.088 356.884 179.616C357.184 180.132 357.598 180.534 358.126 180.822C358.654 181.11 359.26 181.254 359.944 181.254C360.64 181.254 361.276 181.11 361.852 180.822V177.762ZM376.292 172.704V183H374.42L369.074 176.52V183H366.806V172.704H368.696L374.042 179.202V172.704H376.292ZM382.631 183.18C381.827 183.18 381.035 183.072 380.255 182.856C379.475 182.64 378.857 182.358 378.401 182.01L379.247 180.246C379.679 180.57 380.207 180.828 380.831 181.02C381.455 181.212 382.091 181.308 382.739 181.308C383.447 181.308 383.963 181.206 384.287 181.002C384.623 180.786 384.791 180.504 384.791 180.156C384.791 179.772 384.599 179.49 384.215 179.31C383.843 179.13 383.261 178.962 382.469 178.806C381.665 178.626 381.011 178.446 380.507 178.266C380.015 178.086 379.589 177.792 379.229 177.384C378.869 176.976 378.689 176.424 378.689 175.728C378.689 175.092 378.863 174.534 379.211 174.054C379.571 173.574 380.081 173.202 380.741 172.938C381.401 172.674 382.175 172.542 383.063 172.542C383.735 172.542 384.389 172.62 385.025 172.776C385.661 172.92 386.207 173.136 386.663 173.424L385.889 175.188C385.073 174.66 384.107 174.396 382.991 174.396C382.307 174.396 381.797 174.51 381.461 174.738C381.125 174.954 380.957 175.242 380.957 175.602C380.957 175.986 381.143 176.268 381.515 176.448C381.899 176.616 382.493 176.784 383.297 176.952C384.089 177.132 384.731 177.312 385.223 177.492C385.715 177.66 386.141 177.942 386.501 178.338C386.861 178.734 387.041 179.274 387.041 179.958C387.041 180.942 386.645 181.728 385.853 182.316C385.073 182.892 383.999 183.18 382.631 183.18Z" fill="black"/>
<path d="M704.248 172.38H700.072V170.4H710.764V172.38H706.588V183H704.248V172.38ZM719.002 183L716.932 180.084H716.752H714.574V183H712.306V172.704H716.752C718.144 172.704 719.242 173.034 720.046 173.694C720.85 174.342 721.252 175.248 721.252 176.412C721.252 177.18 721.066 177.846 720.694 178.41C720.322 178.962 719.788 179.382 719.092 179.67L721.45 183H719.002ZM718.966 176.412C718.966 175.8 718.762 175.338 718.354 175.026C717.958 174.702 717.37 174.54 716.59 174.54H714.574V178.302H716.59C717.37 178.302 717.958 178.14 718.354 177.816C718.762 177.492 718.966 177.024 718.966 176.412ZM730.499 180.768H725.297L724.325 183H722.111L726.791 172.704H729.041L733.703 183H731.453L730.499 180.768ZM729.761 179.04L727.907 174.756L726.053 179.04H729.761ZM739.806 183.18C738.738 183.18 737.772 182.952 736.908 182.496C736.056 182.028 735.384 181.392 734.892 180.588C734.4 179.772 734.154 178.86 734.154 177.852C734.154 176.844 734.4 175.938 734.892 175.134C735.384 174.33 736.056 173.7 736.908 173.244C737.772 172.776 738.738 172.542 739.806 172.542C741.678 172.542 743.094 173.124 744.054 174.288L742.578 175.692C741.846 174.876 740.946 174.468 739.878 174.468C739.218 174.468 738.624 174.612 738.096 174.9C737.58 175.188 737.172 175.59 736.872 176.106C736.584 176.622 736.44 177.204 736.44 177.852C736.44 178.512 736.584 179.1 736.872 179.616C737.172 180.132 737.58 180.534 738.096 180.822C738.624 181.11 739.218 181.254 739.878 181.254C740.958 181.254 741.858 180.84 742.578 180.012L744.054 181.434C743.07 182.598 741.654 183.18 739.806 183.18ZM754.101 181.182V183H746.109V172.704H753.903V174.54H748.377V176.898H753.291V178.662H748.377V181.182H754.101ZM759.649 183.18C758.845 183.18 758.053 183.072 757.273 182.856C756.493 182.64 755.875 182.358 755.419 182.01L756.265 180.246C756.697 180.57 757.225 180.828 757.849 181.02C758.473 181.212 759.109 181.308 759.757 181.308C760.465 181.308 760.981 181.206 761.305 181.002C761.641 180.786 761.809 180.504 761.809 180.156C761.809 179.772 761.617 179.49 761.233 179.31C760.861 179.13 760.279 178.962 759.487 178.806C758.683 178.626 758.029 178.446 757.525 178.266C757.033 178.086 756.607 177.792 756.247 177.384C755.887 176.976 755.707 176.424 755.707 175.728C755.707 175.092 755.881 174.534 756.229 174.054C756.589 173.574 757.099 173.202 757.759 172.938C758.419 172.674 759.193 172.542 760.081 172.542C760.753 172.542 761.407 172.62 762.043 172.776C762.679 172.92 763.225 173.136 763.681 173.424L762.907 175.188C762.091 174.66 761.125 174.396 760.009 174.396C759.325 174.396 758.815 174.51 758.479 174.738C758.143 174.954 757.975 175.242 757.975 175.602C757.975 175.986 758.161 176.268 758.533 176.448C758.917 176.616 759.511 176.784 760.315 176.952C761.107 177.132 761.749 177.312 762.241 177.492C762.733 177.66 763.159 177.942 763.519 178.338C763.879 178.734 764.059 179.274 764.059 179.958C764.059 180.942 763.663 181.728 762.871 182.316C762.091 182.892 761.017 183.18 759.649 183.18Z" fill="black"/>
</g>
<defs>
<clipPath id="clip0">
<rect width="892.659" height="189.804" fill="white"/>
</clipPath>
</defs>
</svg>
