<svg width="949" height="389" viewBox="0 0 949 389" fill="none" xmlns="http://www.w3.org/2000/svg">
<g clip-path="url(#clip0)">
<path d="M103 113.5C138.899 113.5 168 88.2041 168 57C168 25.7959 138.899 0.499908 103 0.499908C67.1015 0.499908 38 25.7959 38 57C38 88.2041 67.1015 113.5 103 113.5Z" fill="white"/>
<path d="M103 113.5C138.899 113.5 168 88.2041 168 57C168 25.7959 138.899 0.499908 103 0.499908C67.1015 0.499908 38 25.7959 38 57C38 88.2041 67.1015 113.5 103 113.5Z" stroke="#808080" stroke-linecap="round" stroke-linejoin="round"/>
<path d="M62.688 63.128C61.568 63.128 60.5547 62.8827 59.648 62.392C58.752 61.8907 58.048 61.208 57.536 60.344C57.024 59.4693 56.768 58.488 56.768 57.4C56.768 56.312 57.024 55.336 57.536 54.472C58.048 53.5973 58.7573 52.9147 59.664 52.424C60.5707 51.9227 61.584 51.672 62.704 51.672C63.5787 51.672 64.3787 51.8213 65.104 52.12C65.8293 52.408 66.448 52.84 66.96 53.416L65.92 54.424C65.0773 53.5387 64.0267 53.096 62.768 53.096C61.936 53.096 61.184 53.2827 60.512 53.656C59.84 54.0293 59.312 54.5467 58.928 55.208C58.5547 55.8587 58.368 56.5893 58.368 57.4C58.368 58.2107 58.5547 58.9467 58.928 59.608C59.312 60.2587 59.84 60.7707 60.512 61.144C61.184 61.5173 61.936 61.704 62.768 61.704C64.016 61.704 65.0667 61.256 65.92 60.36L66.96 61.368C66.448 61.944 65.824 62.3813 65.088 62.68C64.3627 62.9787 63.5627 63.128 62.688 63.128ZM72.9449 63.128C72.0169 63.128 71.1742 62.9253 70.4169 62.52C69.6595 62.1147 69.0675 61.56 68.6409 60.856C68.2142 60.1413 68.0009 59.3413 68.0009 58.456C68.0009 57.5707 68.2142 56.776 68.6409 56.072C69.0675 55.3573 69.6595 54.7973 70.4169 54.392C71.1742 53.9867 72.0169 53.784 72.9449 53.784C73.8835 53.784 74.7262 53.9867 75.4729 54.392C76.2302 54.7973 76.8222 55.3573 77.2489 56.072C77.6755 56.776 77.8889 57.5707 77.8889 58.456C77.8889 59.3413 77.6755 60.1413 77.2489 60.856C76.8222 61.56 76.2302 62.1147 75.4729 62.52C74.7262 62.9253 73.8835 63.128 72.9449 63.128ZM72.9449 61.784C73.5849 61.784 74.1609 61.64 74.6729 61.352C75.1849 61.064 75.5849 60.6693 75.8729 60.168C76.1715 59.6667 76.3209 59.096 76.3209 58.456C76.3209 57.816 76.1715 57.2453 75.8729 56.744C75.5849 56.2427 75.1849 55.848 74.6729 55.56C74.1609 55.272 73.5849 55.128 72.9449 55.128C72.3049 55.128 71.7289 55.272 71.2169 55.56C70.7049 55.848 70.2995 56.2427 70.0009 56.744C69.7129 57.2453 69.5689 57.816 69.5689 58.456C69.5689 59.096 69.7129 59.6667 70.0009 60.168C70.2995 60.6693 70.7049 61.064 71.2169 61.352C71.7289 61.64 72.3049 61.784 72.9449 61.784ZM88.6418 63L88.6258 56.696L85.4898 61.912H84.7698L81.6338 56.84V63H80.1458V53.912H81.4738L85.1538 60.024L88.7698 53.912H90.1138L90.1298 63H88.6418ZM101.736 63L101.72 56.696L98.5835 61.912H97.8635L94.7275 56.84V63H93.2395V53.912H94.5675L98.2475 60.024L101.864 53.912H103.208L103.224 63H101.736ZM110.221 63.128C108.973 63.128 107.997 62.776 107.293 62.072C106.589 61.368 106.237 60.3813 106.237 59.112V53.912H107.789V59.08C107.789 59.9653 107.997 60.6373 108.413 61.096C108.829 61.5547 109.437 61.784 110.237 61.784C111.027 61.784 111.629 61.5547 112.045 61.096C112.472 60.6373 112.685 59.9653 112.685 59.08V53.912H114.205V59.112C114.205 60.3813 113.853 61.368 113.149 62.072C112.445 62.776 111.469 63.128 110.221 63.128ZM125.288 53.912V63H124.008L118.76 56.584V63H117.208V53.912H118.488L123.736 60.36V53.912H125.288ZM128.396 53.912H129.948V63H128.396V53.912ZM134.652 55.192H131.548V53.912H139.308V55.192H136.204V63H134.652V55.192ZM144.562 60.04V63H143.01V59.992L139.282 53.912H140.93L143.826 58.568L146.706 53.912H148.306L144.562 60.04Z" fill="black"/>
<path d="M103 189V123.4" stroke="black" stroke-linecap="round" stroke-linejoin="round"/>
<path d="M205.5 189H0.5V388.5H205.5V189Z" fill="white"/>
<path d="M205.5 189H0.5V388.5H205.5V189Z" stroke="#808080" stroke-linecap="round" stroke-linejoin="round"/>
<path d="M196.75 252H9.25V288H196.75V252Z" fill="white"/>
<path d="M196.75 252H9.25V288H196.75V252Z" stroke="#808080" stroke-linecap="round" stroke-linejoin="round"/>
<path d="M81.904 266.192H78.064V264.8H87.328V266.192H83.488V276H81.904V266.192ZM94.9133 276L92.9613 273.28C92.8759 273.291 92.7373 273.296 92.5453 273.296H90.3853V276H88.8333V266.912H92.5453C93.7506 266.912 94.6999 267.195 95.3933 267.76C96.0866 268.325 96.4333 269.109 96.4333 270.112C96.4333 270.805 96.2573 271.397 95.9053 271.888C95.5639 272.379 95.0733 272.747 94.4333 272.992L96.5933 276H94.9133ZM92.4493 272.032C93.2386 272.032 93.8359 271.867 94.2413 271.536C94.6573 271.205 94.8653 270.731 94.8653 270.112C94.8653 269.493 94.6573 269.019 94.2413 268.688C93.8359 268.357 93.2386 268.192 92.4493 268.192H90.3853V272.032H92.4493ZM104.703 273.84H99.8234L98.8634 276H97.3434L101.503 266.912H103.039L107.215 276H105.647L104.703 273.84ZM104.159 272.608L102.271 268.32L100.367 272.608H104.159ZM112.679 276.128C111.751 276.128 110.908 275.925 110.151 275.52C109.404 275.115 108.818 274.56 108.391 273.856C107.964 273.141 107.751 272.341 107.751 271.456C107.751 270.571 107.964 269.776 108.391 269.072C108.818 268.357 109.404 267.797 110.151 267.392C110.908 266.987 111.751 266.784 112.679 266.784C114.247 266.784 115.442 267.259 116.263 268.208L115.271 269.216C114.588 268.491 113.74 268.128 112.727 268.128C112.076 268.128 111.49 268.272 110.967 268.56C110.455 268.837 110.05 269.232 109.751 269.744C109.463 270.245 109.319 270.816 109.319 271.456C109.319 272.085 109.463 272.656 109.751 273.168C110.05 273.669 110.455 274.064 110.967 274.352C111.49 274.64 112.076 274.784 112.727 274.784C113.73 274.784 114.578 274.416 115.271 273.68L116.263 274.688C115.431 275.648 114.236 276.128 112.679 276.128ZM125.165 274.704V276H118.349V266.912H124.989V268.192H119.901V270.752H124.429V272.016H119.901V274.704H125.165Z" fill="black"/>
<path d="M196.75 297.5H9.25V333.5H196.75V297.5Z" fill="white"/>
<path d="M196.75 297.5H9.25V333.5H196.75V297.5Z" stroke="#808080" stroke-linecap="round" stroke-linejoin="round"/>
<path d="M196.75 343H9.25V379H196.75V343Z" fill="white"/>
<path d="M196.75 343H9.25V379H196.75V343Z" stroke="#808080" stroke-linecap="round" stroke-linejoin="round"/>
<path d="M72.936 218.904C71.816 218.904 70.8027 218.659 69.896 218.168C69 217.667 68.296 216.984 67.784 216.12C67.272 215.245 67.016 214.264 67.016 213.176C67.016 212.088 67.272 211.112 67.784 210.248C68.296 209.373 69.0054 208.691 69.912 208.2C70.8187 207.699 71.832 207.448 72.952 207.448C73.8267 207.448 74.6267 207.597 75.352 207.896C76.0774 208.184 76.696 208.616 77.208 209.192L76.168 210.2C75.3254 209.315 74.2747 208.872 73.016 208.872C72.184 208.872 71.432 209.059 70.76 209.432C70.088 209.805 69.56 210.323 69.176 210.984C68.8027 211.635 68.616 212.365 68.616 213.176C68.616 213.987 68.8027 214.723 69.176 215.384C69.56 216.035 70.088 216.547 70.76 216.92C71.432 217.293 72.184 217.48 73.016 217.48C74.264 217.48 75.3147 217.032 76.168 216.136L77.208 217.144C76.696 217.72 76.072 218.157 75.336 218.456C74.6107 218.755 73.8107 218.904 72.936 218.904ZM84.9983 216.616H80.1183L79.1583 218.776H77.6383L81.7983 209.688H83.3343L87.5103 218.776H85.9423L84.9983 216.616ZM84.4543 215.384L82.5663 211.096L80.6623 215.384H84.4543ZM97.546 218.776L97.53 212.472L94.394 217.688H93.674L90.538 212.616V218.776H89.05V209.688H90.378L94.058 215.8L97.674 209.688H99.018L99.034 218.776H97.546ZM105.856 209.688C107.061 209.688 108.01 209.971 108.704 210.536C109.397 211.101 109.744 211.885 109.744 212.888C109.744 213.901 109.397 214.691 108.704 215.256C108.01 215.821 107.061 216.104 105.856 216.104H103.696V218.776H102.144V209.688H105.856ZM105.76 214.808C106.549 214.808 107.146 214.643 107.552 214.312C107.968 213.981 108.176 213.507 108.176 212.888C108.176 212.269 107.968 211.795 107.552 211.464C107.146 211.133 106.549 210.968 105.76 210.968H103.696V214.808H105.76ZM117.186 216.616H112.306L111.346 218.776H109.826L113.986 209.688H115.522L119.698 218.776H118.13L117.186 216.616ZM116.642 215.384L114.754 211.096L112.85 215.384H116.642ZM121.238 209.688H122.79V218.776H121.238V209.688ZM132.038 214.184H133.542V217.736C133.105 218.109 132.577 218.397 131.958 218.6C131.34 218.803 130.7 218.904 130.038 218.904C129.089 218.904 128.23 218.701 127.462 218.296C126.705 217.891 126.108 217.336 125.67 216.632C125.244 215.917 125.03 215.117 125.03 214.232C125.03 213.347 125.244 212.552 125.67 211.848C126.097 211.133 126.689 210.573 127.446 210.168C128.204 209.763 129.046 209.56 129.974 209.56C131.574 209.56 132.796 210.035 133.638 210.984L132.646 211.992C131.953 211.267 131.073 210.904 130.006 210.904C129.356 210.904 128.769 211.048 128.246 211.336C127.734 211.613 127.329 212.008 127.03 212.52C126.742 213.021 126.598 213.592 126.598 214.232C126.598 214.861 126.742 215.432 127.03 215.944C127.329 216.445 127.74 216.84 128.262 217.128C128.796 217.416 129.393 217.56 130.054 217.56C130.822 217.56 131.484 217.389 132.038 217.048V214.184ZM144.427 209.688V218.776H143.147L137.899 212.36V218.776H136.347V209.688H137.627L142.875 216.136V209.688H144.427Z" fill="black"/>
<path d="M453 189H248V295.5H453V189Z" fill="white"/>
<path d="M453 189H248V295.5H453V189Z" stroke="#808080" stroke-linecap="round" stroke-linejoin="round"/>
<path d="M444.25 252H256.75V288H444.25V252Z" fill="white"/>
<path d="M444.25 252H256.75V288H444.25V252Z" stroke="#808080" stroke-linecap="round" stroke-linejoin="round"/>
<path d="M316.688 219.128C315.568 219.128 314.555 218.883 313.648 218.392C312.752 217.891 312.048 217.208 311.536 216.344C311.024 215.469 310.768 214.488 310.768 213.4C310.768 212.312 311.024 211.336 311.536 210.472C312.048 209.597 312.757 208.915 313.664 208.424C314.571 207.923 315.584 207.672 316.704 207.672C317.579 207.672 318.379 207.821 319.104 208.12C319.829 208.408 320.448 208.84 320.96 209.416L319.92 210.424C319.077 209.539 318.027 209.096 316.768 209.096C315.936 209.096 315.184 209.283 314.512 209.656C313.84 210.029 313.312 210.547 312.928 211.208C312.555 211.859 312.368 212.589 312.368 213.4C312.368 214.211 312.555 214.947 312.928 215.608C313.312 216.259 313.84 216.771 314.512 217.144C315.184 217.517 315.936 217.704 316.768 217.704C318.016 217.704 319.067 217.256 319.92 216.36L320.96 217.368C320.448 217.944 319.824 218.381 319.088 218.68C318.363 218.979 317.563 219.128 316.688 219.128ZM328.75 216.84H323.87L322.91 219H321.39L325.55 209.912H327.086L331.262 219H329.694L328.75 216.84ZM328.206 215.608L326.318 211.32L324.414 215.608H328.206ZM341.298 219L341.282 212.696L338.146 217.912H337.426L334.29 212.84V219H332.802V209.912H334.13L337.81 216.024L341.426 209.912H342.77L342.786 219H341.298ZM349.608 209.912C350.813 209.912 351.762 210.195 352.456 210.76C353.149 211.325 353.496 212.109 353.496 213.112C353.496 214.125 353.149 214.915 352.456 215.48C351.762 216.045 350.813 216.328 349.608 216.328H347.448V219H345.896V209.912H349.608ZM349.512 215.032C350.301 215.032 350.898 214.867 351.304 214.536C351.72 214.205 351.928 213.731 351.928 213.112C351.928 212.493 351.72 212.019 351.304 211.688C350.898 211.357 350.301 211.192 349.512 211.192H347.448V215.032H349.512ZM360.938 216.84H356.058L355.098 219H353.578L357.738 209.912H359.274L363.45 219H361.882L360.938 216.84ZM360.394 215.608L358.506 211.32L356.602 215.608H360.394ZM364.99 209.912H366.542V219H364.99V209.912ZM375.79 214.408H377.294V217.96C376.857 218.333 376.329 218.621 375.71 218.824C375.091 219.027 374.451 219.128 373.79 219.128C372.841 219.128 371.982 218.925 371.214 218.52C370.457 218.115 369.859 217.56 369.422 216.856C368.995 216.141 368.782 215.341 368.782 214.456C368.782 213.571 368.995 212.776 369.422 212.072C369.849 211.357 370.441 210.797 371.198 210.392C371.955 209.987 372.798 209.784 373.726 209.784C375.326 209.784 376.547 210.259 377.39 211.208L376.398 212.216C375.705 211.491 374.825 211.128 373.758 211.128C373.107 211.128 372.521 211.272 371.998 211.56C371.486 211.837 371.081 212.232 370.782 212.744C370.494 213.245 370.35 213.816 370.35 214.456C370.35 215.085 370.494 215.656 370.782 216.168C371.081 216.669 371.491 217.064 372.014 217.352C372.547 217.64 373.145 217.784 373.806 217.784C374.574 217.784 375.235 217.613 375.79 217.272V214.408ZM388.179 209.912V219H386.899L381.651 212.584V219H380.099V209.912H381.379L386.627 216.36V209.912H388.179Z" fill="black"/>
<path d="M700.5 189H495.5V342.5H700.5V189Z" fill="white"/>
<path d="M700.5 189H495.5V342.5H700.5V189Z" stroke="#808080" stroke-linecap="round" stroke-linejoin="round"/>
<path d="M691.75 252H504.25V288H691.75V252Z" fill="white"/>
<path d="M691.75 252H504.25V288H691.75V252Z" stroke="#808080" stroke-linecap="round" stroke-linejoin="round"/>
<path d="M691.75 297.5H504.25V333.5H691.75V297.5Z" fill="white"/>
<path d="M691.75 297.5H504.25V333.5H691.75V297.5Z" stroke="#808080" stroke-linecap="round" stroke-linejoin="round"/>
<path d="M564.688 219.128C563.568 219.128 562.555 218.883 561.648 218.392C560.752 217.891 560.048 217.208 559.536 216.344C559.024 215.469 558.768 214.488 558.768 213.4C558.768 212.312 559.024 211.336 559.536 210.472C560.048 209.597 560.757 208.915 561.664 208.424C562.571 207.923 563.584 207.672 564.704 207.672C565.579 207.672 566.379 207.821 567.104 208.12C567.829 208.408 568.448 208.84 568.96 209.416L567.92 210.424C567.077 209.539 566.027 209.096 564.768 209.096C563.936 209.096 563.184 209.283 562.512 209.656C561.84 210.029 561.312 210.547 560.928 211.208C560.555 211.859 560.368 212.589 560.368 213.4C560.368 214.211 560.555 214.947 560.928 215.608C561.312 216.259 561.84 216.771 562.512 217.144C563.184 217.517 563.936 217.704 564.768 217.704C566.016 217.704 567.067 217.256 567.92 216.36L568.96 217.368C568.448 217.944 567.824 218.381 567.088 218.68C566.363 218.979 565.563 219.128 564.688 219.128ZM576.75 216.84H571.87L570.91 219H569.39L573.55 209.912H575.086L579.262 219H577.694L576.75 216.84ZM576.206 215.608L574.318 211.32L572.414 215.608H576.206ZM589.298 219L589.282 212.696L586.146 217.912H585.426L582.29 212.84V219H580.802V209.912H582.13L585.81 216.024L589.426 209.912H590.77L590.786 219H589.298ZM597.608 209.912C598.813 209.912 599.762 210.195 600.456 210.76C601.149 211.325 601.496 212.109 601.496 213.112C601.496 214.125 601.149 214.915 600.456 215.48C599.762 216.045 598.813 216.328 597.608 216.328H595.448V219H593.896V209.912H597.608ZM597.512 215.032C598.301 215.032 598.898 214.867 599.304 214.536C599.72 214.205 599.928 213.731 599.928 213.112C599.928 212.493 599.72 212.019 599.304 211.688C598.898 211.357 598.301 211.192 597.512 211.192H595.448V215.032H597.512ZM608.938 216.84H604.058L603.098 219H601.578L605.738 209.912H607.274L611.45 219H609.882L608.938 216.84ZM608.394 215.608L606.506 211.32L604.602 215.608H608.394ZM612.99 209.912H614.542V219H612.99V209.912ZM623.79 214.408H625.294V217.96C624.857 218.333 624.329 218.621 623.71 218.824C623.091 219.027 622.451 219.128 621.79 219.128C620.841 219.128 619.982 218.925 619.214 218.52C618.457 218.115 617.859 217.56 617.422 216.856C616.995 216.141 616.782 215.341 616.782 214.456C616.782 213.571 616.995 212.776 617.422 212.072C617.849 211.357 618.441 210.797 619.198 210.392C619.955 209.987 620.798 209.784 621.726 209.784C623.326 209.784 624.547 210.259 625.39 211.208L624.398 212.216C623.705 211.491 622.825 211.128 621.758 211.128C621.107 211.128 620.521 211.272 619.998 211.56C619.486 211.837 619.081 212.232 618.782 212.744C618.494 213.245 618.35 213.816 618.35 214.456C618.35 215.085 618.494 215.656 618.782 216.168C619.081 216.669 619.491 217.064 620.014 217.352C620.547 217.64 621.145 217.784 621.806 217.784C622.574 217.784 623.235 217.613 623.79 217.272V214.408ZM636.179 209.912V219H634.899L629.651 212.584V219H628.099V209.912H629.379L634.627 216.36V209.912H636.179Z" fill="black"/>
<path d="M948 189H743V238.5H948V189Z" fill="white"/>
<path d="M948 189H743V238.5H948V189Z" stroke="#808080" stroke-linecap="round" stroke-linejoin="round"/>
<path d="M815.436 218.904C814.316 218.904 813.303 218.659 812.396 218.168C811.5 217.667 810.796 216.984 810.284 216.12C809.772 215.245 809.516 214.264 809.516 213.176C809.516 212.088 809.772 211.112 810.284 210.248C810.796 209.373 811.505 208.691 812.412 208.2C813.319 207.699 814.332 207.448 815.452 207.448C816.327 207.448 817.127 207.597 817.852 207.896C818.577 208.184 819.196 208.616 819.708 209.192L818.668 210.2C817.825 209.315 816.775 208.872 815.516 208.872C814.684 208.872 813.932 209.059 813.26 209.432C812.588 209.805 812.06 210.323 811.676 210.984C811.303 211.635 811.116 212.365 811.116 213.176C811.116 213.987 811.303 214.723 811.676 215.384C812.06 216.035 812.588 216.547 813.26 216.92C813.932 217.293 814.684 217.48 815.516 217.48C816.764 217.48 817.815 217.032 818.668 216.136L819.708 217.144C819.196 217.72 818.572 218.157 817.836 218.456C817.111 218.755 816.311 218.904 815.436 218.904ZM827.498 216.616H822.618L821.658 218.776H820.138L824.298 209.688H825.834L830.01 218.776H828.442L827.498 216.616ZM826.954 215.384L825.066 211.096L823.162 215.384H826.954ZM840.046 218.776L840.03 212.472L836.894 217.688H836.174L833.038 212.616V218.776H831.55V209.688H832.878L836.558 215.8L840.174 209.688H841.518L841.534 218.776H840.046ZM848.356 209.688C849.561 209.688 850.51 209.971 851.204 210.536C851.897 211.101 852.244 211.885 852.244 212.888C852.244 213.901 851.897 214.691 851.204 215.256C850.51 215.821 849.561 216.104 848.356 216.104H846.196V218.776H844.644V209.688H848.356ZM848.26 214.808C849.049 214.808 849.646 214.643 850.052 214.312C850.468 213.981 850.676 213.507 850.676 212.888C850.676 212.269 850.468 211.795 850.052 211.464C849.646 211.133 849.049 210.968 848.26 210.968H846.196V214.808H848.26ZM859.686 216.616H854.806L853.846 218.776H852.326L856.486 209.688H858.022L862.198 218.776H860.63L859.686 216.616ZM859.142 215.384L857.254 211.096L855.35 215.384H859.142ZM863.738 209.688H865.29V218.776H863.738V209.688ZM874.538 214.184H876.042V217.736C875.605 218.109 875.077 218.397 874.458 218.6C873.84 218.803 873.2 218.904 872.538 218.904C871.589 218.904 870.73 218.701 869.962 218.296C869.205 217.891 868.608 217.336 868.17 216.632C867.744 215.917 867.53 215.117 867.53 214.232C867.53 213.347 867.744 212.552 868.17 211.848C868.597 211.133 869.189 210.573 869.946 210.168C870.704 209.763 871.546 209.56 872.474 209.56C874.074 209.56 875.296 210.035 876.138 210.984L875.146 211.992C874.453 211.267 873.573 210.904 872.506 210.904C871.856 210.904 871.269 211.048 870.746 211.336C870.234 211.613 869.829 212.008 869.53 212.52C869.242 213.021 869.098 213.592 869.098 214.232C869.098 214.861 869.242 215.432 869.53 215.944C869.829 216.445 870.24 216.84 870.762 217.128C871.296 217.416 871.893 217.56 872.554 217.56C873.322 217.56 873.984 217.389 874.538 217.048V214.184ZM886.927 209.688V218.776H885.647L880.399 212.36V218.776H878.847V209.688H880.127L885.375 216.136V209.688H886.927Z" fill="black"/>
<path d="M350.5 113.5C386.399 113.5 415.5 88.2041 415.5 57C415.5 25.7959 386.399 0.499908 350.5 0.499908C314.602 0.499908 285.5 25.7959 285.5 57C285.5 88.2041 314.602 113.5 350.5 113.5Z" fill="white"/>
<path d="M350.5 113.5C386.399 113.5 415.5 88.2041 415.5 57C415.5 25.7959 386.399 0.499908 350.5 0.499908C314.602 0.499908 285.5 25.7959 285.5 57C285.5 88.2041 314.602 113.5 350.5 113.5Z" stroke="#808080" stroke-linecap="round" stroke-linejoin="round"/>
<path d="M598 113.5C633.899 113.5 663 88.2041 663 57C663 25.7959 633.899 0.499908 598 0.499908C562.102 0.499908 533 25.7959 533 57C533 88.2041 562.102 113.5 598 113.5Z" fill="white"/>
<path d="M598 113.5C633.899 113.5 663 88.2041 663 57C663 25.7959 633.899 0.499908 598 0.499908C562.102 0.499908 533 25.7959 533 57C533 88.2041 562.102 113.5 598 113.5Z" stroke="#808080" stroke-linecap="round" stroke-linejoin="round"/>
<path d="M845.5 113.5C881.399 113.5 910.5 88.2041 910.5 57C910.5 25.7959 881.399 0.499908 845.5 0.499908C809.602 0.499908 780.5 25.7959 780.5 57C780.5 88.2041 809.602 113.5 845.5 113.5Z" fill="white"/>
<path d="M845.5 113.5C881.399 113.5 910.5 88.2041 910.5 57C910.5 25.7959 881.399 0.499908 845.5 0.499908C809.602 0.499908 780.5 25.7959 780.5 57C780.5 88.2041 809.602 113.5 845.5 113.5Z" stroke="#808080" stroke-linecap="round" stroke-linejoin="round"/>
<path d="M350.5 189V123.4" stroke="black" stroke-linecap="round" stroke-linejoin="round"/>
<path d="M205.5 192.773L299.05 105.175" stroke="black" stroke-linecap="round" stroke-linejoin="round"/>
<path d="M421.644 189L540.816 99.801" stroke="black" stroke-linecap="round" stroke-linejoin="round"/>
<path d="M598 189V123.4" stroke="black" stroke-linecap="round" stroke-linejoin="round"/>
<path d="M507.003 189L404.717 102.728" stroke="black" stroke-linecap="round" stroke-linejoin="round"/>
<path d="M311.688 63.128C310.568 63.128 309.555 62.8827 308.648 62.392C307.752 61.8907 307.048 61.208 306.536 60.344C306.024 59.4693 305.768 58.488 305.768 57.4C305.768 56.312 306.024 55.336 306.536 54.472C307.048 53.5973 307.757 52.9147 308.664 52.424C309.571 51.9227 310.584 51.672 311.704 51.672C312.579 51.672 313.379 51.8213 314.104 52.12C314.829 52.408 315.448 52.84 315.96 53.416L314.92 54.424C314.077 53.5387 313.027 53.096 311.768 53.096C310.936 53.096 310.184 53.2827 309.512 53.656C308.84 54.0293 308.312 54.5467 307.928 55.208C307.555 55.8587 307.368 56.5893 307.368 57.4C307.368 58.2107 307.555 58.9467 307.928 59.608C308.312 60.2587 308.84 60.7707 309.512 61.144C310.184 61.5173 310.936 61.704 311.768 61.704C313.016 61.704 314.067 61.256 314.92 60.36L315.96 61.368C315.448 61.944 314.824 62.3813 314.088 62.68C313.363 62.9787 312.563 63.128 311.688 63.128ZM321.945 63.128C321.017 63.128 320.174 62.9253 319.417 62.52C318.66 62.1147 318.068 61.56 317.641 60.856C317.214 60.1413 317.001 59.3413 317.001 58.456C317.001 57.5707 317.214 56.776 317.641 56.072C318.068 55.3573 318.66 54.7973 319.417 54.392C320.174 53.9867 321.017 53.784 321.945 53.784C322.884 53.784 323.726 53.9867 324.473 54.392C325.23 54.7973 325.822 55.3573 326.249 56.072C326.676 56.776 326.889 57.5707 326.889 58.456C326.889 59.3413 326.676 60.1413 326.249 60.856C325.822 61.56 325.23 62.1147 324.473 62.52C323.726 62.9253 322.884 63.128 321.945 63.128ZM321.945 61.784C322.585 61.784 323.161 61.64 323.673 61.352C324.185 61.064 324.585 60.6693 324.873 60.168C325.172 59.6667 325.321 59.096 325.321 58.456C325.321 57.816 325.172 57.2453 324.873 56.744C324.585 56.2427 324.185 55.848 323.673 55.56C323.161 55.272 322.585 55.128 321.945 55.128C321.305 55.128 320.729 55.272 320.217 55.56C319.705 55.848 319.3 56.2427 319.001 56.744C318.713 57.2453 318.569 57.816 318.569 58.456C318.569 59.096 318.713 59.6667 319.001 60.168C319.3 60.6693 319.705 61.064 320.217 61.352C320.729 61.64 321.305 61.784 321.945 61.784ZM337.642 63L337.626 56.696L334.49 61.912H333.77L330.634 56.84V63H329.146V53.912H330.474L334.154 60.024L337.77 53.912H339.114L339.13 63H337.642ZM350.736 63L350.72 56.696L347.584 61.912H346.864L343.728 56.84V63H342.24V53.912H343.568L347.248 60.024L350.864 53.912H352.208L352.224 63H350.736ZM359.221 63.128C357.973 63.128 356.997 62.776 356.293 62.072C355.589 61.368 355.237 60.3813 355.237 59.112V53.912H356.789V59.08C356.789 59.9653 356.997 60.6373 357.413 61.096C357.829 61.5547 358.437 61.784 359.237 61.784C360.027 61.784 360.629 61.5547 361.045 61.096C361.472 60.6373 361.685 59.9653 361.685 59.08V53.912H363.205V59.112C363.205 60.3813 362.853 61.368 362.149 62.072C361.445 62.776 360.469 63.128 359.221 63.128ZM374.288 53.912V63H373.008L367.76 56.584V63H366.208V53.912H367.488L372.736 60.36V53.912H374.288ZM377.396 53.912H378.948V63H377.396V53.912ZM383.652 55.192H380.548V53.912H388.308V55.192H385.204V63H383.652V55.192ZM393.562 60.04V63H392.01V59.992L388.282 53.912H389.93L392.826 58.568L395.706 53.912H397.306L393.562 60.04Z" fill="black"/>
<path d="M558.688 63.128C557.568 63.128 556.555 62.8827 555.648 62.392C554.752 61.8907 554.048 61.208 553.536 60.344C553.024 59.4693 552.768 58.488 552.768 57.4C552.768 56.312 553.024 55.336 553.536 54.472C554.048 53.5973 554.757 52.9147 555.664 52.424C556.571 51.9227 557.584 51.672 558.704 51.672C559.579 51.672 560.379 51.8213 561.104 52.12C561.829 52.408 562.448 52.84 562.96 53.416L561.92 54.424C561.077 53.5387 560.027 53.096 558.768 53.096C557.936 53.096 557.184 53.2827 556.512 53.656C555.84 54.0293 555.312 54.5467 554.928 55.208C554.555 55.8587 554.368 56.5893 554.368 57.4C554.368 58.2107 554.555 58.9467 554.928 59.608C555.312 60.2587 555.84 60.7707 556.512 61.144C557.184 61.5173 557.936 61.704 558.768 61.704C560.016 61.704 561.067 61.256 561.92 60.36L562.96 61.368C562.448 61.944 561.824 62.3813 561.088 62.68C560.363 62.9787 559.563 63.128 558.688 63.128ZM568.945 63.128C568.017 63.128 567.174 62.9253 566.417 62.52C565.66 62.1147 565.068 61.56 564.641 60.856C564.214 60.1413 564.001 59.3413 564.001 58.456C564.001 57.5707 564.214 56.776 564.641 56.072C565.068 55.3573 565.66 54.7973 566.417 54.392C567.174 53.9867 568.017 53.784 568.945 53.784C569.884 53.784 570.726 53.9867 571.473 54.392C572.23 54.7973 572.822 55.3573 573.249 56.072C573.676 56.776 573.889 57.5707 573.889 58.456C573.889 59.3413 573.676 60.1413 573.249 60.856C572.822 61.56 572.23 62.1147 571.473 62.52C570.726 62.9253 569.884 63.128 568.945 63.128ZM568.945 61.784C569.585 61.784 570.161 61.64 570.673 61.352C571.185 61.064 571.585 60.6693 571.873 60.168C572.172 59.6667 572.321 59.096 572.321 58.456C572.321 57.816 572.172 57.2453 571.873 56.744C571.585 56.2427 571.185 55.848 570.673 55.56C570.161 55.272 569.585 55.128 568.945 55.128C568.305 55.128 567.729 55.272 567.217 55.56C566.705 55.848 566.3 56.2427 566.001 56.744C565.713 57.2453 565.569 57.816 565.569 58.456C565.569 59.096 565.713 59.6667 566.001 60.168C566.3 60.6693 566.705 61.064 567.217 61.352C567.729 61.64 568.305 61.784 568.945 61.784ZM584.642 63L584.626 56.696L581.49 61.912H580.77L577.634 56.84V63H576.146V53.912H577.474L581.154 60.024L584.77 53.912H586.114L586.13 63H584.642ZM597.736 63L597.72 56.696L594.584 61.912H593.864L590.728 56.84V63H589.24V53.912H590.568L594.248 60.024L597.864 53.912H599.208L599.224 63H597.736ZM606.221 63.128C604.973 63.128 603.997 62.776 603.293 62.072C602.589 61.368 602.237 60.3813 602.237 59.112V53.912H603.789V59.08C603.789 59.9653 603.997 60.6373 604.413 61.096C604.829 61.5547 605.437 61.784 606.237 61.784C607.027 61.784 607.629 61.5547 608.045 61.096C608.472 60.6373 608.685 59.9653 608.685 59.08V53.912H610.205V59.112C610.205 60.3813 609.853 61.368 609.149 62.072C608.445 62.776 607.469 63.128 606.221 63.128ZM621.288 53.912V63H620.008L614.76 56.584V63H613.208V53.912H614.488L619.736 60.36V53.912H621.288ZM624.396 53.912H625.948V63H624.396V53.912ZM630.652 55.192H627.548V53.912H635.308V55.192H632.204V63H630.652V55.192ZM640.562 60.04V63H639.01V59.992L635.282 53.912H636.93L639.826 58.568L642.706 53.912H644.306L640.562 60.04Z" fill="black"/>
<path d="M809.688 63.128C808.568 63.128 807.555 62.8827 806.648 62.392C805.752 61.8907 805.048 61.208 804.536 60.344C804.024 59.4693 803.768 58.488 803.768 57.4C803.768 56.312 804.024 55.336 804.536 54.472C805.048 53.5973 805.757 52.9147 806.664 52.424C807.571 51.9227 808.584 51.672 809.704 51.672C810.579 51.672 811.379 51.8213 812.104 52.12C812.829 52.408 813.448 52.84 813.96 53.416L812.92 54.424C812.077 53.5387 811.027 53.096 809.768 53.096C808.936 53.096 808.184 53.2827 807.512 53.656C806.84 54.0293 806.312 54.5467 805.928 55.208C805.555 55.8587 805.368 56.5893 805.368 57.4C805.368 58.2107 805.555 58.9467 805.928 59.608C806.312 60.2587 806.84 60.7707 807.512 61.144C808.184 61.5173 808.936 61.704 809.768 61.704C811.016 61.704 812.067 61.256 812.92 60.36L813.96 61.368C813.448 61.944 812.824 62.3813 812.088 62.68C811.363 62.9787 810.563 63.128 809.688 63.128ZM819.945 63.128C819.017 63.128 818.174 62.9253 817.417 62.52C816.66 62.1147 816.068 61.56 815.641 60.856C815.214 60.1413 815.001 59.3413 815.001 58.456C815.001 57.5707 815.214 56.776 815.641 56.072C816.068 55.3573 816.66 54.7973 817.417 54.392C818.174 53.9867 819.017 53.784 819.945 53.784C820.884 53.784 821.726 53.9867 822.473 54.392C823.23 54.7973 823.822 55.3573 824.249 56.072C824.676 56.776 824.889 57.5707 824.889 58.456C824.889 59.3413 824.676 60.1413 824.249 60.856C823.822 61.56 823.23 62.1147 822.473 62.52C821.726 62.9253 820.884 63.128 819.945 63.128ZM819.945 61.784C820.585 61.784 821.161 61.64 821.673 61.352C822.185 61.064 822.585 60.6693 822.873 60.168C823.172 59.6667 823.321 59.096 823.321 58.456C823.321 57.816 823.172 57.2453 822.873 56.744C822.585 56.2427 822.185 55.848 821.673 55.56C821.161 55.272 820.585 55.128 819.945 55.128C819.305 55.128 818.729 55.272 818.217 55.56C817.705 55.848 817.3 56.2427 817.001 56.744C816.713 57.2453 816.569 57.816 816.569 58.456C816.569 59.096 816.713 59.6667 817.001 60.168C817.3 60.6693 817.705 61.064 818.217 61.352C818.729 61.64 819.305 61.784 819.945 61.784ZM835.642 63L835.626 56.696L832.49 61.912H831.77L828.634 56.84V63H827.146V53.912H828.474L832.154 60.024L835.77 53.912H837.114L837.13 63H835.642ZM848.736 63L848.72 56.696L845.584 61.912H844.864L841.728 56.84V63H840.24V53.912H841.568L845.248 60.024L848.864 53.912H850.208L850.224 63H848.736ZM857.221 63.128C855.973 63.128 854.997 62.776 854.293 62.072C853.589 61.368 853.237 60.3813 853.237 59.112V53.912H854.789V59.08C854.789 59.9653 854.997 60.6373 855.413 61.096C855.829 61.5547 856.437 61.784 857.237 61.784C858.027 61.784 858.629 61.5547 859.045 61.096C859.472 60.6373 859.685 59.9653 859.685 59.08V53.912H861.205V59.112C861.205 60.3813 860.853 61.368 860.149 62.072C859.445 62.776 858.469 63.128 857.221 63.128ZM872.288 53.912V63H871.008L865.76 56.584V63H864.208V53.912H865.488L870.736 60.36V53.912H872.288ZM875.396 53.912H876.948V63H875.396V53.912ZM881.652 55.192H878.548V53.912H886.308V55.192H883.204V63H881.652V55.192ZM891.562 60.04V63H890.01V59.992L886.282 53.912H887.93L890.826 58.568L893.706 53.912H895.306L891.562 60.04Z" fill="black"/>
<path d="M81.904 312.192H78.064V310.8H87.328V312.192H83.488V322H81.904V312.192ZM94.9133 322L92.9613 319.28C92.8759 319.291 92.7373 319.296 92.5453 319.296H90.3853V322H88.8333V312.912H92.5453C93.7506 312.912 94.6999 313.195 95.3933 313.76C96.0866 314.325 96.4333 315.109 96.4333 316.112C96.4333 316.805 96.2573 317.397 95.9053 317.888C95.5639 318.379 95.0733 318.747 94.4333 318.992L96.5933 322H94.9133ZM92.4493 318.032C93.2386 318.032 93.8359 317.867 94.2413 317.536C94.6573 317.205 94.8653 316.731 94.8653 316.112C94.8653 315.493 94.6573 315.019 94.2413 314.688C93.8359 314.357 93.2386 314.192 92.4493 314.192H90.3853V318.032H92.4493ZM104.703 319.84H99.8234L98.8634 322H97.3434L101.503 312.912H103.039L107.215 322H105.647L104.703 319.84ZM104.159 318.608L102.271 314.32L100.367 318.608H104.159ZM112.679 322.128C111.751 322.128 110.908 321.925 110.151 321.52C109.404 321.115 108.818 320.56 108.391 319.856C107.964 319.141 107.751 318.341 107.751 317.456C107.751 316.571 107.964 315.776 108.391 315.072C108.818 314.357 109.404 313.797 110.151 313.392C110.908 312.987 111.751 312.784 112.679 312.784C114.247 312.784 115.442 313.259 116.263 314.208L115.271 315.216C114.588 314.491 113.74 314.128 112.727 314.128C112.076 314.128 111.49 314.272 110.967 314.56C110.455 314.837 110.05 315.232 109.751 315.744C109.463 316.245 109.319 316.816 109.319 317.456C109.319 318.085 109.463 318.656 109.751 319.168C110.05 319.669 110.455 320.064 110.967 320.352C111.49 320.64 112.076 320.784 112.727 320.784C113.73 320.784 114.578 320.416 115.271 319.68L116.263 320.688C115.431 321.648 114.236 322.128 112.679 322.128ZM125.165 320.704V322H118.349V312.912H124.989V314.192H119.901V316.752H124.429V318.016H119.901V320.704H125.165Z" fill="black"/>
<path d="M582.904 266.192H579.064V264.8H588.328V266.192H584.488V276H582.904V266.192ZM595.913 276L593.961 273.28C593.876 273.291 593.737 273.296 593.545 273.296H591.385V276H589.833V266.912H593.545C594.751 266.912 595.7 267.195 596.393 267.76C597.087 268.325 597.433 269.109 597.433 270.112C597.433 270.805 597.257 271.397 596.905 271.888C596.564 272.379 596.073 272.747 595.433 272.992L597.593 276H595.913ZM593.449 272.032C594.239 272.032 594.836 271.867 595.241 271.536C595.657 271.205 595.865 270.731 595.865 270.112C595.865 269.493 595.657 269.019 595.241 268.688C594.836 268.357 594.239 268.192 593.449 268.192H591.385V272.032H593.449ZM605.703 273.84H600.823L599.863 276H598.343L602.503 266.912H604.039L608.215 276H606.647L605.703 273.84ZM605.159 272.608L603.271 268.32L601.367 272.608H605.159ZM613.679 276.128C612.751 276.128 611.908 275.925 611.151 275.52C610.404 275.115 609.818 274.56 609.391 273.856C608.964 273.141 608.751 272.341 608.751 271.456C608.751 270.571 608.964 269.776 609.391 269.072C609.818 268.357 610.404 267.797 611.151 267.392C611.908 266.987 612.751 266.784 613.679 266.784C615.247 266.784 616.442 267.259 617.263 268.208L616.271 269.216C615.588 268.491 614.74 268.128 613.727 268.128C613.076 268.128 612.49 268.272 611.967 268.56C611.455 268.837 611.05 269.232 610.751 269.744C610.463 270.245 610.319 270.816 610.319 271.456C610.319 272.085 610.463 272.656 610.751 273.168C611.05 273.669 611.455 274.064 611.967 274.352C612.49 274.64 613.076 274.784 613.727 274.784C614.73 274.784 615.578 274.416 616.271 273.68L617.263 274.688C616.431 275.648 615.236 276.128 613.679 276.128ZM626.165 274.704V276H619.349V266.912H625.989V268.192H620.901V270.752H625.429V272.016H620.901V274.704H626.165Z" fill="black"/>
<path d="M582.904 312.192H579.064V310.8H588.328V312.192H584.488V322H582.904V312.192ZM595.913 322L593.961 319.28C593.876 319.291 593.737 319.296 593.545 319.296H591.385V322H589.833V312.912H593.545C594.751 312.912 595.7 313.195 596.393 313.76C597.087 314.325 597.433 315.109 597.433 316.112C597.433 316.805 597.257 317.397 596.905 317.888C596.564 318.379 596.073 318.747 595.433 318.992L597.593 322H595.913ZM593.449 318.032C594.239 318.032 594.836 317.867 595.241 317.536C595.657 317.205 595.865 316.731 595.865 316.112C595.865 315.493 595.657 315.019 595.241 314.688C594.836 314.357 594.239 314.192 593.449 314.192H591.385V318.032H593.449ZM605.703 319.84H600.823L599.863 322H598.343L602.503 312.912H604.039L608.215 322H606.647L605.703 319.84ZM605.159 318.608L603.271 314.32L601.367 318.608H605.159ZM613.679 322.128C612.751 322.128 611.908 321.925 611.151 321.52C610.404 321.115 609.818 320.56 609.391 319.856C608.964 319.141 608.751 318.341 608.751 317.456C608.751 316.571 608.964 315.776 609.391 315.072C609.818 314.357 610.404 313.797 611.151 313.392C611.908 312.987 612.751 312.784 613.679 312.784C615.247 312.784 616.442 313.259 617.263 314.208L616.271 315.216C615.588 314.491 614.74 314.128 613.727 314.128C613.076 314.128 612.49 314.272 611.967 314.56C611.455 314.837 611.05 315.232 610.751 315.744C610.463 316.245 610.319 316.816 610.319 317.456C610.319 318.085 610.463 318.656 610.751 319.168C611.05 319.669 611.455 320.064 611.967 320.352C612.49 320.64 613.076 320.784 613.727 320.784C614.73 320.784 615.578 320.416 616.271 319.68L617.263 320.688C616.431 321.648 615.236 322.128 613.679 322.128ZM626.165 320.704V322H619.349V312.912H625.989V314.192H620.901V316.752H625.429V318.016H620.901V320.704H626.165Z" fill="black"/>
<path d="M81.904 357.192H78.064V355.8H87.328V357.192H83.488V367H81.904V357.192ZM94.9133 367L92.9613 364.28C92.8759 364.291 92.7373 364.296 92.5453 364.296H90.3853V367H88.8333V357.912H92.5453C93.7506 357.912 94.6999 358.195 95.3933 358.76C96.0866 359.325 96.4333 360.109 96.4333 361.112C96.4333 361.805 96.2573 362.397 95.9053 362.888C95.5639 363.379 95.0733 363.747 94.4333 363.992L96.5933 367H94.9133ZM92.4493 363.032C93.2386 363.032 93.8359 362.867 94.2413 362.536C94.6573 362.205 94.8653 361.731 94.8653 361.112C94.8653 360.493 94.6573 360.019 94.2413 359.688C93.8359 359.357 93.2386 359.192 92.4493 359.192H90.3853V363.032H92.4493ZM104.703 364.84H99.8234L98.8634 367H97.3434L101.503 357.912H103.039L107.215 367H105.647L104.703 364.84ZM104.159 363.608L102.271 359.32L100.367 363.608H104.159ZM112.679 367.128C111.751 367.128 110.908 366.925 110.151 366.52C109.404 366.115 108.818 365.56 108.391 364.856C107.964 364.141 107.751 363.341 107.751 362.456C107.751 361.571 107.964 360.776 108.391 360.072C108.818 359.357 109.404 358.797 110.151 358.392C110.908 357.987 111.751 357.784 112.679 357.784C114.247 357.784 115.442 358.259 116.263 359.208L115.271 360.216C114.588 359.491 113.74 359.128 112.727 359.128C112.076 359.128 111.49 359.272 110.967 359.56C110.455 359.837 110.05 360.232 109.751 360.744C109.463 361.245 109.319 361.816 109.319 362.456C109.319 363.085 109.463 363.656 109.751 364.168C110.05 364.669 110.455 365.064 110.967 365.352C111.49 365.64 112.076 365.784 112.727 365.784C113.73 365.784 114.578 365.416 115.271 364.68L116.263 365.688C115.431 366.648 114.236 367.128 112.679 367.128ZM125.165 365.704V367H118.349V357.912H124.989V359.192H119.901V361.752H124.429V363.016H119.901V365.704H125.165Z" fill="black"/>
<path d="M329.904 266.192H326.064V264.8H335.328V266.192H331.488V276H329.904V266.192ZM342.913 276L340.961 273.28C340.876 273.291 340.737 273.296 340.545 273.296H338.385V276H336.833V266.912H340.545C341.751 266.912 342.7 267.195 343.393 267.76C344.087 268.325 344.433 269.109 344.433 270.112C344.433 270.805 344.257 271.397 343.905 271.888C343.564 272.379 343.073 272.747 342.433 272.992L344.593 276H342.913ZM340.449 272.032C341.239 272.032 341.836 271.867 342.241 271.536C342.657 271.205 342.865 270.731 342.865 270.112C342.865 269.493 342.657 269.019 342.241 268.688C341.836 268.357 341.239 268.192 340.449 268.192H338.385V272.032H340.449ZM352.703 273.84H347.823L346.863 276H345.343L349.503 266.912H351.039L355.215 276H353.647L352.703 273.84ZM352.159 272.608L350.271 268.32L348.367 272.608H352.159ZM360.679 276.128C359.751 276.128 358.908 275.925 358.151 275.52C357.404 275.115 356.818 274.56 356.391 273.856C355.964 273.141 355.751 272.341 355.751 271.456C355.751 270.571 355.964 269.776 356.391 269.072C356.818 268.357 357.404 267.797 358.151 267.392C358.908 266.987 359.751 266.784 360.679 266.784C362.247 266.784 363.442 267.259 364.263 268.208L363.271 269.216C362.588 268.491 361.74 268.128 360.727 268.128C360.076 268.128 359.49 268.272 358.967 268.56C358.455 268.837 358.05 269.232 357.751 269.744C357.463 270.245 357.319 270.816 357.319 271.456C357.319 272.085 357.463 272.656 357.751 273.168C358.05 273.669 358.455 274.064 358.967 274.352C359.49 274.64 360.076 274.784 360.727 274.784C361.73 274.784 362.578 274.416 363.271 273.68L364.263 274.688C363.431 275.648 362.236 276.128 360.679 276.128ZM373.165 274.704V276H366.349V266.912H372.989V268.192H367.901V270.752H372.429V272.016H367.901V274.704H373.165Z" fill="black"/>
</g>
<defs>
<clipPath id="clip0">
<rect width="948.5" height="389" fill="white"/>
</clipPath>
</defs>
</svg>
