<svg width="2776" height="899" viewBox="0 0 2776 899" fill="none" xmlns="http://www.w3.org/2000/svg">
<rect width="2776" height="899" fill="white"/>
<path d="M136.783 349C137.176 349.083 137.574 349.145 137.975 349.186C163.341 350.456 185.215 359.98 203.695 377.382C204.118 377.805 204.574 378.228 204.917 378.546L190.686 392.788C190.098 392.242 189.359 391.569 188.627 390.884C180.029 382.91 169.812 376.887 158.674 373.227C153.854 371.661 148.901 370.538 143.877 369.872C138.612 369.215 133.297 369.052 128.002 369.385C122.272 369.715 116.598 370.697 111.091 372.313C106.382 373.649 101.806 375.414 97.4183 377.585C91.3966 380.512 85.7849 384.218 80.7273 388.607C78.7741 390.3 76.8462 392.077 75.0199 393.926C71.378 397.643 68.1202 401.718 65.2961 406.09C62.5819 410.249 60.2567 414.65 58.3499 419.236C55.9075 425.025 54.1756 431.089 53.1921 437.295C52.7688 439.926 52.4781 442.576 52.3212 445.236C52.1141 448.408 52.0718 451.589 52.1944 454.765C52.4577 460.261 53.3009 465.715 54.7099 471.034C58.9687 487.388 68.2109 502.009 81.1528 512.867C94.0947 523.724 110.094 530.278 126.928 531.619C130.838 531.903 134.763 531.931 138.677 531.703C145.016 531.329 151.286 530.181 157.346 528.285C161.509 527.007 165.56 525.389 169.459 523.448C182.322 517.055 193.272 507.379 201.205 495.396C205.657 488.688 209.077 481.348 211.351 473.623C211.558 472.921 211.774 472.214 212.007 471.33C209.318 471.3 206.798 471.33 204.278 471.33H113.031L133.709 450.635H234.794V452.061C234.236 476.792 225.979 498.603 209.774 517.292C195.311 533.954 177.145 544.617 155.659 549.601C150.02 550.866 144.284 551.653 138.512 551.953C133.682 552.236 128.837 552.132 124.023 551.645C101.87 549.449 82.3634 541.067 65.7611 526.19C49.6197 511.741 39.2406 493.822 34.3999 472.705C33.0139 466.693 32.2265 460.559 32.0493 454.393C31.2756 427.487 39.6084 403.759 57.293 383.496C71.5743 367.122 89.4956 356.616 110.634 351.628C115.809 350.435 121.069 349.646 126.366 349.267C127.139 349.207 127.921 349.233 128.699 349.186C129.097 349.144 129.49 349.08 129.883 349H136.783Z" fill="#1B1657"/>
<path d="M761.201 552.093H740.988V471.385H680.058V551.907C679.259 552.14 661.257 552.207 659.875 552V430.745H680.007V450.386C680.853 450.614 739.005 450.699 740.971 450.483V390.296C741.251 390.242 741.533 390.205 741.817 390.186H760.689C760.858 390.186 761.023 390.215 761.192 390.232L761.201 552.093Z" fill="#1B1657"/>
<path d="M558.172 471.279H477.453L456.813 450.614H534.878C532.064 442.593 527.589 435.257 521.746 429.086C512.386 419.223 500.984 413.05 487.591 410.778C474.33 408.514 460.693 410.701 448.803 416.999C436.913 423.297 427.437 433.352 421.85 445.599C416.263 457.846 414.878 471.598 417.911 484.714C420.945 497.831 428.226 509.576 438.621 518.121C450.691 527.997 464.626 532.646 480.184 531.936C495.742 531.225 509.034 525.204 520.169 514.516L534.184 528.547C514.183 549.588 476.197 561.071 441.048 543.432C401.125 523.334 385.043 474.655 405.112 434.692C413.386 418.235 427.02 405.094 443.763 397.438C460.506 389.782 479.357 388.068 497.204 392.58C538.209 403.048 558.912 440.015 558.172 471.279Z" fill="#1B1657"/>
<path d="M1183.23 410.778C1196.62 413.05 1208.02 419.223 1217.38 429.086L1233.32 416.999C1223.38 405.83 1209.86 396.924 1192.84 392.58C1174.99 388.068 1156.14 389.782 1139.4 397.438C1122.66 405.094 1109.02 418.235 1100.75 434.692C1080.68 474.655 1096.76 523.334 1136.68 543.432C1171.83 561.071 1209.82 549.588 1229.82 528.547L1215.81 514.516C1204.67 525.204 1191.38 531.225 1175.82 531.936C1160.26 532.647 1146.33 527.997 1134.26 518.121C1123.86 509.576 1116.58 497.831 1113.55 484.714C1110.52 471.598 1111.9 457.846 1117.49 445.599C1123.07 433.352 1132.55 423.297 1144.44 416.999C1156.33 410.701 1169.97 408.514 1183.23 410.778Z" fill="#8293C6"/>
<path d="M1391.27 471.279H1310.55L1289.91 450.614H1367.97C1365.16 442.593 1360.69 435.257 1354.84 429.086C1345.48 419.223 1334.08 413.05 1320.69 410.778C1307.43 408.514 1293.79 410.701 1281.9 416.999C1270.01 423.297 1260.53 433.352 1254.95 445.599C1249.36 457.846 1247.97 471.598 1251.01 484.714C1254.04 497.831 1261.32 509.576 1271.72 518.121C1283.79 527.997 1297.72 532.647 1313.28 531.936C1328.84 531.225 1342.13 525.204 1353.27 514.516L1367.28 528.547C1347.28 549.588 1309.29 561.071 1274.14 543.432C1234.22 523.334 1218.14 474.655 1238.21 434.692C1246.48 418.235 1260.12 405.094 1276.86 397.438C1293.6 389.782 1312.45 388.068 1330.3 392.58C1371.31 403.048 1392.01 440.015 1391.27 471.279Z" fill="#8293C6"/>
<path d="M316.232 511.093L385.952 390.24H409.052C409.074 390.27 409.094 390.301 409.111 390.333C409.111 390.363 409.141 390.405 409.111 390.431C409.065 390.557 409.01 390.68 408.946 390.799L315.936 552.046H295.808V390.418C295.829 390.381 295.854 390.347 295.884 390.316C295.908 390.294 295.937 390.277 295.969 390.27C296.099 390.234 296.232 390.212 296.366 390.202H315.442C315.612 390.219 315.782 390.245 315.949 390.283V511.051L316.232 511.093Z" fill="#1B1657"/>
<path d="M1054.55 431.155L984.827 552.008L961.726 552.008C961.704 551.978 961.684 551.947 961.667 551.915C961.667 551.885 961.638 551.843 961.667 551.817C961.713 551.691 961.769 551.568 961.832 551.449L1054.84 390.202L1074.97 390.202L1074.97 551.83C1074.95 551.867 1074.92 551.902 1074.89 551.932C1074.87 551.955 1074.84 551.971 1074.81 551.978C1074.68 552.014 1074.55 552.036 1074.41 552.046L1055.34 552.046C1055.17 552.029 1055 552.003 1054.83 551.966L1054.83 431.197L1054.55 431.155Z" fill="#8293C6"/>
<path d="M895.457 500.368L945.893 552.065L973.633 552.065L907.033 483.672C906.934 483.58 906.83 483.495 906.72 483.418C906.703 483.383 906.654 483.4 906.626 483.392C906.59 483.401 906.555 483.412 906.52 483.426L895.457 500.368Z" fill="#8293C6"/>
<path d="M598.882 552.043H578.644V409.928C577.266 409.852 575.959 409.903 574.657 409.894C573.355 409.886 571.952 409.894 570.599 409.894H554.673L543.211 390.232H679.953V409.882H598.882V552.043Z" fill="#1B1657"/>
<path d="M834.502 552.043H814.264V409.928C812.885 409.852 811.579 409.903 810.277 409.894C808.975 409.886 807.571 409.894 806.218 409.894H790.292L778.831 390.232H884.05V409.882H834.502V552.043Z" fill="#8293C6"/>
<path d="M275.33 552.042H255.223V430.732H275.232L275.283 430.783C275.283 430.809 275.342 430.834 275.342 430.859C275.359 471.066 275.373 511.274 275.385 551.484C275.38 551.645 275.351 551.81 275.33 552.042Z" fill="#1B1657"/>
<path d="M265.289 390.186C267.948 390.206 270.49 391.279 272.359 393.171C274.228 395.064 275.272 397.62 275.262 400.281C275.252 402.941 274.189 405.49 272.305 407.368C270.422 409.246 267.872 410.3 265.213 410.3C262.554 410.3 260.004 409.246 258.12 407.368C256.237 405.49 255.174 402.941 255.164 400.281C255.154 397.62 256.197 395.064 258.067 393.171C259.936 391.279 262.478 390.206 265.137 390.186H265.289Z" fill="#1B1657"/>
<path d="M910.929 409.699H919.843C939.889 409.699 956.14 425.949 956.14 445.995C956.14 466.041 939.889 482.292 919.843 482.292H881.274L896.405 501.952H919.843C950.747 501.952 975.8 476.899 975.8 445.995C975.8 415.091 950.747 390.038 919.843 390.038H899.87L910.929 409.699Z" fill="#8293C6"/>
</svg>
