<svg class="gridItem__media" version="1.1" id="Layer_1" xmlns="http://www.w3.org/2000/svg" xmlns:xlink="http://www.w3.org/1999/xlink" x="0px" y="0px" width="1600" height="1200" viewBox="0 0 1600 1200" style="enable-background:new 0 0 1600 1200;" xml:space="preserve" fill="none">
<path d="M1322.9 1027L1391 741.8C1394.8 725.7 1394.8 708.9 1390.9 692.8L1289 277.5C1283.6 255.6 1265.4 239.2 1243.1 236.1L581 144.5C564.7 142.3 548.3 147.4 536.3 158.5L231.6 438.4C220.1 449 213.6 464 213.8 479.7L221.4 1027.1H1322.9V1027Z" fill="#F4F4F4"/>
<path d="M1323.2 1026.9L1391.3 741.7C1395.1 725.6 1395.1 708.8 1391.2 692.7L1289.4 277.3C1284 255.4 1265.8 239 1243.5 235.9L581.4 144.3C565.1 142.1 548.7 147.2 536.7 158.3L231.9 438.3C220.4 448.9 213.9 463.9 214.1 479.6L221.7 1027H1323.2V1026.9Z" fill="#F4F4F4"/>
<path d="M1216.7 794.1H1164.8C1166.2 794.1 1167.4 795.3 1167.4 796.7H1210V799.3H1216.7C1218.1 799.3 1219.3 798.1 1219.3 796.7C1219.3 795.3 1218.2 794.1 1216.7 794.1Z" fill="#B2B6BB"/>
<path d="M1164.8 799.3H1159.2L1167.4 804.7H1159.2V979.2H1187H1199.7H1210V799.3H1164.8Z" fill="#B2B6BB"/>
<path d="M1167.4 796.8C1167.4 798.2 1166.2 799.4 1164.8 799.4H1210V796.8H1167.4Z" fill="#B2B6BB"/>
<path d="M839.7 916.2V965.8H1012.2V916.2H839.7ZM983.2 933.4C982.9 933.8 982.5 934.2 982.1 934.5C981.5 934.9 980.7 935.2 979.9 935.2C979.7 935.2 979.4 935.2 979.2 935.1C979.1 935.1 979 935.1 978.9 935C978.8 935 978.7 935 978.6 934.9C977 934.4 975.8 932.9 975.8 931.1C975.8 929.3 977 927.8 978.6 927.3C978.7 927.3 978.8 927.3 978.9 927.2C979 927.2 979.1 927.1 979.2 927.1C979.4 927.1 979.7 927 979.9 927C980.2 927 980.4 927 980.7 927.1C980.9 927.1 981.2 927.2 981.4 927.3C982 927.6 982.6 928 983 928.5C983.3 928.8 983.5 929.2 983.7 929.7C983.9 930.1 983.9 930.6 983.9 931.1C983.9 931.9 983.6 932.7 983.2 933.4Z" fill="#DADDDF"/>
<path d="M838.6 966.9V916.2V915V866V864.9V815.3H1012.3V803.4L831.1 801.8V979.2H838.9H851.6H885.8H898.5H1012.3V966.9H838.6Z" fill="#DADDDF"/>
<path d="M1012.3 816.5H839.7V864.9H1012.2V816.5H1012.3ZM983.6 833.2C983.4 833.6 983.2 834 982.9 834.4C982.5 834.9 981.9 835.3 981.3 835.6C981.1 835.7 980.9 835.8 980.6 835.8C980.3 835.9 980.1 835.9 979.8 835.9C979.5 835.9 979.3 835.9 979.1 835.8C979 835.8 978.9 835.8 978.8 835.7C978.7 835.7 978.6 835.7 978.5 835.6C976.9 835.1 975.7 833.6 975.7 831.8C975.7 830 976.9 828.5 978.5 828C978.6 828 978.7 828 978.8 827.9C978.9 827.9 979 827.8 979.1 827.8C979.3 827.8 979.6 827.7 979.8 827.7C980.1 827.7 980.3 827.7 980.6 827.8C981.3 828 982 828.3 982.5 828.8L982.6 828.9C983.3 829.6 983.8 830.6 983.8 831.7C983.9 832.3 983.8 832.8 983.6 833.2Z" fill="#DADDDF"/>
<path d="M1012.3 866H839.7V915H1012.2V866H1012.3ZM983.6 882.4C983.4 882.8 983.2 883.2 982.9 883.6C982.5 884.1 981.9 884.5 981.3 884.8C981.1 884.9 980.9 885 980.6 885C980.3 885.1 980.1 885.1 979.8 885.1C979.5 885.1 979.3 885.1 979.1 885C979 885 978.9 885 978.8 884.9C978.7 884.9 978.6 884.9 978.5 884.8C976.9 884.3 975.7 882.8 975.7 881C975.7 879.2 976.9 877.7 978.5 877.2C978.6 877.2 978.7 877.2 978.8 877.1C978.9 877.1 979 877 979.1 877C979.3 877 979.6 876.9 979.8 876.9C980.1 876.9 980.3 876.9 980.6 877C980.8 877 981.1 877.1 981.3 877.2C981.9 877.5 982.5 877.9 982.9 878.4C983.2 878.7 983.4 879.1 983.6 879.6C983.8 880 983.8 880.5 983.8 881C983.8 881.5 983.8 882 983.6 882.4Z" fill="#DADDDF"/>
<path d="M1012.3 803.4V815.3H1151.1V864.9V866V915V916.2V966.9H1012.3V979.2H1141.4H1154.1H1159.2V804.7L1012.3 803.4Z" fill="#DADDDF"/>
<path d="M1149.9 916.2H1012.3V965.8H1149.9V916.2Z" fill="#DADDDF"/>
<path d="M1149.9 866H1012.3V915H1149.9V866Z" fill="#DADDDF"/>
<path d="M1149.9 816.5H1012.3V864.9H1149.9V816.5Z" fill="#DADDDF"/>
<path d="M838.6 864.9H839.7V816.5H1012.3V815.3H838.6V864.9Z" fill="#B2B6BB"/>
<path d="M839.7 965.7V916.2H838.6V966.9H1012.3V965.7H839.7Z" fill="#B2B6BB"/>
<path d="M839.8 866H838.6V915H839.8V866Z" fill="#B2B6BB"/>
<path d="M1149.9 816.5V864.9H1151.1V815.3H1012.3V816.5H1149.9Z" fill="#B2B6BB"/>
<path d="M1151.1 866H1149.9V915H1151.1V866Z" fill="#B2B6BB"/>
<path d="M1149.9 965.7H1012.3V966.9H1151.1V916.2H1149.9V965.7Z" fill="#B2B6BB"/>
<path d="M1012.3 796.8H1159.2H1164.8V794.2H1164.9H825.1C823.7 794.2 822.5 795.4 822.5 796.8C822.5 798.2 823.7 799.4 825.1 799.4H831V796.8H1012.3Z" fill="#DADDDF"/>
<path d="M1164.8 796.8H1167.4C1167.4 795.4 1166.2 794.2 1164.8 794.2H1164.7V796.8H1164.8Z" fill="#DADDDF"/>
<path d="M1164.8 796.8H1159.2V799.4H1164.8V796.8Z" fill="#DADDDF"/>
<path d="M1164.8 799.3C1166.3 799.3 1167.4 798.1 1167.4 796.7H1164.8V799.3Z" fill="#DADDDF"/>
<path d="M1012.3 796.8H831.1V799.4H1012.3V796.8Z" fill="#DADDDF"/>
<path d="M1159.2 796.8H1012.3V799.4H1159.2V796.8Z" fill="#DADDDF"/>
<path d="M1012.2 915H839.7V916.2H1012.2V915Z" fill="#B2B6BB"/>
<path d="M1149.9 915H1012.3V916.2H1149.9V915Z" fill="#B2B6BB"/>
<path d="M839.8 915H838.6V916.2H839.8V915Z" fill="#B2B6BB"/>
<path d="M1151.1 915H1149.9V916.2H1151.1V915Z" fill="#B2B6BB"/>
<path d="M1012.2 864.9H839.7V866.1H1012.2V864.9Z" fill="#B2B6BB"/>
<path d="M1149.9 864.9H1012.3V866.1H1149.9V864.9Z" fill="#B2B6BB"/>
<path d="M839.8 864.9H838.6V866.1H839.8V864.9Z" fill="#B2B6BB"/>
<path d="M1151.1 864.9H1149.9V866.1H1151.1V864.9Z" fill="#B2B6BB"/>
<path d="M983.9 831.9C983.9 830.8 983.5 829.8 982.7 829.1C983.4 829.7 983.9 830.8 983.9 831.9Z" fill="#B2B6BB"/>
<path d="M981.3 831.9C981.3 830.1 980.2 828.6 978.6 828.1C977 828.6 975.8 830.1 975.8 831.9C975.8 833.7 977 835.2 978.6 835.7C980.2 835.1 981.3 833.6 981.3 831.9Z" fill="#B2B6BB"/>
<path d="M978.6 828.1C978.7 828.1 978.8 828.1 978.9 828C978.7 828 978.6 828 978.6 828.1Z" fill="#DADDDF"/>
<path opacity="0.15" d="M978.6 828.1C978.7 828.1 978.8 828.1 978.9 828C978.7 828 978.6 828 978.6 828.1Z" fill="black"/>
<path d="M978.6 835.7C978.7 835.7 978.8 835.7 978.9 835.8C978.7 835.7 978.7 835.7 978.6 835.7Z" fill="#DADDDF"/>
<path opacity="0.15" d="M978.6 835.7C978.7 835.7 978.8 835.7 978.9 835.8C978.7 835.7 978.7 835.7 978.6 835.7Z" fill="black"/>
<path d="M982.6 828.9C982.1 828.4 981.4 828 980.7 827.9C980.4 827.8 980.2 827.8 979.9 827.8C979.6 827.8 979.4 827.8 979.2 827.9C979.1 827.9 979 827.9 978.9 828C978.8 828 978.7 828 978.7 828.1C980.3 828.6 981.4 830.1 981.4 831.9C981.4 833.7 980.3 835.2 978.7 835.7C978.8 835.7 978.9 835.8 978.9 835.8C979 835.8 979.1 835.9 979.2 835.9C979.4 835.9 979.7 836 979.9 836C980.2 836 980.4 836 980.7 835.9C980.9 835.9 981.2 835.8 981.4 835.7C982 835.4 982.6 835 983 834.5C983.3 834.2 983.5 833.8 983.7 833.3C983.9 832.9 983.9 832.4 983.9 831.9C983.9 830.8 983.5 829.8 982.7 829.1C982.6 829 982.6 829 982.6 828.9Z" fill="#B2B6BB"/>
<path opacity="0.15" d="M982.6 828.9C982.1 828.4 981.4 828 980.7 827.9C980.4 827.8 980.2 827.8 979.9 827.8C979.6 827.8 979.4 827.8 979.2 827.9C979.1 827.9 979 827.9 978.9 828C978.8 828 978.7 828 978.7 828.1C980.3 828.6 981.4 830.1 981.4 831.9C981.4 833.7 980.3 835.2 978.7 835.7C978.8 835.7 978.9 835.8 978.9 835.8C979 835.8 979.1 835.9 979.2 835.9C979.4 835.9 979.7 836 979.9 836C980.2 836 980.4 836 980.7 835.9C980.9 835.9 981.2 835.8 981.4 835.7C982 835.4 982.6 835 983 834.5C983.3 834.2 983.5 833.8 983.7 833.3C983.9 832.9 983.9 832.4 983.9 831.9C983.9 830.8 983.5 829.8 982.7 829.1C982.6 829 982.6 829 982.6 828.9Z" fill="black"/>
<path d="M981.3 881.1C981.3 879.3 980.2 877.8 978.6 877.3C977 877.8 975.8 879.3 975.8 881.1C975.8 882.9 977 884.4 978.6 884.9C980.2 884.3 981.3 882.8 981.3 881.1Z" fill="#B2B6BB"/>
<path d="M978.6 877.2C978.6 877.3 978.6 877.3 978.6 877.2C978.7 877.2 978.8 877.2 978.9 877.1C978.7 877.2 978.6 877.2 978.6 877.2Z" fill="#DADDDF"/>
<path opacity="0.15" d="M978.6 877.2C978.6 877.3 978.6 877.3 978.6 877.2C978.7 877.2 978.8 877.2 978.9 877.1C978.7 877.2 978.6 877.2 978.6 877.2Z" fill="black"/>
<path d="M978.6 884.9C978.7 884.9 978.8 884.9 978.9 885C978.7 884.9 978.7 884.9 978.6 884.9C978.6 884.9 978.6 884.8 978.6 884.9Z" fill="#DADDDF"/>
<path opacity="0.15" d="M978.6 884.9C978.7 884.9 978.8 884.9 978.9 885C978.7 884.9 978.7 884.9 978.6 884.9C978.6 884.9 978.6 884.8 978.6 884.9Z" fill="black"/>
<path d="M982.9 878.5C982.5 878 981.9 877.6 981.3 877.3C981.1 877.2 980.9 877.1 980.6 877.1C980.3 877 980.1 877 979.8 877C979.5 877 979.3 877 979.1 877.1C979 877.1 978.9 877.1 978.8 877.2C978.7 877.2 978.6 877.2 978.6 877.3C980.2 877.8 981.3 879.3 981.3 881.1C981.3 882.9 980.2 884.4 978.6 884.9C978.7 884.9 978.8 885 978.8 885C978.9 885 979 885.1 979.1 885.1C979.3 885.1 979.6 885.2 979.8 885.2C980.1 885.2 980.3 885.2 980.6 885.1C980.8 885.1 981.1 885 981.3 884.9C981.9 884.6 982.5 884.2 982.9 883.7C983.2 883.4 983.4 883 983.6 882.5C983.8 882.1 983.8 881.6 983.8 881.1C983.8 880.6 983.7 880.1 983.6 879.7C983.5 879.2 983.2 878.8 982.9 878.5Z" fill="#B2B6BB"/>
<path opacity="0.15" d="M982.9 878.5C982.5 878 981.9 877.6 981.3 877.3C981.1 877.2 980.9 877.1 980.6 877.1C980.3 877 980.1 877 979.8 877C979.5 877 979.3 877 979.1 877.1C979 877.1 978.9 877.1 978.8 877.2C978.7 877.2 978.6 877.2 978.6 877.3C980.2 877.8 981.3 879.3 981.3 881.1C981.3 882.9 980.2 884.4 978.6 884.9C978.7 884.9 978.8 885 978.8 885C978.9 885 979 885.1 979.1 885.1C979.3 885.1 979.6 885.2 979.8 885.2C980.1 885.2 980.3 885.2 980.6 885.1C980.8 885.1 981.1 885 981.3 884.9C981.9 884.6 982.5 884.2 982.9 883.7C983.2 883.4 983.4 883 983.6 882.5C983.8 882.1 983.8 881.6 983.8 881.1C983.8 880.6 983.7 880.1 983.6 879.7C983.5 879.2 983.2 878.8 982.9 878.5Z" fill="black"/>
<path d="M981.3 931.1C981.3 929.3 980.2 927.8 978.6 927.3C977 927.8 975.8 929.3 975.8 931.1C975.8 932.9 977 934.4 978.6 934.9C980.2 934.4 981.3 932.9 981.3 931.1Z" fill="#B2B6BB"/>
<path d="M982.1 934.4C982.5 934.1 982.9 933.7 983.2 933.3C982.9 933.8 982.5 934.2 982.1 934.4Z" fill="#B2B6BB"/>
<path d="M978.6 927.3C978.7 927.3 978.8 927.3 978.9 927.2C978.7 927.3 978.6 927.3 978.6 927.3Z" fill="#DADDDF"/>
<path opacity="0.15" d="M978.6 927.3C978.7 927.3 978.8 927.3 978.9 927.2C978.7 927.3 978.6 927.3 978.6 927.3Z" fill="black"/>
<path d="M978.6 934.9C978.7 934.9 978.8 934.9 978.9 935C978.7 935 978.7 934.9 978.6 934.9Z" fill="#DADDDF"/>
<path opacity="0.15" d="M978.6 934.9C978.7 934.9 978.8 934.9 978.9 935C978.7 935 978.7 934.9 978.6 934.9Z" fill="black"/>
<path d="M982.9 928.6C982.5 928.1 981.9 927.7 981.3 927.4C981.1 927.3 980.9 927.2 980.6 927.2C980.3 927.1 980.1 927.1 979.8 927.1C979.5 927.1 979.3 927.1 979.1 927.2C979 927.2 978.9 927.2 978.8 927.3C978.7 927.3 978.6 927.3 978.6 927.4C980.2 927.9 981.3 929.4 981.3 931.2C981.3 933 980.2 934.5 978.6 935C978.7 935 978.8 935.1 978.8 935.1C978.9 935.1 979 935.2 979.1 935.2C979.3 935.2 979.6 935.3 979.8 935.3C980.6 935.3 981.4 935 982 934.6C982.4 934.3 982.8 933.9 983.1 933.5C983.5 932.9 983.8 932.1 983.8 931.3C983.8 930.8 983.7 930.3 983.6 929.9C983.5 929.3 983.2 928.9 982.9 928.6Z" fill="#B2B6BB"/>
<path opacity="0.15" d="M982.9 928.6C982.5 928.1 981.9 927.7 981.3 927.4C981.1 927.3 980.9 927.2 980.6 927.2C980.3 927.1 980.1 927.1 979.8 927.1C979.5 927.1 979.3 927.1 979.1 927.2C979 927.2 978.9 927.2 978.8 927.3C978.7 927.3 978.6 927.3 978.6 927.4C980.2 927.9 981.3 929.4 981.3 931.2C981.3 933 980.2 934.5 978.6 935C978.7 935 978.8 935.1 978.8 935.1C978.9 935.1 979 935.2 979.1 935.2C979.3 935.2 979.6 935.3 979.8 935.3C980.6 935.3 981.4 935 982 934.6C982.4 934.3 982.8 933.9 983.1 933.5C983.5 932.9 983.8 932.1 983.8 931.3C983.8 930.8 983.7 930.3 983.6 929.9C983.5 929.3 983.2 928.9 982.9 928.6Z" fill="black"/>
<path d="M1167.4 804.7L1159.2 799.3V804.7H1167.4Z" fill="#B2B6BB"/>
<path d="M1012.3 799.3H831.1V801.8L1012.3 803.4V799.3Z" fill="#B2B6BB"/>
<path d="M1012.3 803.4L1159.2 804.7V799.3H1012.3V803.4Z" fill="#B2B6BB"/>
<path d="M1193.3 1004L1198.7 1025.3C1199.1 1026.4 1200.1 1027.1 1201.2 1027.1C1201.6 1027.1 1201.9 1027 1202.2 1026.9L1198.2 1005.3L1193.3 1004Z" fill="#DADDDF"/>
<path d="M1187 979.2L1193.3 1004L1187 979.2Z" fill="#B2B6BB"/>
<path d="M1193.3 1004L1198.2 1005.2L1202.2 1026.8C1202.3 1026.8 1202.3 1026.7 1202.4 1026.7C1202.5 1026.7 1202.6 1026.6 1202.6 1026.6C1202.7 1026.6 1202.7 1026.5 1202.8 1026.5C1202.9 1026.4 1202.9 1026.4 1203 1026.3L1203.1 1026.2C1203.2 1026.1 1203.3 1025.9 1203.4 1025.8C1203.4 1025.8 1203.4 1025.7 1203.5 1025.7C1203.5 1025.6 1203.6 1025.5 1203.6 1025.4C1203.6 1025.3 1203.6 1025.3 1203.6 1025.2C1203.6 1025.1 1203.6 1025 1203.7 1024.8C1203.7 1024.7 1203.7 1024.7 1203.7 1024.6C1203.7 1024.4 1203.7 1024.2 1203.6 1024.1L1199.9 983.1L1199.6 979.4H1187L1193.3 1004Z" fill="#B2B6BB"/>
<path d="M1142.6 982.8L1141.4 979.2L1153.1 1025.2C1153.5 1026.3 1154.5 1027 1155.6 1027C1156 1027 1156.3 1026.9 1156.6 1026.8L1149.8 984.1L1142.6 982.8Z" fill="#DADDDF"/>
<path d="M1158.2 1024.4C1158.2 1024.2 1158.2 1024 1158.2 1023.9L1154.5 982.9L1158.2 1023.9C1158.2 1024.1 1158.2 1024.3 1158.2 1024.4Z" fill="#B2B6BB"/>
<path d="M1141.4 979.2L1142.6 982.8L1149.8 984.2L1156.6 1026.9C1156.7 1026.9 1156.7 1026.8 1156.8 1026.8C1156.9 1026.8 1157 1026.7 1157 1026.7C1157.1 1026.7 1157.1 1026.6 1157.2 1026.6C1157.3 1026.5 1157.3 1026.5 1157.4 1026.4L1157.5 1026.3C1157.6 1026.2 1157.7 1026 1157.8 1025.9C1157.8 1025.9 1157.8 1025.8 1157.9 1025.8C1157.9 1025.7 1158 1025.6 1158 1025.5C1158 1025.4 1158 1025.4 1158 1025.3C1158 1025.2 1158 1025.1 1158.1 1024.9C1158.1 1024.8 1158.1 1024.8 1158.1 1024.7C1158.1 1024.5 1158.1 1024.3 1158 1024.2L1154.3 983.2L1154 979.5L1141.4 979.2Z" fill="#B2B6BB"/>
<path d="M888 1003L883.7 1001.9L881.7 1023.9C881.4 1025.5 882.6 1027.1 884.3 1027.1H884.2L888 1003Z" fill="#DADDDF"/>
<path d="M885.8 1026.6C885.4 1026.9 884.8 1027.1 884.3 1027.1C884.8 1027 885.4 1026.9 885.8 1026.6Z" fill="#B2B6BB"/>
<path d="M886.8 1025.3C886.8 1025.4 886.7 1025.6 886.6 1025.7C886.7 1025.5 886.7 1025.4 886.8 1025.3L898.5 979.3L886.8 1025.3Z" fill="#B2B6BB"/>
<path d="M898.5 979.2H885.8L883.7 1001.9L888 1003L884.2 1027H884.3C884.9 1027 885.4 1026.8 885.8 1026.5C886 1026.3 886.2 1026.2 886.4 1025.9C886.5 1025.8 886.6 1025.7 886.6 1025.6C886.7 1025.5 886.7 1025.4 886.8 1025.2L898.5 979.2Z" fill="#B2B6BB"/>
<path d="M843.9 983.1L838.7 982.1L834.9 1023.9C834.6 1025.5 835.8 1027.1 837.5 1027.1H837.4L843.9 983.1Z" fill="#DADDDF"/>
<path d="M838.6 1026.8C838.4 1026.9 838.1 1027 837.8 1027C838.1 1027 838.4 1026.9 838.6 1026.8Z" fill="#B2B6BB"/>
<path d="M838.3 982.1H838.7L838.9 979.2L838.3 982.1Z" fill="#B2B6BB"/>
<path d="M838.9 979.2L838.6 982.1L843.8 983.1L837.2 1027H837.3C837.4 1027 837.6 1027 837.7 1027C838 1027 838.2 1026.9 838.5 1026.8C838.6 1026.7 838.7 1026.7 838.8 1026.6C839 1026.4 839.2 1026.3 839.4 1026C839.6 1025.8 839.7 1025.5 839.8 1025.3L851.5 979.3L838.9 979.2Z" fill="#B2B6BB"/>
<path d="M980.1 401.4C980.5 386.5 981.2 354.9 981.6 340C981.7 335.5 978.1 331.7 973.6 331.6L912.2 330.1C907.7 330 903.9 333.6 903.8 338.1L902.3 399.5C902.2 404 905.8 407.8 910.3 407.9C925.2 408.3 956.8 409 971.7 409.4C976.2 409.5 979.9 405.9 980.1 401.4Z" fill="#DDDDDD"/>
<path d="M980.1 401.4C980.5 386.5 981.2 354.9 981.6 340C981.7 335.5 978.1 331.7 973.6 331.6L912.2 330.1C907.7 330 903.9 333.6 903.8 338.1L902.3 399.5C902.2 404 905.8 407.8 910.3 407.9C925.2 408.3 956.8 409 971.7 409.4C976.2 409.5 979.9 405.9 980.1 401.4Z" stroke="#858990" stroke-width="1.356" stroke-miterlimit="10" stroke-dasharray="2.4 2.4"/>
<path d="M968.9 386.4C967.9 371.5 965.9 340 964.9 325.1C964.6 320.6 960.7 317.2 956.2 317.5L894.9 321.5C890.4 321.8 887 325.7 887.3 330.2L891.3 391.5C891.6 396 895.5 399.4 900 399.1C914.9 398.1 946.4 396.1 961.3 395.1C965.8 394.8 969.2 391 968.9 386.4Z" fill="white"/>
<path d="M926 340.4L921.9 351.8C921.8 352.2 921.4 352.5 921 352.5L909.1 354.5C908.1 354.7 907.8 355.9 908.6 356.5L918.1 363.9C918.4 364.2 918.6 364.6 918.5 365L916.7 377C916.6 378 917.6 378.7 918.4 378.1L928.4 371.3C928.7 371.1 929.2 371 929.5 371.2L940.3 376.6C941.2 377 942.2 376.2 941.9 375.3L938.6 363.7C938.5 363.3 938.6 362.9 938.9 362.6L947.4 354C948.1 353.3 947.6 352.1 946.6 352.1L934.5 351.7C934.1 351.7 933.7 351.5 933.5 351.1L927.9 340.4C927.6 339.4 926.3 339.5 926 340.4Z" fill="#858990"/>
<path d="M823.3 620.4H665C662.7 620.4 660.8 618.5 660.8 616.2V528.2C660.8 525.9 662.7 524 665 524H823.2C825.5 524 827.4 525.9 827.4 528.2V616.2C827.5 618.5 825.6 620.4 823.3 620.4Z" fill="#858990"/>
<path d="M819.5 620.4H661.3C659 620.4 657.1 618.5 657.1 616.2V528.2C657.1 525.9 659 524 661.3 524H819.5C821.8 524 823.7 525.9 823.7 528.2V616.2C823.7 618.5 821.8 620.4 819.5 620.4Z" fill="#DDDDDD"/>
<path d="M709.7 552.1H703.8L689.1 572.8L703.8 593.5H709.7L715.4 587.8L700.4 572.8L715.4 557.8L709.7 552.1Z" fill="#858990"/>
<path d="M703.8 552.1L683.1 572.8L703.8 593.5L709.5 587.8L694.5 572.8L709.5 557.8L703.8 552.1Z" fill="#3F4249"/>
<path d="M779.4 552.1H773.5L774.2 558.3L788.7 572.8L774.2 587.3L773.5 593.5H779.4L800.1 572.8L779.4 552.1Z" fill="#858990"/>
<path d="M773.5 552.1L767.8 557.8L782.8 572.8L767.8 587.8L773.5 593.5L794.2 572.8L773.5 552.1Z" fill="#3F4249"/>
<path d="M745.2 536.4L724.7 606.6H730.6L758.6 539.5L751.1 536.4H745.2Z" fill="#858990"/>
<path d="M717.2 603.5L724.7 606.6L752.7 539.5L745.2 536.4L717.2 603.5Z" fill="#3F4249"/>
<path d="M1306.3 647C1289.5 647 1275.9 633.4 1275.9 616.6C1275.9 599.8 1289.5 586.2 1306.3 586.2C1323.1 586.2 1336.7 599.8 1336.7 616.6C1336.7 633.4 1323.1 647 1306.3 647Z" fill="#DDDDDD"/>
<path d="M1315.2 613C1314.3 613 1313.5 613.3 1312.9 613.9L1303.1 608.2C1303.1 608 1303.2 607.8 1303.2 607.6C1303.2 605.6 1301.6 603.9 1299.5 603.9C1297.5 603.9 1295.8 605.5 1295.8 607.6C1295.8 609.7 1297.4 611.3 1299.5 611.3C1300.4 611.3 1301.2 611 1301.8 610.4L1311.6 616.1C1311.6 616.3 1311.5 616.5 1311.5 616.7C1311.5 616.9 1311.5 617.1 1311.6 617.3L1301.8 623C1301.2 622.5 1300.4 622.1 1299.5 622.1C1297.5 622.1 1295.8 623.7 1295.8 625.8C1295.8 627.9 1297.4 629.5 1299.5 629.5C1301.5 629.5 1303.2 627.9 1303.2 625.8C1303.2 625.6 1303.2 625.4 1303.1 625.2L1312.9 619.5C1313.5 620 1314.3 620.4 1315.2 620.4C1317.2 620.4 1318.9 618.8 1318.9 616.7C1318.9 614.6 1317.2 613 1315.2 613Z" fill="#858990"/>
<path d="M1103.8 369.1V530C1103.8 532.2 1105.6 534 1107.8 534H1354.9C1357.1 534 1358.9 532.2 1358.9 530V369.1C1358.9 366.9 1357.1 365.1 1354.9 365.1H1107.8C1105.6 365.1 1103.8 366.9 1103.8 369.1Z" class="change-color-in-svg" fill="#4D61FC" style="fill: rgb(77, 97, 252);"/>
<path opacity="0.3" d="M1103.8 369.1V530C1103.8 532.2 1105.6 534 1107.8 534H1354.9C1357.1 534 1358.9 532.2 1358.9 530V369.1C1358.9 366.9 1357.1 365.1 1354.9 365.1H1107.8C1105.6 365.1 1103.8 366.9 1103.8 369.1Z" fill="white"/>
<path d="M1099.3 369.1V530C1099.3 532.2 1101.1 534 1103.3 534H1350.4C1352.6 534 1354.4 532.2 1354.4 530V369.1C1354.4 366.9 1352.6 365.1 1350.4 365.1H1103.3C1101 365.1 1099.3 366.9 1099.3 369.1Z" class="change-color-in-svg" fill="#4D61FC" style="fill: rgb(77, 97, 252);"/>
<path opacity="0.7" d="M1099.3 369.1V530C1099.3 532.2 1101.1 534 1103.3 534H1350.4C1352.6 534 1354.4 532.2 1354.4 530V369.1C1354.4 366.9 1352.6 365.1 1350.4 365.1H1103.3C1101 365.1 1099.3 366.9 1099.3 369.1Z" fill="white"/>
<path d="M1249.8 449.6C1249.8 465.6 1236.8 478.6 1220.8 478.6C1204.8 478.6 1191.8 465.6 1191.8 449.6C1191.8 433.6 1204.8 420.6 1220.8 420.6C1236.9 420.6 1249.8 433.6 1249.8 449.6Z" class="change-color-in-svg" fill="#4D61FC" style="fill: rgb(77, 97, 252);"/>
<path d="M1215.1 461.8V437.3L1233.3 449.6L1215.1 461.8Z" fill="white"/>
<path d="M1350.4 534H1103.2C1101 534 1099.3 532.2 1099.3 530.1V519.5H1354.4V530.1C1354.3 532.2 1352.6 534 1350.4 534Z" fill="white"/>
<path d="M1328.9 525.7H1117.1V528.3H1328.9V525.7Z" fill="#B1B5BA"/>
<path d="M1110.2 530.9H1103.5C1103.1 530.9 1102.7 530.5 1102.7 530.1V523.4C1102.7 523 1103.1 522.6 1103.5 522.6H1110.2C1110.6 522.6 1111 523 1111 523.4V530.1C1111 530.6 1110.7 530.9 1110.2 530.9Z" fill="#B1B5BA"/>
<path d="M1106.3 524.7H1105.1V528.8H1106.3V524.7Z" fill="#61656D"/>
<path d="M1108.5 524.7H1107.3V528.8H1108.5V524.7Z" fill="#61656D"/>
<path d="M1350.5 531.2H1343.8C1343.4 531.2 1343 530.8 1343 530.4V523.7C1343 523.3 1343.4 522.9 1343.8 522.9H1350.5C1350.9 522.9 1351.3 523.3 1351.3 523.7V530.4C1351.3 530.9 1350.9 531.2 1350.5 531.2Z" fill="#C7C7C7"/>
<path d="M1345.8 526H1344.2V528H1345.8V526Z" fill="#61656D"/>
<path d="M1347.6 529.4L1345.2 528.1V526L1347.6 524.7V529.4Z" fill="#61656D"/>
<path d="M1348.8 525.5C1348.9 525.4 1349 525.3 1349.2 525.1C1349.6 525.5 1349.9 526 1350 526.6C1350.1 527.5 1349.9 528.3 1349.2 528.9C1349.1 528.8 1348.9 528.6 1348.8 528.5C1349.2 528.1 1349.4 527.6 1349.4 527C1349.5 526.4 1349.3 525.9 1348.8 525.5Z" fill="#61656D"/>
<path d="M1348.5 528.2C1348.4 528.1 1348.3 528 1348.1 527.8C1348.3 527.6 1348.4 527.3 1348.4 527C1348.4 526.7 1348.3 526.4 1348.1 526.2C1348.2 526.1 1348.3 526 1348.5 525.8C1349.1 526.5 1349.1 527.5 1348.5 528.2Z" fill="#61656D"/>
<path d="M1159.7 527.1C1159.7 527.6 1159.8 528 1160.1 528.4H1116.8V525.8H1160.1C1159.8 526.1 1159.7 526.6 1159.7 527.1Z" fill="#61656D"/>
<path d="M1163.8 527.1C1163.8 527.7 1163.7 528.3 1163.4 528.8C1162.7 530.1 1161.4 531 1159.8 531C1158.2 531 1156.9 530.1 1156.3 528.8C1156 528.3 1155.9 527.7 1155.9 527.1C1155.9 526.5 1156.1 525.9 1156.3 525.4C1156.9 524.1 1158.3 523.2 1159.8 523.2C1161.4 523.2 1162.7 524.1 1163.3 525.4C1163.7 525.9 1163.8 526.4 1163.8 527.1Z" fill="#61656D"/>
<path d="M1108.2 375.9C1109.58 375.9 1110.7 374.781 1110.7 373.4C1110.7 372.019 1109.58 370.9 1108.2 370.9C1106.82 370.9 1105.7 372.019 1105.7 373.4C1105.7 374.781 1106.82 375.9 1108.2 375.9Z" class="change-color-in-svg" fill="#4D61FC" style="fill: rgb(77, 97, 252);"/>
<path d="M1117.4 375.9C1118.78 375.9 1119.9 374.781 1119.9 373.4C1119.9 372.019 1118.78 370.9 1117.4 370.9C1116.02 370.9 1114.9 372.019 1114.9 373.4C1114.9 374.781 1116.02 375.9 1117.4 375.9Z" fill="#61656D"/>
<path d="M1126.5 375.9C1127.88 375.9 1129 374.781 1129 373.4C1129 372.019 1127.88 370.9 1126.5 370.9C1125.12 370.9 1124 372.019 1124 373.4C1124 374.781 1125.12 375.9 1126.5 375.9Z" fill="#21252B"/>
<path d="M1132.6 665.6H1235.5C1239.5 665.6 1242.7 668.8 1242.7 672.8V808.2C1242.7 812.2 1239.5 815.4 1235.5 815.4H1132.6C1128.6 815.4 1125.4 812.2 1125.4 808.2V672.8C1125.4 668.9 1128.6 665.6 1132.6 665.6Z" fill="#B1B5BA"/>
<path d="M1129.2 665.6H1232.1C1236.1 665.6 1239.3 668.8 1239.3 672.8V808.2C1239.3 812.2 1236.1 815.4 1232.1 815.4H1129.2C1125.2 815.4 1122 812.2 1122 808.2V672.8C1122 668.9 1125.2 665.6 1129.2 665.6Z" fill="white"/>
<path d="M1205.1 741.3H1156.1C1154.1 741.3 1152.5 739.7 1152.5 737.7V688.7C1152.5 686.7 1154.1 685.1 1156.1 685.1H1205.1C1207.1 685.1 1208.7 686.7 1208.7 688.7V737.7C1208.7 739.7 1207.1 741.3 1205.1 741.3Z" class="change-color-in-svg" fill="#4D61FC" style="fill: rgb(77, 97, 252);"/>
<path opacity="0.7" d="M1205.1 741.3H1156.1C1154.1 741.3 1152.5 739.7 1152.5 737.7V688.7C1152.5 686.7 1154.1 685.1 1156.1 685.1H1205.1C1207.1 685.1 1208.7 686.7 1208.7 688.7V737.7C1208.7 739.7 1207.1 741.3 1205.1 741.3Z" fill="white"/>
<path d="M1180.5 703.9C1183.26 703.9 1185.5 701.662 1185.5 698.9C1185.5 696.139 1183.26 693.9 1180.5 693.9C1177.74 693.9 1175.5 696.139 1175.5 698.9C1175.5 701.662 1177.74 703.9 1180.5 703.9Z" class="change-color-in-svg" fill="#4D61FC" style="fill: rgb(77, 97, 252);"/>
<path d="M1152.5 737.7V724.2L1171.5 710C1172.3 709.4 1173.3 709.5 1174 710.1L1180.6 715.9L1194 705.4C1194.8 704.8 1195.8 704.8 1196.6 705.5L1208.6 716V737.8C1208.6 739.8 1207 741.4 1205 741.4H1156C1154.1 741.3 1152.5 739.7 1152.5 737.7Z" class="change-color-in-svg" fill="#4D61FC" style="fill: rgb(77, 97, 252);"/>
<path d="M1210.7 763.7H1150.4C1149.4 763.7 1148.6 762.9 1148.6 761.9V758.2C1148.6 757.2 1149.4 756.4 1150.4 756.4H1210.7C1211.7 756.4 1212.5 757.2 1212.5 758.2V761.9C1212.5 762.9 1211.7 763.7 1210.7 763.7Z" class="change-color-in-svg" fill="#4D61FC" style="fill: rgb(77, 97, 252);"/>
<path opacity="0.3" d="M1210.7 763.7H1150.4C1149.4 763.7 1148.6 762.9 1148.6 761.9V758.2C1148.6 757.2 1149.4 756.4 1150.4 756.4H1210.7C1211.7 756.4 1212.5 757.2 1212.5 758.2V761.9C1212.5 762.9 1211.7 763.7 1210.7 763.7Z" fill="white"/>
<path d="M1210.7 781.4H1150.5C1149.5 781.4 1148.7 780.6 1148.7 779.6C1148.7 778.6 1149.5 777.8 1150.5 777.8H1210.7C1211.7 777.8 1212.5 778.6 1212.5 779.6C1212.5 780.6 1211.7 781.4 1210.7 781.4Z" fill="#61656D"/>
<path d="M1199.9 795.9H1161.3C1160.3 795.9 1159.5 795.1 1159.5 794.1C1159.5 793.1 1160.3 792.3 1161.3 792.3H1199.9C1200.9 792.3 1201.7 793.1 1201.7 794.1C1201.8 795 1200.9 795.9 1199.9 795.9Z" fill="#61656D"/>
<path d="M581.9 256.1H848.2C853 256.1 856.8 260 856.8 264.7V410.6C856.8 415.4 852.9 419.2 848.2 419.2H581.9C577.1 419.2 573.3 415.3 573.3 410.6V264.7C573.3 260 577.1 256.1 581.9 256.1Z" class="change-color-in-svg" fill="#4D61FC" style="fill: rgb(77, 97, 252);"/>
<path opacity="0.2" d="M581.9 256.1H848.2C853 256.1 856.8 260 856.8 264.7V410.6C856.8 415.4 852.9 419.2 848.2 419.2H581.9C577.1 419.2 573.3 415.3 573.3 410.6V264.7C573.3 260 577.1 256.1 581.9 256.1Z" fill="white"/>
<path d="M577.8 256.1H844.1C848.9 256.1 852.7 260 852.7 264.7V410.6C852.7 415.4 848.8 419.2 844.1 419.2H577.8C573 419.2 569.2 415.3 569.2 410.6V264.7C569.1 260 573 256.1 577.8 256.1Z" class="change-color-in-svg" fill="#4D61FC" style="fill: rgb(77, 97, 252);"/>
<path opacity="0.6" d="M577.8 256.1H844.1C848.9 256.1 852.7 260 852.7 264.7V410.6C852.7 415.4 848.8 419.2 844.1 419.2H577.8C573 419.2 569.2 415.3 569.2 410.6V264.7C569.1 260 573 256.1 577.8 256.1Z" fill="white"/>
<path d="M819.8 376.6H752C749.3 376.6 747 374.4 747 371.6V303.8C747 301.1 749.2 298.8 752 298.8H819.8C822.5 298.8 824.8 301 824.8 303.8V371.6C824.7 374.4 822.5 376.6 819.8 376.6Z" class="change-color-in-svg" fill="#4D61FC" style="fill: rgb(77, 97, 252);"/>
<path d="M819.8 376.6H752C749.3 376.6 747 374.4 747 371.6V303.8C747 301.1 749.2 298.8 752 298.8H819.8C822.5 298.8 824.8 301 824.8 303.8V371.6C824.7 374.4 822.5 376.6 819.8 376.6Z" class="change-color-in-svg" fill="#4D61FC" style="fill: rgb(77, 97, 252);"/>
<path opacity="0.8" d="M819.8 376.6H752C749.3 376.6 747 374.4 747 371.6V303.8C747 301.1 749.2 298.8 752 298.8H819.8C822.5 298.8 824.8 301 824.8 303.8V371.6C824.7 374.4 822.5 376.6 819.8 376.6Z" fill="white"/>
<path d="M785.6 324.9C789.411 324.9 792.5 321.811 792.5 318C792.5 314.19 789.411 311.1 785.6 311.1C781.789 311.1 778.7 314.19 778.7 318C778.7 321.811 781.789 324.9 785.6 324.9Z" fill="white"/>
<path d="M747 371.7V353L773.3 333.4C774.4 332.6 775.8 332.7 776.8 333.5L785.9 341.5L804.4 327C805.5 326.2 806.9 326.2 808 327.1L824.7 341.7V371.8C824.7 374.5 822.5 376.8 819.7 376.8H752C749.2 376.6 747 374.4 747 371.7Z" class="change-color-in-svg" fill="#4D61FC" style="fill: rgb(77, 97, 252);"/>
<path d="M715.8 308.7H600C598.4 308.7 597.1 307.4 597.1 305.8V301.6C597.1 300 598.4 298.7 600 298.7H715.8C717.4 298.7 718.7 300 718.7 301.6V305.8C718.8 307.4 717.4 308.7 715.8 308.7Z" fill="white"/>
<path d="M716.2 334.9H599.6C598.2 334.9 597 333.8 597 332.3C597 330.9 598.1 329.7 599.6 329.7H716.2C717.6 329.7 718.8 330.8 718.8 332.3C718.8 333.8 717.6 334.9 716.2 334.9Z" class="change-color-in-svg" fill="#4D61FC" style="fill: rgb(77, 97, 252);"/>
<path d="M662.9 376.9H599.6C598.2 376.9 597 375.8 597 374.3C597 372.9 598.1 371.7 599.6 371.7H662.9C664.3 371.7 665.5 372.8 665.5 374.3C665.5 375.8 664.3 376.9 662.9 376.9Z" class="change-color-in-svg" fill="#4D61FC" style="fill: rgb(77, 97, 252);"/>
<path d="M716.2 355.9H599.6C598.2 355.9 597 354.8 597 353.3C597 351.9 598.1 350.7 599.6 350.7H716.2C717.6 350.7 718.8 351.8 718.8 353.3C718.8 354.8 717.6 355.9 716.2 355.9Z" class="change-color-in-svg" fill="#4D61FC" style="fill: rgb(77, 97, 252);"/>
<path opacity="0.2" d="M716.2 334.9H599.6C598.2 334.9 597 333.8 597 332.3C597 330.9 598.1 329.7 599.6 329.7H716.2C717.6 329.7 718.8 330.8 718.8 332.3C718.8 333.8 717.6 334.9 716.2 334.9Z" fill="white"/>
<path opacity="0.2" d="M662.9 376.9H599.6C598.2 376.9 597 375.8 597 374.3C597 372.9 598.1 371.7 599.6 371.7H662.9C664.3 371.7 665.5 372.8 665.5 374.3C665.5 375.8 664.3 376.9 662.9 376.9Z" fill="white"/>
<path opacity="0.2" d="M716.2 355.9H599.6C598.2 355.9 597 354.8 597 353.3C597 351.9 598.1 350.7 599.6 350.7H716.2C717.6 350.7 718.8 351.8 718.8 353.3C718.8 354.8 717.6 355.9 716.2 355.9Z" fill="white"/>
<path d="M1138.6 318.3C1155.39 318.3 1169 304.689 1169 287.9C1169 271.111 1155.39 257.5 1138.6 257.5C1121.81 257.5 1108.2 271.111 1108.2 287.9C1108.2 304.689 1121.81 318.3 1138.6 318.3Z" fill="#DDDDDD"/>
<path d="M1131 283.8H1133.6L1138.7 276.2L1139.1 271.9C1139.2 271.2 1139.9 270.8 1140.5 271.1C1141.6 271.6 1142.7 273.1 1142.8 277.3C1142.8 282 1142.8 282.3 1142.8 282.3L1150.7 282.4C1151.7 282.4 1152.5 283.2 1152.5 284.2C1152.6 287.2 1152.7 293.2 1152.7 296.6C1152.7 298.9 1151.3 301 1149.2 301.6C1148.9 301.7 1148.6 301.7 1148.3 301.7C1146.2 301.7 1135.4 300 1135.4 300H1131V283.8V283.8Z" fill="#858990"/>
<path d="M1123.6 283.8L1125.2 300.2H1129.6V283.8H1123.6Z" fill="#858990"/>
<path d="M887.2 708.4C869.4 708.4 855 694 855 676.2C855 658.4 869.4 644 887.2 644C905 644 919.4 658.4 919.4 676.2C919.4 693.9 905 708.4 887.2 708.4Z" fill="#DDDDDD"/>
<path d="M897.5 662.4C897.3 661.8 896.7 661.4 896.1 661.6C895.5 661.8 895.1 662.4 895.3 663V663.2L872.9 675.3C872.7 674.8 872.1 674.5 871.5 674.7C870.9 674.9 870.5 675.5 870.7 676.1L873.6 685.9C873.8 686.5 874.4 686.9 875 686.7C875.6 686.5 875.9 686 875.8 685.4L879.7 685.1V686.5C879.7 687.9 880.8 689.1 882.3 689.1H888.8C890.2 689.1 891.4 688 891.4 686.5V684.2L901.3 683.5V683.7C901.5 684.3 902.1 684.7 902.7 684.5C903.3 684.3 903.7 683.7 903.5 683.1L897.5 662.4ZM889.6 686.7C889.6 687.1 889.2 687.5 888.8 687.5H882.3C881.9 687.5 881.5 687.1 881.5 686.7V685.1L889.5 684.5V686.7H889.6Z" fill="#858990"/>
<path d="M1339.1 1028.2H206.5C206.1 1028.2 205.9 1028 205.9 1027.6C205.9 1027.2 206.1 1027 206.5 1027H1339.2C1339.6 1027 1339.8 1027.2 1339.8 1027.6C1339.8 1028 1339.4 1028.2 1339.1 1028.2Z" fill="#B2B6BB"/>
<path d="M291 853.5L285.3 994.3" stroke="#21252B" stroke-width="0.7353" stroke-miterlimit="10" stroke-linecap="round"/>
<path d="M249.6 914.7L274.9 944.4" stroke="#21252B" stroke-width="0.7353" stroke-miterlimit="10" stroke-linecap="round"/>
<path d="M308.5 950L285.7 984.6" stroke="#21252B" stroke-width="0.7353" stroke-miterlimit="10" stroke-linecap="round"/>
<path d="M319.6 891.9L288.2 927.8" stroke="#21252B" stroke-width="0.7353" stroke-miterlimit="10" stroke-linecap="round"/>
<path d="M317.481 911.176C324.925 902.427 327.175 892.114 322.506 888.142C317.837 884.169 308.018 888.041 300.574 896.79C293.13 905.539 290.88 915.852 295.549 919.824C300.218 923.797 310.037 919.925 317.481 911.176Z" class="change-color-in-svg" fill="#4D61FC" style="fill: rgb(77, 97, 252);"/>
<path opacity="0.3" d="M322.8 888.5L295.4 919.7C295.5 919.7 295.5 919.8 295.6 919.8C300.3 923.8 310.1 919.9 317.5 911.2C324.8 902.7 327.1 892.7 322.8 888.5Z" fill="black"/>
<path d="M264.734 932.216C268.352 929.224 266.719 921.279 261.087 914.469C255.456 907.66 247.958 904.565 244.34 907.557C240.723 910.548 242.356 918.494 247.987 925.303C253.619 932.113 261.116 935.208 264.734 932.216Z" class="change-color-in-svg" fill="#4D61FC" style="fill: rgb(77, 97, 252);"/>
<path opacity="0.3" d="M244.1 907.8L264.8 932.1L264.7 932.2C261.1 935.2 253.6 932.1 247.9 925.3C242.5 918.7 240.8 910.9 244.1 907.8Z" fill="black"/>
<path d="M253.4 955L280.1 975.8" stroke="#21252B" stroke-width="0.7353" stroke-miterlimit="10" stroke-linecap="round"/>
<path d="M271.75 969.064C274.682 965.399 271.465 957.952 264.565 952.433C257.664 946.914 249.693 945.411 246.761 949.077C243.829 952.743 247.046 960.189 253.947 965.708C260.847 971.228 268.818 972.73 271.75 969.064Z" class="change-color-in-svg" fill="#4D61FC" style="fill: rgb(77, 97, 252);"/>
<path opacity="0.3" d="M246.6 949.4L271.8 969L271.7 969.1C268.8 972.8 260.8 971.3 253.9 965.8C247.2 960.4 244 953.1 246.6 949.4Z" fill="black"/>
<path d="M301.433 864.087C301.954 852.611 297.502 843.087 291.488 842.813C285.474 842.54 280.176 851.622 279.655 863.098C279.133 874.574 283.586 884.098 289.6 884.372C295.613 884.645 300.911 875.563 301.433 864.087Z" class="change-color-in-svg" fill="#4D61FC" style="fill: rgb(77, 97, 252);"/>
<path opacity="0.3" d="M279.7 863.2C280.2 851.8 285.5 842.7 291.5 843L289.6 884.5C283.6 884.1 279.2 874.6 279.7 863.2Z" fill="black"/>
<path d="M310.928 963.064C315.927 955.248 316.472 946.668 312.145 943.901C307.818 941.134 300.258 945.226 295.259 953.042C290.26 960.859 289.715 969.438 294.042 972.206C298.368 974.973 305.929 970.88 310.928 963.064Z" class="change-color-in-svg" fill="#4D61FC" style="fill: rgb(77, 97, 252);"/>
<path opacity="0.3" d="M295.3 953C290.4 960.6 289.8 969 293.8 971.9L312.1 943.9L311 943.4C306.7 941.8 299.9 945.8 295.3 953Z" fill="black"/>
<path d="M282.8 992.6L267.2 895.4" stroke="#21252B" stroke-width="0.7353" stroke-miterlimit="10" stroke-linecap="round"/>
<path d="M268.678 909.007C274.022 908.152 277.031 899.192 275.4 888.994C273.768 878.796 268.113 871.223 262.769 872.078C257.424 872.933 254.415 881.893 256.047 892.091C257.678 902.288 263.334 909.862 268.678 909.007Z" class="change-color-in-svg" fill="#4D61FC" style="fill: rgb(77, 97, 252);"/>
<path opacity="0.3" d="M256 892.1C254.4 881.9 257.4 872.9 262.7 872L268.6 909C263.3 910 257.6 902.4 256 892.1Z" fill="black"/>
<path d="M275.9 1027H294.6C298.1 1027 300.9 1024.2 300.9 1020.7V995.9H269.5V1020.7C269.6 1024.2 272.4 1027 275.9 1027Z" fill="#868A91"/>
<path d="M301.7 992.6H268.9C268 992.6 267.2 993.3 267.2 994.3C267.2 995.2 267.9 996 268.9 996H301.7C302.6 996 303.4 995.3 303.4 994.3C303.3 993.4 302.6 992.6 301.7 992.6Z" fill="#868A91"/>
<path d="M301 995.9H272.4C271.5 995.9 270.7 995.2 270.7 994.2C270.7 993.3 271.4 992.5 272.4 992.5H268.9C268 992.5 267.2 993.2 267.2 994.2C267.2 995.1 267.9 995.9 268.9 995.9H269.6V996.4V1020.6C269.6 1024.1 272.4 1026.9 275.9 1026.9H285.9C286 1026.9 286.1 1026.9 286.1 1026.9C281.7 1026.9 277.8 1023.8 277 1019.4L272.5 996.3H301V995.9Z" fill="#61656D"/>
<path d="M837.5 437C836.7 437.6 836.5 438.6 837 439.4L844.7 452.6L844 452C843 450.9 841.3 450.9 840.2 451.9C839.1 452.9 839 454.5 839.9 455.6L841.5 457.6L840.9 456.9C839.9 455.8 838.2 455.7 837.2 456.7C836.2 457.7 836.2 459.3 837.1 460.3L838.6 461.9L837.4 460.7C836.5 459.8 835.1 459.7 834.2 460.6C833.4 461.3 833.2 462.6 833.8 463.5L841 476.5C842.9 479.9 845.6 482.9 848.8 485.2L854.9 497.3L871.3 487.4L863.8 476.5L857.7 461.8C857.1 459.8 856.1 458 854.9 456.3L840 437.4C839.5 436.5 838.3 436.3 837.5 437Z" fill="#966363"/>
<g opacity="0.15">
<path opacity="0.15" d="M839.8 468.8C839.2 468.8 838.7 468.6 838.2 468.2L834.8 465.1L833.9 463.4L839.1 467.2C839.5 467.5 840 467.6 840.4 467.3C840.6 467.1 840.8 466.9 840.8 466.6C840.8 466.3 840.8 466 840.6 465.8L836.6 460.6L837.1 460.2L843.1 465.2C843.5 465.6 844.2 465.7 844.6 465.3C844.9 465.1 845.1 464.8 845.1 464.5C845.2 464.2 845.1 463.9 844.9 463.6L840.7 457.2L841.3 456.8L846 462.8C846 462.8 846 462.9 846.1 462.9L846.6 463.5C847 464.1 847.9 464.3 848.5 463.8L849.5 463.1L848.7 464.4C848.7 464.4 848.7 464.4 848 465.4C847.5 465.5 846.9 465.3 846.4 465.1C846.2 465.6 845.9 466.1 845.4 466.4C844.4 467.1 843.1 466.9 842.2 466.1L842 465.9C842.1 466.2 842.1 466.4 842 466.7C841.9 467.3 841.6 467.9 841.1 468.3C840.8 468.7 840.3 468.8 839.8 468.8Z" fill="black"/>
</g>
<path d="M850.7 464.3L846.5 464.6C843.4 464.6 841.1 462.6 840.6 459.9V459.8C840.5 459 841.3 458.7 841.5 458.7L854.2 456.5" fill="#966363"/>
<path opacity="0.15" d="M854.3 457L841.6 459.2C841.4 459.2 841.2 459.5 841.2 459.7C841.7 462.3 844.1 464 846.7 463.9L850.5 463.6C850.5 463.6 846.9 466.1 847.5 471.3" stroke="black" stroke-width="1.3154" stroke-miterlimit="10"/>
<g opacity="0.15">
<path opacity="0.15" d="M846.7 457.7L844.4 452.8L844.9 452.5L848.1 457.4L846.7 457.7Z" fill="black"/>
</g>
<path d="M869.5 483.1L853.7 494.5L850.6 488.8L865.9 478.5L869.5 483.1Z" fill="white"/>
<path d="M1172 542.1L1174.6 532.8C1175.7 528.9 1177.5 525.3 1179.8 522.1L1184.3 516C1184.5 515.7 1184.8 515.7 1185.1 515.9C1186.7 517.2 1187.3 519.4 1186.4 521.3L1182.9 528.9L1201.8 513.1C1202.6 512.5 1203.7 512.5 1204.3 513.2C1204.9 513.9 1205 514.9 1204.3 515.6L1195.1 526.5L1208.6 513.9C1209.3 513.2 1210.4 513.2 1211.1 513.9C1211.9 514.6 1211.9 515.8 1211.2 516.6L1199.1 530.3L1210.1 520.4C1210.8 519.7 1211.9 519.8 1212.6 520.5C1213.3 521.2 1213.3 522.3 1212.6 523.1L1202.7 533.8L1211.8 526.9C1212.4 526.4 1213.4 526.4 1213.9 527C1214.5 527.6 1214.5 528.6 1213.9 529.2L1202.6 541.2C1198.6 545.5 1193.9 549.2 1188.8 552.2L1187.7 552.8L1167.6 570.5L1154.1 555.1L1172 542.1Z" fill="#966363"/>
<path d="M986.8 1014.9L935.4 1016.2L955.9 1001.6C959.3 999.1 961.3 995.5 961.4 991.3L962.3 975L990.2 975.1L986.8 1014.9Z" fill="#966363"/>
<path opacity="0.15" d="M981.1 996.1V995.8C981.3 994 980 992.4 978.3 992.2L961.6 989.8L961.8 986.6H989.5L987 1013.8L964.6 1011.3L972 1008.4C977 1006.3 980.6 1001.6 981.1 996.1Z" fill="black"/>
<path d="M1079.3 1013.9H1056.2L1051.9 974.8L1079.2 974.9L1079.3 1013.9Z" fill="#966363"/>
<path opacity="0.15" d="M1073.5 1007.3L1072.9 995.3C1072.8 993.7 1071.6 992.5 1070.1 992.2L1053.5 989.7L1053.1 986.4L1079.1 986.5L1079.2 1014.2L1073.5 1007.3Z" fill="black"/>
<path d="M1075.7 680.5L1080.8 986.5H1050.8L1024.7 725.9C1024.5 724.2 1023.1 722.9 1021.4 722.9C1019.7 722.9 1018.3 724.2 1018.2 725.9L990.4 986.5H960.4L967.3 680.5H1075.7Z" class="change-color-in-svg" fill="#4D61FC" style="fill: rgb(77, 97, 252);"/>
<path opacity="0.2" d="M1075.7 680.5L1080.8 986.5H1050.8L1024.7 725.9C1024.5 724.2 1023.1 722.9 1021.4 722.9C1019.7 722.9 1018.3 724.2 1018.2 725.9L990.4 986.5H960.4L967.3 680.5H1075.7Z" fill="white"/>
<path d="M1081.6 986.5H1049.6L1049 980H1081.5L1081.6 986.5Z" class="change-color-in-svg" fill="#4D61FC" style="fill: rgb(77, 97, 252);"/>
<path opacity="0.15" d="M1081.6 986.5H1068.2L1067.9 980H1081.5L1081.6 986.5Z" fill="black"/>
<path opacity="0.15" d="M972.4 982.9L1002 736.8C1002.9 728.9 1009.7 722.9 1017.6 722.9H1021.3C1019.6 722.9 1018.2 724.2 1018.1 725.9L990.5 985.1L972.4 982.9Z" fill="black"/>
<path d="M991.1 986.5H959.2L959.7 980H991.8L991.1 986.5Z" class="change-color-in-svg" fill="#4D61FC" style="fill: rgb(77, 97, 252);"/>
<path opacity="0.15" d="M991.1 986.5H972.1L972.8 980H991.8L991.1 986.5Z" fill="black"/>
<path opacity="0.15" d="M1075.7 680.5L1080.9 979.8L1068 979.9L1061.8 666.9L1075.7 680.5Z" fill="black"/>
<path d="M1001.7 467.2C996.2 467 991.9 462.3 992.2 456.9C992.4 451.4 997.1 447.1 1002.5 447.4C1002.8 447.4 1003.6 447.2 1003.5 447.5C1001.3 456.1 1003.9 467.2 1001.7 467.2Z" fill="#21252B"/>
<path d="M1045.9 506.5C1045.9 507 1033.5 534.2 1024.4 534.6C1016.5 535 1011.5 509.4 1011.6 508.9L1012.2 495.6V488.7C1011.8 487.1 1009.9 485.6 1009.9 483.5C1009.3 473.8 1008.2 465 1008.2 465C1008.2 465 1039.9 443.8 1041.9 468.5L1042.7 472.1L1045.9 506.5Z" fill="#966363"/>
<path d="M1003.4 436C1003.4 436 992.1 494.3 1019 497.1C1042.3 499.5 1043.8 463.2 1043.8 463.2L1042 439.8L1023.9 433.2L1003.4 436Z" fill="#966363"/>
<path d="M1011.1 449.9C1013.8 446.1 1018.3 443.3 1023.1 443.4C1028.5 443.5 1032.9 447.8 1032.4 454.1L1032.3 455.5C1032.2 456.8 1033.2 458 1034.5 458.1C1037 458.2 1039 460.2 1038.9 462.7L1038.8 466.8C1038.8 467.3 1039.2 467.7 1039.7 467.7C1039.7 467.7 1040.9 467.9 1041.1 466.9L1041.7 462.5L1037.5 437.7L1016.9 432.3L1008.3 439.6L1011.1 449.9Z" fill="#21252B"/>
<path opacity="0.15" d="M1042.7 472.2C1042.7 472.2 1041.1 472.1 1039.8 470L1043 475.5L1042.7 472.2Z" fill="black"/>
<path opacity="0.15" d="M1034.3 491.5C1032.2 494 1028.7 497.1 1023.1 497.9C1019 500.8 1014.5 501.4 1012 501.3L1012.3 494.7L1013.2 495.2C1016.1 496.7 1020.3 497.7 1025 496.4C1029.1 495.3 1031.8 492.9 1033.5 490.8C1033.6 490.6 1034 490.6 1034.2 490.7C1034.4 491 1034.4 491.3 1034.3 491.5Z" fill="black"/>
<path d="M1013.6 481.5L1024.3 479C1024.3 479 1024.6 483.2 1020.3 484.4C1015.2 485.7 1013.6 481.5 1013.6 481.5Z" fill="white"/>
<path d="M1023.1 467.7C1024.32 467.7 1025.3 466.715 1025.3 465.5C1025.3 464.285 1024.32 463.3 1023.1 463.3C1021.89 463.3 1020.9 464.285 1020.9 465.5C1020.9 466.715 1021.89 467.7 1023.1 467.7Z" fill="#21252B"/>
<path d="M1022.1 465.3C1022.32 465.3 1022.5 465.121 1022.5 464.9C1022.5 464.679 1022.32 464.5 1022.1 464.5C1021.88 464.5 1021.7 464.679 1021.7 464.9C1021.7 465.121 1021.88 465.3 1022.1 465.3Z" fill="white"/>
<path d="M1006 468.3C1007.22 468.3 1008.2 467.315 1008.2 466.1C1008.2 464.885 1007.22 463.9 1006 463.9C1004.79 463.9 1003.8 464.885 1003.8 466.1C1003.8 467.315 1004.79 468.3 1006 468.3Z" fill="#21252B"/>
<path d="M1005.1 465.8C1005.32 465.8 1005.5 465.621 1005.5 465.4C1005.5 465.179 1005.32 465 1005.1 465C1004.88 465 1004.7 465.179 1004.7 465.4C1004.7 465.621 1004.88 465.8 1005.1 465.8Z" fill="white"/>
<g opacity="0.3">
<path opacity="0.3" d="M1013.8 478.2L1016.6 478.3C1016.9 478.3 1017.2 478 1017.3 477.7C1017.3 477.4 1017 477.1 1016.7 477L1013.9 476.9C1013.2 476.8 1012.6 476.2 1012.7 475.6C1012.8 474.9 1013.4 474.3 1014 474.4C1014.3 474.4 1014.6 474.1 1014.7 473.8C1014.8 473.5 1014.4 473.2 1014.1 473.1C1012.7 473.1 1011.5 474.1 1011.4 475.5C1011.3 477 1012.4 478.1 1013.8 478.2Z" fill="black"/>
</g>
<path d="M996.7 463.9L996.8 466.3C996.9 470.9 1000.8 474.6 1005.5 474.5C1010.1 474.4 1013.8 470.5 1013.7 465.8L1013.6 463.4C1013.6 462.7 1013.4 462 1012.9 461.5L1016.2 461.4C1015.8 461.9 1015.5 462.6 1015.6 463.3L1015.7 465.7C1015.8 470.3 1019.7 474 1024.4 473.9C1029 473.8 1032.7 469.9 1032.6 465.2L1032.5 462.8C1032.4 461.1 1031 459.7 1029.3 459.8L1018.7 460.1H1018.6L1010.4 460.3H1009.1L999.7 460.6C998 460.7 996.7 462.2 996.7 463.9ZM1018.5 461.4L1029.2 461.1C1030.2 461.1 1031.1 461.9 1031.1 462.9L1031.2 465.3C1031.3 469.3 1028.1 472.5 1024.2 472.7C1020.2 472.8 1017 469.6 1016.8 465.7L1016.7 463.3C1016.8 462.3 1017.6 461.5 1018.5 461.4ZM997.9 463.9C997.9 462.9 998.7 462 999.7 462L1009.1 461.7H1010.4C1011.4 461.7 1012.3 462.5 1012.3 463.5L1012.4 465.9C1012.5 469.9 1009.3 473.1 1005.4 473.3C1001.4 473.4 998.2 470.2 998 466.3L997.9 463.9Z" fill="#21252B"/>
<path d="M916.9 1023.4V1022.3C916.9 1018.6 919.9 1015.7 923.5 1015.7H932.7C934.6 1015.7 936.5 1015 937.9 1013.6L961.4 991.3L968.7 1000.9C971.1 1004.1 976 1004.2 978.5 1001.1C979.7 999.7 981.5 998.8 983.3 998.8H988.2V1023L916.9 1023.4Z" fill="#3F4249"/>
<path d="M916.9 1023.4V1027H988.4V1023L916.9 1023.4Z" fill="black"/>
<path d="M966.1 997.3L950.2 1010.2C948.4 1011.6 945.9 1011.5 944.3 1009.9L943.1 1008.7L961.4 991.3C962.4 991 963.4 991.4 964 992.2L965.9 994.9C966.4 995.5 966.5 996.3 966.2 997.1L966.1 997.3Z" fill="black"/>
<path d="M1059.2 996.2H1057.3C1055.5 996.2 1054 997.5 1053.8 999.3L1053.4 1006.5C1053.3 1008.7 1052.7 1010.9 1051.7 1012.9L1051 1014.2C1049.7 1016.7 1049.1 1019.5 1049.1 1022.3V1023.6H1085.7C1085.7 1020 1084.6 1016.6 1082.6 1013.6C1081.1 1011.4 1080.2 1008.9 1079.9 1006.2L1079.1 999C1078.8 997.4 1077.3 996.2 1075.6 996.2H1074.3" fill="#3F4249"/>
<path d="M1085.5 1023.5H1049V1027H1085.5V1023.5Z" fill="black"/>
<path d="M1064 992.9H1069.4C1072.1 992.9 1074.3 995.3 1073.9 998L1072.7 1007.8C1072.3 1010.8 1069.7 1013.1 1066.7 1013.1C1063.6 1013.1 1061 1010.8 1060.7 1007.7L1059.6 997.9C1059.2 995.2 1061.3 992.9 1064 992.9Z" fill="black"/>
<path d="M1057 999.4H1076.4" stroke="white" stroke-width="1.3154" stroke-miterlimit="10" stroke-linecap="round" stroke-linejoin="round"/>
<path d="M1057.6 1004H1075.8" stroke="white" stroke-width="1.3154" stroke-miterlimit="10" stroke-linecap="round" stroke-linejoin="round"/>
<path d="M1058.1 1008.5H1075.3" stroke="white" stroke-width="1.3154" stroke-miterlimit="10" stroke-linecap="round" stroke-linejoin="round"/>
<path d="M947.9 1001.9L955 1008.6" stroke="white" stroke-width="1.3154" stroke-miterlimit="10" stroke-linecap="round" stroke-linejoin="round"/>
<path d="M951.7 998.4L959 1005.3" stroke="white" stroke-width="1.3154" stroke-miterlimit="10" stroke-linecap="round" stroke-linejoin="round"/>
<path d="M955.6 995.1L962.8 1001.9" stroke="white" stroke-width="1.3154" stroke-miterlimit="10" stroke-linecap="round" stroke-linejoin="round"/>
<path opacity="0.3" d="M969.1 686.1H1062.6" stroke="black" stroke-width="1.4907" stroke-miterlimit="10" stroke-linecap="round" stroke-linejoin="round"/>
<path d="M1180.6 560.9L1121.3 617.4C1115.4 623 1105.8 621.7 1101.7 614.7L1080.8 575.3L1077.4 678C1077.4 679.4 1076.2 680.5 1074.8 680.5H967.2C966.6 680.5 966.1 680 966 679.4L960 553.3L912.4 576.2C906.5 579.1 899.3 576.8 896.1 571L853.3 494.1L869.8 482.7L911.7 534.6L957.1 511.4C960.7 509.6 964.6 508.4 968.6 508.1L1011.9 504L1024.4 527.8L1045.3 504.1L1082.6 514C1090.3 516 1096.7 521.3 1100.2 528.4L1123.7 575.9L1166.1 545.6L1180.6 560.9Z" fill="#21252B"/>
<path opacity="0.15" d="M1182.9 528.7C1182.9 528.7 1188.1 533 1184.4 541.5" stroke="black" stroke-width="1.403" stroke-miterlimit="10"/>
<path d="M1049 447C1048.2 440.7 1044.9 436 1039.4 434.8C1036.9 434.3 1034.5 434.5 1032.4 435.1C1031.5 435.4 1030.6 434.8 1030.4 434C1029.3 429.8 1025.6 426.7 1021.1 426.7C1017.9 426.7 1015.1 428.2 1013.4 430.6C1012.8 431.4 1011.8 431.5 1011.1 430.9C1011.1 430.9 1004.7 425.8 996.3 431C990.7 434.5 988.3 442.1 991.6 448.7C995 455.4 1003.8 457.4 1009.2 452.3C1011.1 450.5 1012.6 447.8 1012.9 443.8C1013.1 441.5 1013 439.2 1012.3 437.2H1015.1C1018.4 437 1023.6 436.4 1028.5 437.1C1028.4 437.2 1028.3 437.2 1028.2 437.3L1036.9 440.2C1036.9 440.2 1039.6 463.2 1041 463C1047.1 461.7 1049.8 452.7 1049 447Z" fill="#21252B"/>
<path d="M1004.5 456.2L1007.2 455.6C1007.4 455.5 1007.7 455.2 1007.6 454.9C1007.5 454.6 1007.2 454.4 1006.9 454.5L1004.2 455.1C1003.9 455.2 1003.5 455.2 1003.2 455.3C1002.5 455.3 1001.1 455.3 999.7 454.8C999.4 454.7 999.1 454.9 999 455.2C998.9 455.5 999.1 455.8 999.4 455.9C1000.9 456.3 1002.5 456.4 1003.2 456.4C1003.6 456.3 1004 456.2 1004.5 456.2Z" fill="#966363"/>
<path d="M1023 528.6L1014.7 521.1L1025.2 519.4L1035.2 521.9L1026.1 528.7C1025.1 529.5 1023.8 529.4 1023 528.6Z" fill="white"/>
<path d="M1025.2 519.4L1041.2 523.4L1048.7 505L1048.3 499.9C1048.2 499.2 1047.6 498.7 1046.9 498.7H1045.2L1045.7 503.9L1025.2 519.4Z" fill="white"/>
<path d="M1011.9 504L1012.1 499.7H1010.8C1009.9 499.7 1009.2 500.4 1009.2 501.2L1009 522L1025.2 519.3L1011.9 504Z" fill="white"/>
<path opacity="0.15" d="M1038.7 523.1L1025.1 519.7L1010.7 522.1" stroke="black" stroke-width="0.7398" stroke-miterlimit="10"/>
<path d="M1171.2 542.7L1184.3 556.1L1180 560.3L1166.6 546.1L1171.2 542.7Z" fill="white"/>
<path d="M1041.7 460.5C1041.7 460.5 1042.6 456.2 1047.2 457.5C1052.4 459 1051.5 469.5 1044.6 471.9C1040.3 472.8 1040.9 470.2 1041.2 466.7C1041.7 460.5 1041.7 460.5 1041.7 460.5Z" fill="#966363"/>
<path opacity="0.3" d="M1047.8 460.4C1046.9 459.9 1046 459.8 1045.3 460.1C1044.6 460.4 1044 460.9 1043.6 461.8C1043.2 462.7 1043 463.8 1043.2 464.9V465.8C1043.2 466.1 1043.5 466.3 1043.8 466.2C1044.1 466.2 1044.3 465.9 1044.2 465.6V464.7C1044.2 464.4 1044.1 463 1044.5 462.1C1044.8 461.5 1045.2 461.1 1045.6 460.9C1046 460.8 1046.6 460.8 1047.2 461.1C1047.4 461.2 1047.8 461.1 1047.9 460.9C1048.1 460.9 1048 460.6 1047.8 460.4Z" fill="black"/>
<path opacity="0.4" d="M1123.7 575.9L1119.3 567L1116.1 577.8C1115.7 579.2 1117.2 580.3 1118.4 579.5L1123.7 575.9Z" fill="black"/>
<path opacity="0.4" d="M911.7 534.6L914.2 537.5C915 538.4 916.4 538.4 917.2 537.5L927 526.8L911.7 534.6Z" fill="black"/>
<path d="M960.1 553.3L963.5 551.7C964 551.4 964.6 552 964.3 552.5L960.4 561.1L960.1 553.3Z" fill="black"/>
<path d="M964 636.9H1078.9L1077.6 677.9C1077.6 679.4 1076.3 680.6 1074.8 680.6H967.2C966.6 680.6 966.1 680.1 966 679.5L964 636.9Z" fill="#858990"/>
<path d="M961.6 586.3H1080.5L1078.9 636.9H964L961.6 586.3Z" fill="#3F4249"/>
<path opacity="0.4" d="M1080.9 575.3L1078.6 570C1077.4 567.4 1073.6 568 1073.3 570.9L1062.6 680.6H1074.7C1076.3 680.6 1077.6 679.3 1077.6 677.8L1080.9 575.3Z" fill="black"/>
<path d="M385.7 873.8L343.7 698.7C342.4 693.4 346.4 688.4 351.9 688.4H340.5C335.1 688.4 331.1 693.5 332.3 698.7L374.3 873.8L510.7 874.1L385.7 873.8Z" fill="#858990"/>
<path d="M412.4 859.3L380.3 716.5C380.2 716 379.7 715.6 379.2 715.6H377.3C377.8 715.7 378.1 716 378.2 716.4L410.3 859.2C410.5 859.9 409.9 860.6 409.2 860.6H407.6C407.7 860.6 407.7 860.6 407.8 860.6L411.2 860.5C412 860.7 412.6 860 412.4 859.3Z" fill="#858990"/>
<path d="M475.5 694.7C474.6 691 471.2 688.3 467.4 688.3H351.9C346.5 688.3 342.5 693.4 343.7 698.6L385.7 873.7L519.7 874L475.5 694.7ZM411.3 860.7L407.9 860.8C407.4 860.8 406.9 860.4 406.8 859.9L374.7 717C374.5 716.3 375.1 715.7 375.8 715.7H379.3C379.8 715.7 380.3 716.1 380.4 716.6L412.5 859.4C412.6 860 412 860.7 411.3 860.7Z" fill="#B1B5BA"/>
<path d="M475.8 691.9C477 692.7 478.7 692.8 480.5 692.5C487.9 691.3 493.5 690.3 494.1 682.8C494.9 671 492.4 644.9 483 630C476.6 633.3 475.6 634.8 475.6 634.8C475.6 634.8 466.1 631.9 465.9 631.8C465.9 631.7 462.8 683.4 475.8 691.9Z" fill="#21252B"/>
<path d="M452.5 684.3L447.2 621.4C444 620.9 438.9 625.1 437.4 626.8C425.4 640.5 422.5 668.8 424.2 687.7C424.8 695 429.5 696 436.7 697.4C443.9 698.8 452.3 699.5 455.4 695.9C456.9 694 452.5 684.3 452.5 684.3Z" fill="#21252B"/>
<path d="M633.3 815C632.1 806.9 625.3 801.1 617.3 801H608.6L605.2 801.8V802.3L531.2 811.7C521.9 812.9 514.3 819.5 511.9 828.7L460.3 1027H472.7L523.5 831.7C524.6 827.4 528.2 824.2 532.7 823.6L616.4 812.9C618.8 812.6 621 814.2 621.4 816.6L653.4 1026.8H665.6L633.3 815Z" fill="#B1B5BA"/>
<path d="M464.9 1027H452.5L504 828.7C506.4 819.6 513.9 812.9 523.3 811.7L607 801C615.9 799.9 624 806 625.4 814.9L657.7 1027H645.5L613.5 816.8C613.1 814.4 611 812.8 608.5 813.1L524.8 823.8C520.4 824.4 516.8 827.5 515.6 831.9L464.9 1027Z" fill="#858990"/>
<path d="M666 885.9H484.7C481.4 885.9 478.7 883.2 478.7 879.9C478.7 876.6 481.4 873.9 484.7 873.9H666C669.3 873.9 672 876.6 672 879.9C672.1 883.2 669.4 885.9 666 885.9Z" fill="#B1B5BA"/>
<path d="M522.5 885.9H367.7C364.4 885.9 361.7 883.2 361.7 879.9C361.7 876.6 364.4 873.9 367.7 873.9H522.4C525.7 873.9 528.4 876.6 528.4 879.9C528.5 883.2 525.8 885.9 522.5 885.9Z" fill="#858990"/>
<path d="M545.8 877.8C546.6 880.3 545.9 882.6 544.4 884.1C543.3 885.2 541.8 885.9 540.1 885.9H367.7C366.9 885.9 366.2 885.8 365.5 885.5L368.5 873.8H540C542.6 873.8 545 875.4 545.8 877.8Z" fill="#858990"/>
<path d="M724.1 1027H760.7C761.3 1025.9 763 1022.6 760.9 1021.9L736 1011.2C731.6 1009.7 728.6 1008.7 726 1005.4C725.5 1004.7 725 1003.9 724.7 1003.1L705.3 959.1L681.4 970.6L701.7 1005.8C703.5 1008.4 703.9 1011.8 704 1014.9L704.1 1019.9C704.3 1023.7 707.3 1026.7 711 1026.8H711.1L724.1 1027Z" fill="#F69797"/>
<path opacity="0.15" d="M761.4 1025.4C761.1 1026.1 760.8 1026.7 760.6 1027.1H724L710.9 1026.9H710.8C707 1026.8 704 1023.7 703.9 1020L703.8 1015C703.7 1011.9 703.2 1008.4 701.5 1005.9L694.2 993.3L694.6 989.8L704 998.5L712.7 1014.8C712.7 1014.8 719.4 1023.9 739.4 1024.7C759.4 1025.4 759.4 1025.4 759.4 1025.4H761.4Z" fill="black"/>
<path d="M719.8 991.9L698.5 1000.7L685 978.7C652.3 930.2 644.4 914.6 631.4 874.1H514.7C498.4 874.1 485.2 861 484.9 844.8L484.6 826.2H636.2C645.8 826.2 654.5 832 658.2 840.9L719.8 991.9Z" fill="#3F4249"/>
<path opacity="0.2" d="M682.9 959.4C657.1 915 650.4 878.6 638.2 841.9C637.4 839.4 633.5 826.1 618.6 826.1H556C540.6 825.7 532 849.4 519.2 840.9L487.8 826.1H484.7L485 844.7C485.3 861 498.5 874 514.8 874H631.5C645.5 915.8 652.5 930.4 685.1 978.6L698.6 1000.5L704.1 998.2C704 998.4 687.6 967.4 682.9 959.4Z" fill="black"/>
<path d="M733.1 1010.2L726.6 1011.2C718.5 1012.5 710.1 1011.3 702.6 1008L704 1022.8C704.3 1025.2 706.3 1027 708.8 1027H762.3C764.9 1027 765.5 1023.4 763 1022.6L733.1 1010.2Z" class="change-color-in-svg" fill="#4D61FC" style="fill: rgb(77, 97, 252);"/>
<path opacity="0.2" d="M764.2 1026L719.3 1023.3C715.8 1023.1 712.9 1018.4 711.8 1015L710.5 1010.7C707.8 1010.1 705.1 1009.2 702.6 1008.1L704 1022.9C704.3 1025.3 706.3 1027.1 708.8 1027.1H762.3C763.2 1027 763.9 1026.6 764.2 1026Z" fill="black"/>
<path d="M677.2 1027H713.8C714.4 1025.9 716.1 1022.6 714 1021.9L689.1 1011.2C684.7 1009.7 681.7 1008.7 679.1 1005.4C678.6 1004.7 678.1 1003.9 677.8 1003.1L658.4 959.1L634.5 970.6L654.8 1005.8C656.6 1008.4 657 1011.8 657.1 1014.9L657.2 1019.9C657.4 1023.7 660.4 1026.7 664.1 1026.8H664.2L677.2 1027Z" fill="#F69797"/>
<path opacity="0.15" d="M714.5 1025.4C714.2 1026.1 713.9 1026.7 713.7 1027.1H677.1L664 1026.9H663.9C660.1 1026.8 657.1 1023.7 657 1020L656.9 1015C656.8 1011.9 656.3 1008.4 654.6 1005.9L647.3 993.3L647.7 989.8L658.8 997.8L665.8 1014.8C665.8 1014.8 672.5 1023.9 692.5 1024.7C712.5 1025.4 712.5 1025.4 712.5 1025.4H714.5Z" fill="black"/>
<path d="M641.5 635.1L652.2 631.3C653.3 631 654.2 630.5 655.1 629.8L665.5 622.3C665.7 622.1 665.8 621.8 665.6 621.5C664.1 619.8 661.6 619.2 659.6 620.2L655.5 622C654.5 622.4 653.4 622.4 652.4 621.8C651.4 621.2 650.7 620.1 650.7 619L650.1 606.6C650.1 606.1 650.2 605.5 650.5 605L657 594.3C657.6 593.3 657.2 592 656.2 591.5C655.4 591.1 654.5 591.3 653.9 591.9C651.1 594.8 643.4 602.9 643.4 602.9L642.4 612.8L650.1 595.9L642.1 602C639.1 604.3 636.9 607.4 635.6 610.9L630.3 626L602.5 650.6L591.6 689L641.5 635.1Z" fill="#F69797"/>
<path opacity="0.15" d="M643.5 603.4V603.3L647.7 597.6L649.8 596L644.3 603.8L642.3 609.5L641.5 609.2L643.5 603.4Z" fill="black"/>
<path opacity="0.15" d="M642.6 608.8L644.3 603.8L649.8 596L641.8 602.1C638.8 604.4 636.6 607.5 635.3 611C635.4 611.1 637.9 608.7 642.6 608.8Z" fill="black"/>
<path opacity="0.15" d="M642.2 601.9L639.3 606.1L638.2 610.4H637.4L638.5 605.3C638.5 605.3 639.7 603.8 640.6 603.1L642.2 601.9Z" fill="black"/>
<path d="M499 690L570.7 679.4L621.7 633.5L624.4 678L580.6 701.9C579.4 702.6 578.1 703.1 576.8 703.4L504.2 722" class="change-color-in-svg" fill="#4D61FC" style="fill: rgb(77, 97, 252);"/>
<path d="M510.8 688.4L469.7 733.6L420.8 704.2L444 697.2C444.2 697.1 444.4 697.1 444.6 697C447.1 695.9 448.5 693.1 448.1 690.4L445.5 666.8L469.8 655.3L475.4 679.3L476.3 683.2L477.6 688.6C478.3 691.5 481.1 692.7 483.8 692.4L510.8 688.4Z" fill="#F69797"/>
<path d="M672.9 991.9L651.6 1000.7L638.1 978.8C605.4 930.3 597.5 914.7 584.5 874.2H467.8C451.5 874.2 438.3 861.1 438 844.9L437.7 826.3H589.3C598.9 826.3 607.6 832.1 611.3 841L672.9 991.9Z" fill="#3F4249"/>
<path opacity="0.2" d="M638.1 959.1C612.3 914.7 611.3 902.9 599.7 866C596.5 855.8 589.2 853.6 584 853.6L518 853.9C502.6 853.5 475.9 855.1 463.2 846.5L441 826.2H437.9L438.2 844.8C438.5 861.1 451.7 874.1 468 874.1H584.7C598.7 915.9 605.7 930.5 638.3 978.7L651.8 1000.6L659 997.6C658.9 997.7 642.7 967.1 638.1 959.1Z" fill="black"/>
<path d="M408.6 708.2L435.9 699.4L441.8 703.8C457.6 715.7 480.2 710.5 489.2 692.9L490 691.3L532.9 684.9V704.2V712.6L504.3 722L501.7 717.3L509.9 731.3C514.3 738.7 514.7 747.8 511.1 755.6L508.6 761C508 762.3 507.7 763.6 507.8 765L508.6 782C509 790.8 511.9 799.3 516.9 806.6L530.2 826.1H525.2C506.6 826.1 488.3 831.2 472.3 840.9L447.5 855.9C439.5 860.8 429.6 853.6 431.7 844.4L432.7 840.1C436.5 824 436.9 807.3 434.1 791.1L424.3 745L395.7 746L393.9 739.4C389.9 726.5 395.6 712.4 408.6 708.2Z" class="change-color-in-svg" fill="#4D61FC" style="fill: rgb(77, 97, 252);"/>
<path d="M474.9 821.8L475.3 821.4C474.3 820.4 474.3 818.7 475.3 817.7L474.9 817.3C473.9 818.3 472.2 818.3 471.2 817.3L470.8 817.7C471.8 818.7 471.8 820.4 470.8 821.4L471.2 821.8C472.2 820.7 473.9 820.7 474.9 821.8Z" class="change-color-in-svg" fill="#4D61FC" style="fill: rgb(77, 97, 252);"/>
<path opacity="0.3" d="M426.1 739C426.9 738.8 427.8 739.4 427.9 740.2L434.9 767.4C435.8 771.3 438.4 776.4 441.9 778.5C450 783.4 459.3 779.4 459.3 779.4C460.6 778.9 461.9 780 461.6 781.3L458.9 792.7C450.8 815.1 453.1 840.1 463.2 846.5L447.7 855.9C439.7 860.8 429.8 853.6 431.9 844.4L432.9 840.1C436.7 824 437.1 807.3 434.3 791.1L424.9 740.9C424.6 740 425.2 739.2 426.1 739Z" fill="black"/>
<path d="M516.7 821.8L517.1 821.4C516.1 820.4 516.1 818.7 517.1 817.7L516.7 817.3C515.7 818.3 514 818.3 513 817.3L512.6 817.7C513.6 818.7 513.6 820.4 512.6 821.4L513 821.8C514 820.7 515.6 820.7 516.7 821.8Z" class="change-color-in-svg" fill="#4D61FC" style="fill: rgb(77, 97, 252);"/>
<path opacity="0.3" d="M508.5 761C505.9 765.4 501.2 768.1 496.1 768L508 770.5L507.7 765C507.7 765 507.6 762.7 508.5 761Z" fill="black"/>
<path opacity="0.3" d="M623.7 665.8L576.9 696.1L501.8 713.7C500.5 714.1 500 715.7 500.8 716.8L504.3 722.1L577.6 703.3C578.5 703.1 579.4 702.7 580.2 702.3L624.6 678.1L623.7 665.8Z" fill="black"/>
<path d="M548 818.3L537.3 808.8C535.9 807.6 535.1 807.3 533.3 807.1L516 808.6L487.4 806.6L477.4 820L502.3 821.6L504.7 822.5C508.7 824.1 513.2 824 517.1 822.1H517.2L520.5 820.5C521.3 820.1 522.3 820.1 523.1 820.4L531.6 823.9C532 824.1 532.5 824 532.9 823.7C533.6 823.2 533.6 822 532.9 821.5L526.6 816.8L536 823.6C536.4 823.9 537 824 537.5 823.8C538.5 823.4 538.8 822.1 538 821.3L531.3 814.7L540.1 823.3C540.6 823.7 541.2 823.9 541.8 823.6C542.9 823.2 543.2 821.8 542.5 821L535.9 813.2L546 820.6C546.7 821.2 547.8 821 548.3 820.3C548.7 820 548.7 818.9 548 818.3Z" fill="#F69797"/>
<path opacity="0.15" d="M532.8 822C532.7 822 532.7 822 532.6 821.9L526.8 817.6C526.7 817.5 526.6 817.3 526.7 817.2C526.8 817.1 527 817 527.1 817.1L532.9 821.4C533 821.5 533.1 821.7 533 821.8C532.9 821.9 532.8 822 532.8 822Z" fill="black"/>
<path opacity="0.15" d="M537.7 821.8C537.6 821.8 537.5 821.8 537.5 821.7L531.2 815.5C531.1 815.4 531.1 815.2 531.2 815.1C531.3 815 531.5 815 531.6 815.1L537.9 821.3C538 821.4 538 821.6 537.9 821.7C537.9 821.8 537.8 821.8 537.7 821.8Z" fill="black"/>
<path opacity="0.15" d="M524.8 819.5C526.7 820.5 530 822.1 531.1 822.8C532.7 823.7 533.2 822.5 533.2 822.5C533.3 823 533.1 823.6 532.7 823.9C532.3 824.2 531.8 824.2 531.4 824.1L522.9 820.6C522.1 820.3 521.1 820.3 520.3 820.7L522 819.7C522.9 819.1 523.9 819.1 524.8 819.5Z" fill="black"/>
<path d="M394.8 742.7L413.6 811.1C414.9 815.6 418.5 819.2 423.1 820.4L473.1 833.8L495.4 806.6L438.1 798.2L424.3 740L394.8 742.7Z" class="change-color-in-svg" fill="#4D61FC" style="fill: rgb(77, 97, 252);"/>
<path opacity="0.3" d="M453.7 800.5L453.9 799.6L512.5 808.1L512.4 808.5L453.7 800.5Z" fill="black"/>
<path opacity="0.15" d="M486.5 817.4L503.2 819.3C504.5 819.4 505.8 819.9 506.9 820.6C508.5 821.6 511.5 823 515.4 822.9C515.4 822.9 509.7 825.4 502.3 821.7L483.2 820.6L486.5 817.4Z" fill="black"/>
<path d="M686.2 1010.2L679.7 1011.2C671.6 1012.5 663.2 1011.3 655.7 1008L657.1 1022.8C657.4 1025.2 659.4 1027 661.9 1027H715.4C718 1027 718.6 1023.4 716.1 1022.6L686.2 1010.2Z" class="change-color-in-svg" fill="#4D61FC" style="fill: rgb(77, 97, 252);"/>
<path opacity="0.2" d="M717.4 1026L672.5 1023.3C669 1023.1 666.1 1018.4 665 1015L663.7 1010.7C661 1010.1 658.3 1009.2 655.8 1008.1L657.2 1022.9C657.5 1025.3 659.5 1027.1 662 1027.1H715.5C716.4 1027 717 1026.6 717.4 1026Z" fill="black"/>
<path d="M616 647.6C616.773 647.6 617.4 646.973 617.4 646.2C617.4 645.427 616.773 644.8 616 644.8C615.227 644.8 614.6 645.427 614.6 646.2C614.6 646.973 615.227 647.6 616 647.6Z" fill="#F4F4F4"/>
<path d="M602.1 681.8C602.873 681.8 603.5 681.173 603.5 680.4C603.5 679.627 602.873 679 602.1 679C601.327 679 600.7 679.627 600.7 680.4C600.7 681.173 601.327 681.8 602.1 681.8Z" fill="#F4F4F4"/>
<path d="M564 691.2C564.773 691.2 565.4 690.573 565.4 689.8C565.4 689.027 564.773 688.4 564 688.4C563.227 688.4 562.6 689.027 562.6 689.8C562.6 690.573 563.227 691.2 564 691.2Z" fill="#F4F4F4"/>
<path d="M531.4 712.3C532.173 712.3 532.8 711.673 532.8 710.9C532.8 710.127 532.173 709.5 531.4 709.5C530.627 709.5 530 710.127 530 710.9C530 711.673 530.627 712.3 531.4 712.3Z" fill="#F4F4F4"/>
<path d="M490.8 723.2C491.573 723.2 492.2 722.573 492.2 721.8C492.2 721.027 491.573 720.4 490.8 720.4C490.027 720.4 489.4 721.027 489.4 721.8C489.4 722.573 490.027 723.2 490.8 723.2Z" fill="#F4F4F4"/>
<path d="M503.7 758C504.473 758 505.1 757.373 505.1 756.6C505.1 755.827 504.473 755.2 503.7 755.2C502.927 755.2 502.3 755.827 502.3 756.6C502.3 757.373 502.927 758 503.7 758Z" fill="#F4F4F4"/>
<path d="M464.5 748.1C465.273 748.1 465.9 747.473 465.9 746.7C465.9 745.927 465.273 745.3 464.5 745.3C463.727 745.3 463.1 745.927 463.1 746.7C463.1 747.473 463.727 748.1 464.5 748.1Z" fill="#F4F4F4"/>
<path d="M470.6 808C471.373 808 472 807.373 472 806.6C472 805.827 471.373 805.2 470.6 805.2C469.827 805.2 469.2 805.827 469.2 806.6C469.2 807.373 469.827 808 470.6 808Z" fill="#F4F4F4"/>
<path d="M493.7 827.5C494.473 827.5 495.1 826.873 495.1 826.1C495.1 825.327 494.473 824.7 493.7 824.7C492.927 824.7 492.3 825.327 492.3 826.1C492.3 826.873 492.927 827.5 493.7 827.5Z" fill="#F4F4F4"/>
<path d="M497.5 788.3C498.273 788.3 498.9 787.673 498.9 786.9C498.9 786.127 498.273 785.5 497.5 785.5C496.727 785.5 496.1 786.127 496.1 786.9C496.1 787.673 496.727 788.3 497.5 788.3Z" fill="#F4F4F4"/>
<path d="M461.6 781.9C462.373 781.9 463 781.273 463 780.5C463 779.727 462.373 779.1 461.6 779.1C460.827 779.1 460.2 779.727 460.2 780.5C460.2 781.273 460.827 781.9 461.6 781.9Z" fill="#F4F4F4"/>
<path d="M402.6 716.5C403.373 716.5 404 715.873 404 715.1C404 714.327 403.373 713.7 402.6 713.7C401.827 713.7 401.2 714.327 401.2 715.1C401.2 715.873 401.827 716.5 402.6 716.5Z" fill="#F4F4F4"/>
<path d="M447.4 715.1C448.173 715.1 448.8 714.473 448.8 713.7C448.8 712.927 448.173 712.3 447.4 712.3C446.627 712.3 446 712.927 446 713.7C446 714.473 446.627 715.1 447.4 715.1Z" fill="#F4F4F4"/>
<path d="M409.1 772.6C409.873 772.6 410.5 771.973 410.5 771.2C410.5 770.427 409.873 769.8 409.1 769.8C408.327 769.8 407.7 770.427 407.7 771.2C407.7 771.973 408.327 772.6 409.1 772.6Z" fill="#F4F4F4"/>
<path d="M424.5 742.3C425.273 742.3 425.9 741.673 425.9 740.9C425.9 740.127 425.273 739.5 424.5 739.5C423.727 739.5 423.1 740.127 423.1 740.9C423.1 741.673 423.727 742.3 424.5 742.3Z" fill="#F4F4F4"/>
<path d="M435.3 796.8C436.073 796.8 436.7 796.173 436.7 795.4C436.7 794.627 436.073 794 435.3 794C434.527 794 433.9 794.627 433.9 795.4C433.9 796.173 434.527 796.8 435.3 796.8Z" fill="#F4F4F4"/>
<path d="M439.7 848.6C440.473 848.6 441.1 847.973 441.1 847.2C441.1 846.427 440.473 845.8 439.7 845.8C438.927 845.8 438.3 846.427 438.3 847.2C438.3 847.973 438.927 848.6 439.7 848.6Z" fill="#F4F4F4"/>
<path d="M455.1 821.9C455.873 821.9 456.5 821.273 456.5 820.5C456.5 819.727 455.873 819.1 455.1 819.1C454.327 819.1 453.7 819.727 453.7 820.5C453.7 821.273 454.327 821.9 455.1 821.9Z" fill="#F4F4F4"/>
<path d="M510.8 692.6C511.573 692.6 512.2 691.973 512.2 691.2C512.2 690.427 511.573 689.8 510.8 689.8C510.027 689.8 509.4 690.427 509.4 691.2C509.4 691.973 510.027 692.6 510.8 692.6Z" fill="#F4F4F4"/>
<path opacity="0.3" d="M399.2 730.2L417.5 797.9C419.7 805.6 426.1 810.2 434.5 811.6L486.6 817.4L473.1 833.8L423.3 820.5C418.6 819.2 414.9 815.6 413.6 810.9L394 739.3C390.4 725.4 395.7 712.3 408.7 708.1C399.9 711.8 396.9 721.1 399.2 730.2Z" fill="black"/>
<path d="M388.5 877.1L398.7 838H400.1L390.1 877.1H388.5Z" fill="#858990"/>
<path opacity="0.3" d="M508 873.8L509.8 885.9H503.8L502.1 873.8H508Z" fill="black"/>
<path opacity="0.3" d="M363.5 875.6C364.6 874.5 366.1 873.8 367.8 873.8H368.6L365.6 885.5" fill="black"/>
<path d="M503 822.7H564.4C564.9 822.7 565.3 823.1 565.3 823.6V825.2C565.3 825.7 564.9 826.1 564.4 826.1H503C502.5 826.1 502.1 825.7 502.1 825.2V823.6C502.1 823.1 502.4 822.7 503 822.7Z" fill="#21252B"/>
<path opacity="0.6" d="M503 822.7H564.4C564.9 822.7 565.3 823.1 565.3 823.6V825.2C565.3 825.7 564.9 826.1 564.4 826.1H503C502.5 826.1 502.1 825.7 502.1 825.2V823.6C502.1 823.1 502.4 822.7 503 822.7Z" fill="black"/>
<path d="M544.4 822.7H651.5C652 822.7 652.4 823.1 652.4 823.6V825.2C652.4 825.7 652 826.1 651.5 826.1H544.4C543.9 826.1 543.5 825.7 543.5 825.2V823.6C543.5 823.1 543.9 822.7 544.4 822.7Z" fill="#21252B"/>
<g opacity="0.6">
<path opacity="0.6" d="M650.1 823.3H541.1C540.9 823.3 540.8 823.2 540.8 823C540.8 822.8 540.9 822.7 541.1 822.7H650.1C650.3 822.7 650.4 822.8 650.4 823C650.4 823.2 650.2 823.3 650.1 823.3Z" fill="black"/>
</g>
<path d="M544.2 822.7H560.3C561.5 822.7 562.6 821.8 562.9 820.6L576.4 749.5C576.7 747.9 575.5 746.4 573.8 746.4H557.7C556.5 746.4 555.4 747.3 555.1 748.5L541.6 819.6C541.4 821.3 542.5 822.7 544.2 822.7Z" fill="#21252B"/>
<path opacity="0.6" d="M544.2 822.7H560.3C561.5 822.7 562.6 821.8 562.9 820.6L576.4 749.5C576.7 747.9 575.5 746.4 573.8 746.4H557.7C556.5 746.4 555.4 747.3 555.1 748.5L541.6 819.6C541.4 821.3 542.5 822.7 544.2 822.7Z" fill="black"/>
<path d="M546.5 822.7H650.1C651.3 822.7 652.4 821.8 652.7 820.6L666.2 749.5C666.5 747.9 665.3 746.4 663.6 746.4H560C558.8 746.4 557.7 747.3 557.4 748.5L544 819.6C543.7 821.3 544.8 822.7 546.5 822.7Z" fill="#21252B"/>
<path opacity="0.6" d="M605.6 782.6C605 784 605.7 785.3 607.1 785.3C607.2 785.3 607.3 785.3 607.3 785.3C605.6 787.2 603.1 788.5 600.8 788.4C597.7 788.3 596.3 785.8 597.7 782.8C599 779.7 602.6 777.4 605.7 777.4C607.6 777.5 608.9 778.5 609.3 780C607.9 780.1 606.3 781.1 605.6 782.6Z" fill="black"/>
<path d="M510.1 815C508.9 806.9 502.1 801.1 494.1 801H485.4L482 801.8V802.3L408 811.7C398.7 812.9 391.1 819.5 388.7 828.7L337.1 1027H349.5L400.3 831.7C401.4 827.4 405 824.2 409.5 823.6L493.2 812.9C495.6 812.6 497.8 814.2 498.2 816.6L530.2 1026.8H542.4L510.1 815Z" fill="#B1B5BA"/>
<path d="M341.6 1027H329.2L380.8 828.7C383.2 819.6 390.7 812.9 400.1 811.7L483.8 801C492.7 799.9 500.8 806 502.2 814.9L534.5 1027H522.3L490.3 816.8C489.9 814.4 487.8 812.8 485.3 813.1L401.6 823.8C397.2 824.4 393.6 827.5 392.4 831.9L341.6 1027Z" fill="#858990"/>
<path d="M470.6 682.7L469.2 683C458.8 685.2 448.1 677.9 445.9 667.5L440.2 641.2C439.5 637.7 441.7 634.3 445.1 633.6L469.7 628.3C474.2 627.3 478.6 630.2 479.6 634.7L484.9 659.2C487.1 669.5 481.5 680.7 470.6 682.7Z" fill="#F69797"/>
<path d="M467.9 668.9L468.8 669.8C471.2 672.1 475.2 671.1 476.4 668L476.9 666.6C477 666.3 476.8 666 476.5 666.1L468.1 668.3C467.8 668.3 467.7 668.7 467.9 668.9Z" fill="white"/>
<path d="M463 658C464.16 658 465.1 657.06 465.1 655.9C465.1 654.74 464.16 653.8 463 653.8C461.84 653.8 460.9 654.74 460.9 655.9C460.9 657.06 461.84 658 463 658Z" fill="#21252B"/>
<path d="M464 657C464.221 657 464.4 656.821 464.4 656.6C464.4 656.379 464.221 656.2 464 656.2C463.779 656.2 463.6 656.379 463.6 656.6C463.6 656.821 463.779 657 464 657Z" fill="white"/>
<path d="M478.9 655.5C480.06 655.5 481 654.56 481 653.4C481 652.24 480.06 651.3 478.9 651.3C477.74 651.3 476.8 652.24 476.8 653.4C476.8 654.56 477.74 655.5 478.9 655.5Z" fill="#21252B"/>
<path d="M480 654.4C480.221 654.4 480.4 654.221 480.4 654C480.4 653.779 480.221 653.6 480 653.6C479.779 653.6 479.6 653.779 479.6 654C479.6 654.221 479.779 654.4 480 654.4Z" fill="white"/>
<g opacity="0.3">
<path opacity="0.3" d="M473.7 663.7L471 664.4C470.7 664.5 470.3 664.3 470.3 664C470.2 663.7 470.4 663.3 470.7 663.3L473.4 662.6C474.1 662.4 474.5 661.7 474.3 661.1C474.1 660.4 473.4 660 472.8 660.2C472.5 660.3 472.1 660.1 472.1 659.8C472 659.5 472.2 659.1 472.5 659.1C473.8 658.8 475.2 659.6 475.5 660.9C475.8 662.1 475 663.4 473.7 663.7Z" fill="black"/>
</g>
<path d="M486.8 640.4H487.9C479.5 612.5 449.4 612.7 437.3 626.9C430 635.5 426.9 649.5 426.9 649.5C429.3 654.7 435.9 658.8 438 662.4C438.9 664 440.8 656.5 442.1 655.5C442.3 655.4 443.9 657 445 658.1C445.7 658.8 446.9 658.5 447 657.5C447.5 654 447.3 650.4 446.6 647L445.9 643.9C452.6 641.7 472.8 633.8 477.3 632.3C478.4 631.9 479.4 633.6 479.7 634.7L483 650L485.8 642.7L486.8 640.4Z" fill="#21252B"/>
<path d="M447.4 668.3C447.4 668.3 438.7 671.3 434.6 663C430.4 654.7 440.9 650.3 444.8 658.7L448.5 668L447.4 668.3Z" fill="#F69797"/>
<path opacity="0.3" d="M436.1 657.6C436.9 656.7 437.7 656.2 438.6 656.2C439.5 656.2 440.4 656.5 441.2 657.4C442 658.2 442.7 659.3 443.1 660.6L443.4 661.5C443.6 662.2 442.5 662.7 442.2 661.9C441.9 660.9 441.9 660.9 441.9 660.9C441.8 660.6 441.2 659 440.4 658.3C439.8 657.7 439.2 657.5 438.7 657.5C438.2 657.5 437.6 657.9 437 658.5C436.8 658.7 436.4 658.8 436.2 658.6C435.9 658.3 435.9 657.9 436.1 657.6Z" fill="black"/>
<path d="M479.1 644.7C476.6 645.3 474.6 647.1 473.6 649.3C471.2 648.9 469.3 649.7 468.5 650.2C466.5 647.9 463.3 646.8 460.2 647.5C455.7 648.6 453 653.2 454.1 657.6C455.2 662.1 459.8 664.8 464.2 663.7C468.7 662.6 471.4 658 470.3 653.6C470.1 652.7 469.7 651.8 469.2 651.1C469.9 650.7 471.4 650.1 473.3 650.3C472.9 651.7 472.8 653.3 473.2 654.8C474.3 659.3 478.9 662 483.3 660.9C487.8 659.8 490.5 655.2 489.4 650.8C488.1 646.3 483.6 643.6 479.1 644.7ZM463.9 662.7C460 663.7 456 661.3 455.1 657.4C454.1 653.5 456.5 649.5 460.4 648.6C464.3 647.6 468.3 650 469.2 653.9C470.2 657.7 467.8 661.7 463.9 662.7ZM482.9 659.8C479 660.8 475 658.4 474.1 654.5C473.1 650.6 475.5 646.6 479.4 645.7C483.3 644.7 487.3 647.1 488.2 651C489.2 654.9 486.8 658.8 482.9 659.8Z" fill="white"/>
<path d="M444.3 667.6C445.294 667.6 446.1 666.794 446.1 665.8C446.1 664.806 445.294 664 444.3 664C443.306 664 442.5 664.806 442.5 665.8C442.5 666.794 443.306 667.6 444.3 667.6Z" class="change-color-in-svg" fill="#4D61FC" style="fill: rgb(77, 97, 252);"/>
<path opacity="0.15" d="M445.2 667.1C444.1 667.4 443.1 666.7 442.8 665.7C442.7 665.3 442.7 664.9 442.8 664.6C442.4 665 442.3 665.6 442.4 666.2C442.6 667.2 443.6 667.8 444.6 667.5C445 667.4 445.3 667.2 445.5 666.9C445.5 667.1 445.4 667.1 445.2 667.1Z" fill="black"/>
<path opacity="0.15" d="M445.6 668.7L448.7 668L446.3 675.7L445.6 668.7Z" fill="black"/>
<path d="M479.6 634.6C462.7 630.6 465.5 655.9 448 652.5C431.6 649.3 446.4 629.5 446.4 629.5L460.9 626.9L480.4 629.3L479.6 634.6Z" fill="#21252B"/>
<path d="M450.1 653.6C450.1 653.6 448.1 653.7 445.1 652.2" stroke="#F69797" stroke-width="1.2986" stroke-miterlimit="10" stroke-linecap="round"/>
<path opacity="0.15" d="M476.2 682.6L475.8 680.9H475.7C475.7 680.9 470.8 682.9 465.3 682.1C465 682.1 464.7 682.3 464.6 682.6C464.6 682.9 464.8 683.2 465.1 683.3C466.1 683.4 467 683.5 467.9 683.5C468.7 683.5 469.4 683.5 470.1 683.4C471 684.1 473.2 685.5 476.7 684.7L476.2 682.6Z" fill="black"/>
<path d="M445.6 668.7C445.6 668.7 448.6 685.4 457.4 696.7C457.4 696.7 445.6 699.5 436.5 697.4C428.1 695.5 445.6 668.7 445.6 668.7Z" fill="#21252B"/>
<path d="M468.5 353.4V603.6L230.4 599.3L230.2 439.6L324.1 353.4H468.5Z" fill="#EAEAEA"/>
<path opacity="0.2" d="M397.7 358.8L304 598.1H274.5L369.9 358.8H397.7Z" fill="white"/>
<path opacity="0.2" d="M356.5 358.8L262.7 598.1H252.9L348.3 358.8H356.5Z" fill="white"/>
<path d="M215.6 609H474V348H330L318.3 358.9V598.2H215.4L215.6 609ZM463.1 598.1H329.2V358.8H463.1V598.1Z" fill="white"/>
<path d="M310.6 365.8H463.1V361.8H315L310.6 365.8Z" fill="white"/>
<path d="M303 372.7H463.1V368.7H307.4L303 372.7Z" fill="white"/>
<path d="M295.4 379.7H463.1V375.7H299.8L295.4 379.7Z" fill="white"/>
<path d="M287.8 386.7H463.1V382.7H292.2L287.8 386.7Z" fill="white"/>
<path d="M280.3 393.7H463.1V389.7H284.6L280.3 393.7Z" fill="white"/>
<path d="M272.6 400.6H463.1V396.6H277L272.6 400.6Z" fill="white"/>
<path d="M457.9 470H458.1V358.8H459.1V470H459.3C460.1 470 460.7 470.6 460.7 471.4V486.9C460.7 487.7 460.1 488.3 459.3 488.3H458C457.2 488.3 456.6 487.7 456.6 486.9V471.4C456.5 470.6 457.1 470 457.9 470Z" fill="white"/>
<path d="M460.933 365.729L463.033 365.729L463.033 361.729L460.933 361.729L460.933 365.729Z" fill="#DDDDDD"/>
<path d="M460.933 372.77L463.033 372.77L463.033 368.77L460.933 368.77L460.933 372.77Z" fill="#DDDDDD"/>
<path d="M460.933 379.71L463.033 379.71L463.033 375.71L460.933 375.71L460.933 379.71Z" fill="#DDDDDD"/>
<path d="M460.933 386.65L463.033 386.65L463.033 382.65L460.933 382.65L460.933 386.65Z" fill="#DDDDDD"/>
<path d="M460.933 393.69L463.033 393.69L463.033 389.69L460.933 389.69L460.933 393.69Z" fill="#DDDDDD"/>
<path d="M460.933 400.63L463.033 400.63L463.033 396.63L460.933 396.63L460.933 400.63Z" fill="#DDDDDD"/>
<path d="M318.255 367.419L329.155 367.419L329.155 365.719L318.255 365.719L318.255 367.419Z" fill="#DDDDDD"/>
<path d="M318.255 374.46L329.155 374.46L329.155 372.76L318.255 372.76L318.255 374.46Z" fill="#DDDDDD"/>
<path d="M318.255 381.4L329.155 381.4L329.155 379.7L318.255 379.7L318.255 381.4Z" fill="#DDDDDD"/>
<path d="M318.255 388.34L329.155 388.34L329.155 386.64L318.255 386.64L318.255 388.34Z" fill="#DDDDDD"/>
<path d="M318.255 395.38L329.155 395.38L329.155 393.68L318.255 393.68L318.255 395.38Z" fill="#DDDDDD"/>
<path d="M318.255 402.321L329.155 402.321L329.155 400.621L318.255 400.621L318.255 402.321Z" fill="#DDDDDD"/>
</svg>