<svg class="gridItem__media" version="1.1" id="Layer_1" xmlns="http://www.w3.org/2000/svg" xmlns:xlink="http://www.w3.org/1999/xlink" x="0px" y="0px" width="1600" height="1200" viewBox="0 0 1600 1200" style="enable-background:new 0 0 1600 1200;" xml:space="preserve" fill="none">
<path d="M1346.1 1027.7L1381.9 507.5C1382.9 493.4 1378.4 479.5 1369.4 468.6L1138.3 189.6C1126.8 175.8 1109.3 168.4 1091.4 169.9L417 225.7C395.4 227.5 376.8 241.8 369.6 262.3L222.1 681.6C219.1 690.2 218.2 699.4 219.6 708.4L269.5 1026.9L1346.1 1027.7Z" fill="#F4F4F4"/>
<path d="M498.1 690.4H397V753.2H498.1V690.4Z" fill="#B2B6BB"/>
<path d="M498.1 690.4H476.6V753.2H498.1V690.4Z" fill="#61656D"/>
<path d="M347.999 695.601L331.699 615.201L332.199 615.101L348.499 695.501L347.999 695.601Z" fill="#3F4249"/>
<path d="M352.557 588.036L350.416 692.515L350.916 692.525L353.057 588.046L352.557 588.036Z" fill="#3F4249"/>
<path d="M376.473 607.326L351.565 638.626L351.957 638.937L376.865 607.637L376.473 607.326Z" fill="#3F4249"/>
<path d="M360.7 715.6L358.2 711.9C355.7 708.2 354.4 703.8 354.4 699.3V690.4H344.8V699.3C344.8 703.8 343.5 708.2 341 711.9L338.5 715.6C333.3 723.4 331.7 733.1 334 742.2L336.8 753.2H362.4L365.2 742.2C367.5 733.1 365.8 723.4 360.7 715.6Z" fill="#868A91"/>
<path d="M360.7 715.6L358.2 711.9C355.7 708.2 354.4 703.8 354.4 699.3V690.4H351.6V698.5C351.6 703.5 353.1 708.4 355.8 712.6C360 720.3 360 729.1 358.5 736.3C357.6 740.6 355.9 744.7 353.6 748.4L351.7 751.5C351 752.6 349.8 753.3 348.5 753.3H362.5L365.3 742.3C367.5 733.1 365.8 723.4 360.7 715.6Z" fill="#61656D"/>
<path d="M371.447 639.389L341.817 663.975L342.137 664.359L371.766 639.773L371.447 639.389Z" fill="#3F4249"/>
<path d="M345.599 683.6L319.399 658.8L319.699 658.5L345.999 683.201L345.599 683.6Z" fill="#3F4249"/>
<path d="M361.8 626.101L365.9 608.101C367.4 601.701 375 599.001 380.2 603.101C385.3 607.201 384.4 615.301 378.5 618.101L361.8 626.101Z" class="change-color-in-svg" fill="#4D61FC" style="fill: rgb(77, 97, 252);"/>
<path opacity="0.3" d="M361.8 626.101L365.9 608.101C367.4 601.701 375 599.001 380.2 603.101C385.3 607.201 384.4 615.301 378.5 618.101L361.8 626.101Z" fill="white"/>
<path d="M383.499 610.201C383.499 613.401 381.699 616.601 378.399 618.101L361.699 626.101L380.099 603.101C382.499 604.901 383.599 607.601 383.499 610.201Z" class="change-color-in-svg" fill="#4D61FC" style="fill: rgb(77, 97, 252);"/>
<path d="M352.299 618.1L340.499 593.7C336.299 585 342.599 574.9 352.299 574.9C361.899 574.9 368.299 585 364.099 593.7L352.299 618.1Z" class="change-color-in-svg" fill="#4D61FC" style="fill: rgb(77, 97, 252);"/>
<path opacity="0.3" d="M352.299 618.1L340.499 593.7C336.299 585 342.599 574.9 352.299 574.9C361.899 574.9 368.299 585 364.099 593.7L352.299 618.1Z" fill="white"/>
<path opacity="0.3" d="M352.9 575L352.3 618.1L364.1 593.701C368.2 585.201 362.2 575.3 352.9 575Z" fill="white"/>
<path d="M339.2 650.6L322 630.2C315.9 622.9 319.5 611.7 328.7 609.4C337.9 607.1 346.4 615.2 344.5 624.5L339.2 650.6Z" class="change-color-in-svg" fill="#4D61FC" style="fill: rgb(77, 97, 252);"/>
<path opacity="0.3" d="M344.6 624.5C346.5 615.2 338 607.1 328.8 609.4L339.3 650.5L344.6 624.5Z" fill="white"/>
<path d="M336.8 674.9L329 655.4C326.2 648.4 317.1 646.8 312.1 652.3C307 657.8 309.5 666.7 316.7 668.9L336.8 674.9Z" class="change-color-in-svg" fill="#4D61FC" style="fill: rgb(77, 97, 252);"/>
<path opacity="0.3" d="M336.8 674.9L329 655.4C326.2 648.4 317.1 646.8 312.1 652.3C307 657.8 309.5 666.7 316.7 668.9L336.8 674.9Z" fill="white"/>
<path opacity="0.3" d="M312.399 651.9L336.799 674.9L328.999 655.4C326.299 648.6 317.499 646.9 312.399 651.9Z" fill="white"/>
<path d="M349.8 657.8L358.3 637.2C361.3 629.9 371 628.2 376.3 634.1C381.6 640 378.9 649.4 371.2 651.6L349.8 657.8Z" class="change-color-in-svg" fill="#4D61FC" style="fill: rgb(77, 97, 252);"/>
<path opacity="0.3" d="M349.8 657.8L358.3 637.2C361.3 629.9 371 628.2 376.3 634.1C381.6 640 378.9 649.4 371.2 651.6L349.8 657.8Z" fill="white"/>
<path d="M350.8 683.1L350.6 682.701L391.1 660.5L391.3 660.901L350.8 683.1Z" fill="#3F4249"/>
<path d="M357.3 679.2L372 659.1C377.2 651.9 388.2 652.7 392.3 660.5C396.5 668.3 391 677.8 382.2 678.2L357.3 679.2Z" class="change-color-in-svg" fill="#4D61FC" style="fill: rgb(77, 97, 252);"/>
<path opacity="0.3" d="M357.3 679.2L372 659.1C377.2 651.9 388.2 652.7 392.3 660.5C396.5 668.3 391 677.8 382.2 678.2L357.3 679.2Z" fill="white"/>
<path d="M392.7 671.1C390.9 675 387.1 678.001 382.2 678.201L357.3 679.201L392.3 660.5C394.2 664.1 394.1 667.9 392.7 671.1Z" class="change-color-in-svg" fill="#4D61FC" style="fill: rgb(77, 97, 252);"/>
<path opacity="0.3" d="M358.3 637.2L349.8 657.8L376.3 634.1C371 628.3 361.4 629.9 358.3 637.2Z" fill="white"/>
<path d="M502.301 759.9H569.401C571.301 759.9 572.801 758.4 572.801 756.5C572.801 754.6 571.301 753.1 569.401 753.1H502.301V759.9Z" fill="#B2B6BB"/>
<path d="M560.7 756.6H493V965.1H560.7V756.6Z" fill="#B2B6BB"/>
<path d="M495.1 756.6H288V965.1H495.1V756.6Z" fill="#DADDDF"/>
<path d="M484.6 949.2H297.7V785.6L484.6 785.8V949.2ZM299.2 947.7H483.1V787.3H299.2V947.7Z" fill="#B2B6BB"/>
<path d="M280.3 759.9H502.4C504.3 759.9 505.8 758.4 505.8 756.5C505.8 754.6 504.3 753.1 502.4 753.1H280.3C278.4 753.1 276.9 754.6 276.9 756.5C277 758.4 278.5 759.9 280.3 759.9Z" fill="#DADDDF"/>
<path d="M484.6 866.4H297.7V867.9H484.6V866.4Z" fill="#B2B6BB"/>
<path d="M383.1 811.9C385.972 811.9 388.3 809.572 388.3 806.7C388.3 803.828 385.972 801.5 383.1 801.5C380.229 801.5 377.9 803.828 377.9 806.7C377.9 809.572 380.229 811.9 383.1 811.9Z" fill="#B2B6BB"/>
<path opacity="0.15" d="M385 806.7C385 804.4 383.5 802.5 381.5 801.8C382 801.6 382.6 801.5 383.2 801.5C386.1 801.5 388.4 803.8 388.4 806.7C388.4 809.6 386.1 811.9 383.2 811.9C382.6 811.9 382.1 811.8 381.5 811.6C383.5 810.9 385 809 385 806.7Z" fill="black"/>
<path d="M383.1 892.4C385.972 892.4 388.3 890.072 388.3 887.2C388.3 884.328 385.972 882 383.1 882C380.229 882 377.9 884.328 377.9 887.2C377.9 890.072 380.229 892.4 383.1 892.4Z" fill="#B2B6BB"/>
<path opacity="0.15" d="M385 887.2C385 884.9 383.5 883 381.5 882.3C382 882.1 382.6 882 383.2 882C386.1 882 388.4 884.3 388.4 887.2C388.4 890.1 386.1 892.4 383.2 892.4C382.6 892.4 382.1 892.3 381.5 892.1C383.5 891.4 385 889.5 385 887.2Z" fill="black"/>
<path d="M505.8 766.9L495.1 759.9H288V763.1L505.8 766.9Z" fill="#B2B6BB"/>
<path d="M547.4 965.1L552.6 1022.8C553 1024.9 551.4 1026.9 549.3 1026.9C547.9 1026.9 546.6 1026 546.1 1024.6L531 965.1H547.4Z" fill="#DADDDF"/>
<path d="M545.501 998.7L539.201 997.2L531.101 965.2H547.501L552.701 1022.9C553.001 1024.5 552.101 1026.1 550.701 1026.7L545.501 998.7Z" fill="#B2B6BB"/>
<path d="M488.501 965.1L493.701 1022.8C494.101 1024.9 492.501 1026.9 490.401 1026.9C489.001 1026.9 487.701 1026 487.201 1024.6L472.101 965.1H488.501V965.1Z" fill="#DADDDF"/>
<path d="M483 971.5L473.6 969.7L472 965.1H488.4L493.6 1022.8C493.9 1024.4 493 1026 491.6 1026.6L483 971.5Z" fill="#B2B6BB"/>
<path d="M358.7 965.1L353.5 1022.8C353.1 1024.9 354.7 1026.9 356.8 1026.9C358.2 1026.9 359.5 1026 360 1024.6L375.1 965.1H358.7V965.1Z" fill="#DADDDF"/>
<path d="M361.6 995.8L356 994.4L358.7 965.1H375.1L360 1024.6C359.5 1026 358.2 1026.9 356.8 1026.9C356.7 1026.9 356.7 1026.9 356.6 1026.9L361.6 995.8Z" fill="#B2B6BB"/>
<path d="M298.2 965.1L293 1022.8C292.6 1024.9 294.2 1026.9 296.3 1026.9C297.7 1026.9 299 1026 299.5 1024.6L314.6 965.1H298.2V965.1Z" fill="#DADDDF"/>
<path d="M304.601 970.1L297.401 968.8L298.201 965.1H314.601L299.501 1024.6C299.001 1026 297.701 1026.9 296.301 1026.9C296.201 1026.9 296.201 1026.9 296.101 1026.9L304.601 970.1Z" fill="#B2B6BB"/>
<path d="M440.799 967.2C441.999 971.6 442.199 973.2 442.099 977.5L442.199 1006.5C441.999 1011.5 440.599 1016.5 438.099 1020.9L437.499 1021.9C435.999 1024.5 433.299 1026.1 430.299 1026.1H421.999C418.199 1026.1 414.899 1023.5 413.899 1019.8C412.799 1015.5 412.699 1011 413.499 1006.7L420.499 975.7C420.999 973.1 421.699 970.1 422.999 967.3L440.799 967.2Z" class="change-color-in-svg" fill="#4D61FC" style="fill: rgb(77, 97, 252);"/>
<path d="M553.2 899.1L554.9 953.2C554.9 958.3 556.2 963.7 558.2 966.4L582.4 1008.5L576.8 1016.2L554.9 1005.3L535.4 970.1C535.5 964.1 534.8 960.5 533.8 952.4L524.1 892.7L553.2 899.1Z" fill="#FC9D9D"/>
<path opacity="0.15" d="M554.799 971.8C552.599 968.5 549.699 960.8 549.099 957.2L546.499 937.9C546.299 936.4 545.199 935.3 543.699 935.1L530.399 933.3L530.199 930.4H554.199L554.899 953.4C554.999 957.1 555.699 963 558.199 966.6L582.399 1008.7L578.999 1014.4L554.799 971.8Z" fill="black"/>
<path d="M593.8 1015.6L582.3 1008.6C574 1010 565.6 1006.8 560.2 1000.3L535.3 970.1C530.8 979.7 529.2 990.4 530.7 1001L534.3 1026H537.2L538 1000.3C538.1 998.4 540.4 997.6 541.6 999.1L556.8 1017.7C561.1 1023 567.6 1026.1 574.4 1026.1H598.1C600 1026.1 601.2 1024.2 600.5 1022.5C599.2 1019.4 596.8 1016.9 593.8 1015.6Z" class="change-color-in-svg" fill="#4D61FC" style="fill: rgb(77, 97, 252);"/>
<path d="M441.899 954.1C440.699 964.5 440.099 975 440.299 985.5L440.499 998C440.299 1003.5 435.799 1007.9 430.299 1007.9H428.599C422.399 1007.9 417.599 1002.4 418.499 996.3L421.399 981.5C422.899 974 423.399 966.3 422.999 958.6L420.199 908.1L446.299 908.5L441.899 954.1Z" fill="#FC9D9D"/>
<path d="M523.9 548.4L542.1 590.9L544.2 614.1C546.8 643.4 548.5 672.7 549.3 702.1L555.4 930.3H529.1L480.2 610.6C479.9 608.4 478 606.9 475.8 606.9C473.5 606.9 471.6 608.7 471.4 611L446 930.3L420.1 930.1L408.7 693.9C406.6 650.3 410.7 606.6 420.9 564.2L424.8 548.2L523.9 548.4Z" fill="#3F4249"/>
<path opacity="0.15" d="M444.099 930.3C444.099 930.3 440.999 962.7 440.699 967V967.1C440.299 973.2 440.199 979.3 440.299 985.4L440.499 997.9C440.299 1003.2 436.099 1007.5 430.799 1007.7C435.599 1004 435.199 998 435.299 993.5L436.099 938.6C436.099 936.8 434.899 935.3 433.099 934.9L421.499 932.8L421.399 930.2L444.099 930.3Z" fill="black"/>
<path opacity="0.2" d="M555.3 930.3H544.8L528.1 606.9C506 606.9 497.5 591.4 497.3 578.9C497.1 568.6 499.2 558.4 499.2 548.4L424.6 548.2C424.6 548.2 424.6 548.2 424.6 548.1L499.2 548.3L523.5 548.4H523.8L542 590.9L544.1 614.1C546.7 643.4 548.4 672.7 549.2 702.1L555.3 930.3Z" fill="black"/>
<path d="M455.799 557.4L498.699 557.5C499.899 458.9 503.499 405.8 508.899 383.7L502.599 381.9L454.599 381.5L446.199 383.3C455.499 433.7 455.999 532.6 455.799 557.4Z" fill="white"/>
<path opacity="0.2" d="M448 386.8C456.6 438.3 456 533.2 455.8 557.4H464.7C468.9 492.6 463.7 435 448 386.8Z" fill="black"/>
<path opacity="0.2" d="M424.999 550.7C424.299 554.3 422.399 558.3 419.999 562.5C415.799 576.2 412.299 590.1 409.699 604.2L434.099 603C449.199 603 461.899 591.4 463.199 576.3C463.999 566.8 464.099 566.6 464.599 557.3C464.699 557.4 425.199 549.9 424.999 550.7Z" fill="black"/>
<path d="M524.999 557.5H426.899V566.4H524.999V557.5Z" fill="black"/>
<path d="M476.2 292.3C485.368 292.3 492.8 284.868 492.8 275.7C492.8 266.532 485.368 259.1 476.2 259.1C467.032 259.1 459.6 266.532 459.6 275.7C459.6 284.868 467.032 292.3 476.2 292.3Z" fill="#21252B"/>
<path d="M460.1 279.9C461.3 284.5 464.5 288.6 469.2 290.8C477.5 294.7 487.4 291.1 491.3 282.7C491.6 282.2 491.8 281.6 492 281C485.5 277 471.4 273.4 460.1 279.9Z" class="change-color-in-svg" fill="#4D61FC" style="fill: rgb(77, 97, 252);"/>
<path d="M490.6 352.1C489.8 370 486.6 379.7 496.6 380.2C512.5 380.9 526 367 526.8 349.1C527.6 331.2 515.3 316.2 499.4 315.5C495.1 330.8 491.3 334.3 490.6 352.1Z" fill="#21252B"/>
<path d="M485.727 354.632C487.121 338.731 475.004 324.68 458.664 323.248C442.323 321.815 427.947 333.543 426.552 349.444C425.158 365.344 437.275 379.395 453.615 380.828C469.956 382.261 484.333 370.532 485.727 354.632Z" fill="#21252B"/>
<path d="M451.1 382.3L454 384.7C468 396.5 488.5 396.4 502.4 384.5L504.8 382.4L496.3 380.1C494.8 379.7 493.7 378.4 493.5 376.9L492.2 367L491.2 359.7L487.7 333.3L487.6 332L463.7 337.9L460.2 377.4C460.1 379.1 458.8 380.5 457.2 380.9L451.1 382.3Z" fill="#FC9D9D"/>
<path d="M477 365.2C466.2 365.1 457.4 356.7 456.8 346L454.3 304L500.6 304.3L497.5 346.2C496.8 357 487.8 365.3 477 365.2Z" fill="#FC9D9D"/>
<path d="M477 365.2C466.2 365.1 457.4 356.7 456.8 346L454.3 304L500.6 304.3L497.5 346.2C496.8 357 487.8 365.3 477 365.2Z" fill="#FC9D9D"/>
<path d="M468.2 333.3C469.525 333.3 470.6 332.225 470.6 330.9C470.6 329.575 469.525 328.5 468.2 328.5C466.874 328.5 465.8 329.575 465.8 330.9C465.8 332.225 466.874 333.3 468.2 333.3Z" fill="#21252B"/>
<path d="M469.2 330.9C469.476 330.9 469.7 330.676 469.7 330.4C469.7 330.124 469.476 329.9 469.2 329.9C468.924 329.9 468.7 330.124 468.7 330.4C468.7 330.676 468.924 330.9 469.2 330.9Z" fill="white"/>
<path d="M486.9 333.3C488.225 333.3 489.3 332.225 489.3 330.9C489.3 329.575 488.225 328.5 486.9 328.5C485.575 328.5 484.5 329.575 484.5 330.9C484.5 332.225 485.575 333.3 486.9 333.3Z" fill="#21252B"/>
<path d="M488 330.8C488.276 330.8 488.5 330.576 488.5 330.3C488.5 330.024 488.276 329.8 488 329.8C487.724 329.8 487.5 330.024 487.5 330.3C487.5 330.576 487.724 330.8 488 330.8Z" fill="white"/>
<g opacity="0.3">
<path opacity="0.3" d="M477.9 344.9H475.8C475.4 344.9 475.1 344.6 475.1 344.2C475.1 343.8 475.4 343.5 475.8 343.5H477.9C478.7 343.5 479.4 342.9 479.4 342C479.4 341.2 478.8 340.5 477.9 340.5C477.5 340.5 477.2 340.2 477.2 339.8C477.2 339.4 477.5 339.1 477.9 339.1C479.5 339.1 480.8 340.4 480.8 342C480.8 343.6 479.5 344.9 477.9 344.9Z" fill="black"/>
</g>
<path d="M438.6 328.7C442.2 326.2 440.9 321.5 440.9 321.5C440.3 319.5 439.8 317.3 439.8 315C439.6 309.7 442.1 306.1 443.7 304.4C444.5 303.5 445 302.3 445.2 301C447.4 278.3 480.8 273.1 497.3 286.8C507.4 295.2 509.7 304.5 508.8 313.3C508.8 313.3 508.2 317.2 511.8 319.1L507.4 320.9C505.7 327.4 502.6 330.4 500.9 334.9C497.3 332.5 498.2 322.2 498.2 322.2C488.3 321.1 487 312.3 487 312.3C477.9 331.4 454.8 327.2 454.8 327.2L454.6 332.1C454.6 332.1 445.3 330.2 443.4 326.8L439.7 329.4L438.6 328.7Z" fill="#21252B"/>
<path d="M498.099 339.7C498.099 339.7 505.899 339 506.299 331.1C506.699 323.2 496.999 323.4 496.899 331.3L497.299 339.9L498.099 339.7Z" fill="#FC9D9D"/>
<path opacity="0.3" d="M499.7 329.5C500 328.5 500.6 327.9 501.2 327.6C501.9 327.3 502.6 327.4 503.5 327.8C503.8 327.9 503.9 328.3 503.8 328.6C503.7 328.8 503.6 328.9 503.5 328.9C503.4 329 503.2 329 503.1 328.9C502.5 328.6 502.1 328.5 501.7 328.7C501.4 328.9 501.1 329.2 500.8 329.9C500.6 330.5 500.5 331.4 500.5 332C500.5 332.3 500.2 332.6 499.9 332.6C499.6 332.6 499.3 332.3 499.3 331.9C499.3 331.2 499.4 330.2 499.7 329.5Z" fill="black"/>
<path d="M500.151 338.212C500.814 338.198 501.335 337.47 501.316 336.586C501.297 335.703 500.744 334.998 500.082 335.013C499.419 335.027 498.897 335.755 498.917 336.638C498.936 337.522 499.488 338.226 500.151 338.212Z" class="change-color-in-svg" fill="#4D61FC" style="fill: rgb(77, 97, 252);"/>
<path opacity="0.15" d="M499.699 337.9C500.399 337.9 500.999 337.1 500.899 336.2C500.899 335.9 500.799 335.6 500.699 335.3C500.999 335.6 501.199 336 501.199 336.6C501.199 337.5 500.699 338.2 499.999 338.2C499.699 338.2 499.499 338.1 499.299 337.9C499.499 337.9 499.599 337.9 499.699 337.9Z" fill="black"/>
<path d="M456.1 339.7C456.1 339.7 448.3 339 447.9 331.1C447.5 323.2 457.2 323.4 457.3 331.3L456.9 339.9L456.1 339.7Z" fill="#FC9D9D"/>
<path opacity="0.3" d="M454.599 329.5C454.199 328.5 453.699 327.9 452.999 327.6C452.299 327.3 451.499 327.4 450.599 327.8C450.299 327.9 450.199 328.3 450.299 328.6C450.399 328.8 450.499 328.9 450.599 328.9C450.699 329 450.899 329 450.999 328.9C451.599 328.6 452.099 328.5 452.399 328.7C452.799 328.9 453.099 329.2 453.299 329.9C453.499 330.5 453.599 331.4 453.699 332C453.699 332.3 453.999 332.6 454.299 332.6C454.599 332.6 454.899 332.3 454.899 331.9C455.099 331.2 454.899 330.2 454.599 329.5Z" fill="black"/>
<path d="M455.299 336.568C455.319 335.685 454.797 334.957 454.134 334.942C453.472 334.928 452.919 335.633 452.9 336.516C452.881 337.4 453.402 338.127 454.065 338.142C454.728 338.156 455.28 337.452 455.299 336.568Z" class="change-color-in-svg" fill="#4D61FC" style="fill: rgb(77, 97, 252);"/>
<path opacity="0.15" d="M454.5 337.9C453.8 337.9 453.2 337.1 453.3 336.2C453.3 335.9 453.4 335.6 453.5 335.3C453.2 335.6 453 336 453 336.6C453 337.5 453.5 338.2 454.2 338.2C454.5 338.2 454.7 338.1 454.9 337.9C454.6 337.9 454.6 337.9 454.5 337.9Z" fill="black"/>
<path d="M483.6 348.8C483.9 348.8 484.1 349.1 484 349.4C482.8 351.7 480.5 353.3 477.8 353.3C475.1 353.3 472.8 351.7 471.6 349.4C471.5 349.1 471.6 348.8 472 348.8H483.6Z" fill="white"/>
<path d="M487.7 323.8C484.7 324.1 482.1 325.7 480.5 328.1C477.8 327.2 475.5 327.8 474.5 328.2C472.6 325.2 469.2 323.3 465.4 323.7C460.1 324.2 456.1 328.9 456.6 334.2C457.1 339.5 461.8 343.5 467.1 343C472.4 342.5 476.4 337.8 475.9 332.5C475.8 331.4 475.5 330.3 475.1 329.4C476 329.1 477.8 328.6 479.9 329.3C479.1 330.8 478.8 332.6 478.9 334.4C479.4 339.7 484.1 343.7 489.4 343.2C494.7 342.7 498.7 338 498.2 332.7C497.8 327.2 493 323.3 487.7 323.8ZM467.1 341.7C462.5 342.1 458.3 338.7 457.9 334C457.5 329.4 460.9 325.2 465.6 324.8C470.2 324.4 474.4 327.8 474.8 332.5C475.2 337.2 471.7 341.3 467.1 341.7ZM489.4 341.8C484.8 342.2 480.6 338.8 480.2 334.1C479.8 329.5 483.2 325.3 487.9 324.9C492.5 324.5 496.7 327.9 497.1 332.6C497.4 337.3 494 341.4 489.4 341.8Z" fill="white"/>
<path opacity="0.15" d="M468.6 365.1C471.4 366.3 474.1 366.7 476.6 366.7C477.6 366.7 478.5 366.6 479.3 366.5C480.9 367.1 483 367.7 485 367.7C487.5 367.7 489.9 367.6 492 366.9L491 359.6C489.5 361 487.7 362.2 485.8 363.1C484.3 363.8 481 364.9 477.1 365C477 365 476.9 365 476.8 365C476.7 365 476.6 365 476.5 365C474.2 365 471.6 364.6 469.1 363.5C468.7 363.3 468.3 363.5 468.1 363.9C468.1 364.5 468.3 364.9 468.6 365.1Z" fill="black"/>
<path d="M392.899 416.5L414.199 440.1L420.999 497.9C422.999 515.3 422.399 533 419.099 550.2C416.499 563.8 412.999 581.4 409.199 599.9C408.999 601.1 409.899 602.2 411.099 602.2H426.499C442.599 602.2 456.099 589.9 457.499 573.8C463.599 502.2 459.599 435.1 447.199 383L412.999 389.7C400.499 392.8 393.499 404.1 392.899 416.5Z" class="change-color-in-svg" fill="#4D61FC" style="fill: rgb(77, 97, 252);"/>
<path d="M507.599 383.3C502.599 403.6 495.399 485.7 496.799 576.5C496.999 590.8 508.699 602.3 522.999 602.4H539.899C542.399 602.4 544.399 600.2 544.099 597.7L538.099 546.8C535.599 525.2 535.299 503.4 537.399 481.8L542.799 425.4L547.999 417.1C548.099 404.2 541.999 393.4 529.699 389.5L507.599 383.3Z" class="change-color-in-svg" fill="#4D61FC" style="fill: rgb(77, 97, 252);"/>
<path d="M480.199 485.1L485.699 475.2C486.299 474.1 486.699 472.9 486.699 471.6L486.999 465.1C486.999 464.8 487.299 464.5 487.599 464.6H487.999C490.399 464.8 492.399 466.6 492.899 469L492.999 469.3C493.599 472.4 493.799 475.5 493.799 478.7V479.8L511.199 482.6C512.399 482.8 513.199 483.8 513.099 485V485.1C512.999 486.5 511.699 487.5 510.299 487.2C509.599 487.1 509.099 487 509.099 487L510.099 487.2C511.699 487.5 512.799 488.9 512.599 490.5C512.499 492.2 510.999 493.4 509.299 493.4H508.499H509.299C510.999 493.5 512.199 494.9 512.099 496.6C511.999 498 510.899 499.1 509.499 499.3L508.099 499.4L509.099 499.3C510.499 499.2 511.799 500.4 511.699 501.8C511.599 502.8 510.899 503.6 509.999 503.9C504.299 505.4 498.299 505.9 492.399 505.3L481.199 504.3L442.799 510.3L442.699 488.6L480.199 485.1Z" fill="#FC9D9D"/>
<path d="M393.599 411.1L404.999 407C413.199 420.7 418.199 431.6 417.699 447.5L420.199 454.2L414.899 490L453.899 487.3L452.599 509L390.699 521C382.599 522.6 375.399 515.5 376.799 507.4L393.599 411.1Z" class="change-color-in-svg" fill="#4D61FC" style="fill: rgb(77, 97, 252);"/>
<path opacity="0.15" d="M389.4 515.8C383.9 516.9 378.9 514 376.6 509.5C376.6 516.7 383.2 522.4 390.6 521L452.5 509L452.7 506.1L389.4 515.8Z" fill="black"/>
<path opacity="0.15" d="M416.5 479.1L409.6 488.2C408.9 489.2 409.6 490.6 410.9 490.5L414.9 490.1L416.5 479.1Z" fill="black"/>
<path opacity="0.15" d="M511.099 482.5L506.699 481.8C506.699 482 506.799 482.1 506.899 482.3L507.399 483.2C507.799 483.9 507.699 484.8 507.299 485.4C506.899 486 506.799 486.8 507.099 487.4L507.599 488.5C507.899 489.2 507.799 489.9 507.399 490.5L506.999 491.1C506.499 491.8 506.499 492.8 506.999 493.5L507.299 493.9C507.799 494.6 507.799 495.6 507.299 496.3L507.099 496.7C506.599 497.4 506.599 498.3 506.999 499L507.499 499.8C507.899 500.5 507.899 501.3 507.499 502L506.199 504.5C507.499 504.3 508.799 504 510.099 503.7C511.099 503.5 511.799 502.6 511.799 501.6C511.899 500.1 510.699 498.9 509.199 499.1H509.599C510.999 499 512.099 497.8 512.199 496.4C512.299 494.8 511.099 493.3 509.399 493.2C511.099 493.3 512.499 492 512.699 490.3C512.799 488.7 511.699 487.3 510.199 487C510.299 487 510.299 487 510.399 487C511.799 487.3 513.099 486.3 513.199 484.9V484.8C513.099 483.8 512.299 482.7 511.099 482.5ZM508.999 486.9C508.999 486.9 509.099 486.9 509.199 486.9H508.999Z" fill="black"/>
<path opacity="0.15" d="M481.2 504.2L480.5 504.1C477.8 503.8 475 503.8 472.3 504.1L452.8 506.1L452.6 508.7" fill="black"/>
<path opacity="0.2" d="M458.7 485.5L419.8 488.3L420 489.8L458.8 487C459.2 487 459.5 486.6 459.5 486.2C459.5 485.8 459.1 485.5 458.7 485.5Z" fill="black"/>
<path opacity="0.2" d="M475.799 606.9C474.599 606.9 473.599 607.3 472.799 608.1C471.999 608.8 471.499 609.8 471.399 611L445.899 930.4L436.699 930.3L452.299 629.3C452.999 616.7 463.299 606.9 475.799 606.9Z" fill="black"/>
<path opacity="0.2" d="M544.1 597.6L538.1 546.7C535.6 525.1 535.3 503.3 537.4 481.7L538.6 468.7L531.9 459.3C530.8 457.8 528.4 458.3 528.1 460.2L524.9 481.4C521.5 503.8 520.3 526.4 521.1 549L526.9 602.4H539.9C542.4 602.3 544.4 600.1 544.1 597.6Z" fill="black"/>
<path d="M544.199 400.8L571.299 463.3L612.299 423.6L623.399 440.1L571.599 504.9C566.599 511.2 556.699 510.2 553.099 503L528.899 455" class="change-color-in-svg" fill="#4D61FC" style="fill: rgb(77, 97, 252);"/>
<path opacity="0.15" d="M621.2 442.7L572.6 503.4C567.9 510 561.4 510.3 556.1 506.6C559.8 506.5 563.4 505.4 566.2 502.1L620.8 437L621.2 442.7Z" fill="black"/>
<path opacity="0.15" d="M567.899 467.4L571.299 463.3L553.199 421.7L563.599 466.3C563.999 468.4 566.599 469 567.899 467.4Z" fill="black"/>
<path d="M1247.4 692.9H1191.5V810.9H1247.4V692.9Z" fill="#DADDDF"/>
<path d="M1225.3 692.9H1249.2V704.3H1247.4V810.9H1228.9V704.3H1225.3V692.9Z" fill="#B2B6BB"/>
<path d="M1224.8 692.9H1191.5V704.3H1224.8V692.9Z" fill="#DADDDF"/>
<path d="M1235.5 704.3H1191.5V705.8H1235.5V704.3Z" fill="#B2B6BB"/>
<path d="M1269.1 604.5H1259.5H1037.1V614.1H1259.5V810.9H1037.1V820.5H1259.5V1026.9H1269.1V604.5Z" fill="white"/>
<path d="M1311.8 604.5H1269.1V1026.9H1311.8V604.5Z" fill="#DADDDF"/>
<path d="M1374.4 1029.3H247.4C246.7 1029.3 246.2 1028.8 246.2 1028.1C246.2 1027.4 246.7 1026.9 247.4 1026.9H1374.4C1375.1 1026.9 1375.6 1027.4 1375.6 1028.1C1375.6 1028.7 1375.1 1029.3 1374.4 1029.3Z" fill="#B2B6BB"/>
<path d="M1192.8 1027.6H609.8C601.9 1027.6 595.6 1021.2 595.6 1013.4V430.4C595.6 422.5 602 416.2 609.8 416.2H1192.8C1200.7 416.2 1207 422.6 1207 430.4V1013.4C1207 1021.3 1200.7 1027.6 1192.8 1027.6Z" class="change-color-in-svg" fill="#4D61FC" style="fill: rgb(77, 97, 252);"/>
<path opacity="0.5" d="M1192.8 1027.6H609.8C601.9 1027.6 595.6 1021.2 595.6 1013.4V430.4C595.6 422.5 602 416.2 609.8 416.2H1192.8C1200.7 416.2 1207 422.6 1207 430.4V1013.4C1207 1021.3 1200.7 1027.6 1192.8 1027.6Z" fill="white"/>
<path d="M1183 1027.6H600C592.1 1027.6 585.8 1021.2 585.8 1013.4V430.4C585.8 422.5 592.2 416.2 600 416.2H1183C1190.9 416.2 1197.2 422.6 1197.2 430.4V1013.4C1197.2 1021.3 1190.9 1027.6 1183 1027.6Z" class="change-color-in-svg" fill="#4D61FC" style="fill: rgb(77, 97, 252);"/>
<path opacity="0.7" d="M1183 1027.6H600C592.1 1027.6 585.8 1021.2 585.8 1013.4V430.4C585.8 422.5 592.2 416.2 600 416.2H1183C1190.9 416.2 1197.2 422.6 1197.2 430.4V1013.4C1197.2 1021.3 1190.9 1027.6 1183 1027.6Z" fill="white"/>
<path d="M900.9 277.8C900.9 251.1 921.1 229.1 947.1 226.2V225.9H952.8C981.5 225.9 1004.7 249.1 1004.7 277.8C1004.7 306.5 981.5 329.7 952.8 329.7H947.1V329.4C921.1 326.5 900.9 304.5 900.9 277.8Z" fill="#B2B6BB"/>
<path d="M947.1 329.7C975.764 329.7 999 306.463 999 277.8C999 249.136 975.764 225.9 947.1 225.9C918.437 225.9 895.2 249.136 895.2 277.8C895.2 306.463 918.437 329.7 947.1 329.7Z" fill="#868A91"/>
<path d="M947.1 324C972.616 324 993.3 303.316 993.3 277.8C993.3 252.285 972.616 231.6 947.1 231.6C921.585 231.6 900.9 252.285 900.9 277.8C900.9 303.316 921.585 324 947.1 324Z" fill="white"/>
<path d="M947.1 324C972.616 324 993.3 303.316 993.3 277.8C993.3 252.285 972.616 231.6 947.1 231.6C921.585 231.6 900.9 252.285 900.9 277.8C900.9 303.316 921.585 324 947.1 324Z" fill="#868A91"/>
<path opacity="0.9" d="M947.1 324C972.616 324 993.3 303.316 993.3 277.8C993.3 252.285 972.616 231.6 947.1 231.6C921.585 231.6 900.9 252.285 900.9 277.8C900.9 303.316 921.585 324 947.1 324Z" fill="white"/>
<path d="M947.1 231.6C947.9 231.6 948.8 231.6 949.6 231.7C925.2 233 905.9 253.1 905.9 277.8C905.9 302.5 925.3 322.6 949.6 323.9C948.8 323.9 948 324 947.1 324C921.6 324 900.9 303.3 900.9 277.8C900.9 252.3 921.6 231.6 947.1 231.6Z" fill="#B2B6BB"/>
<path d="M946.7 281.4L962 250.9C962.6 249.7 962.1 248.3 960.9 247.7C959.7 247.1 958.3 247.6 957.7 248.8L944.5 275L926.9 266.4C925.7 265.8 924.3 266.3 923.7 267.5C923.1 268.7 923.6 270.1 924.8 270.7L946.7 281.4Z" class="change-color-in-svg" fill="#4D61FC" style="fill: rgb(77, 97, 252);"/>
<path opacity="0.5" d="M907.5 301.6C903.3 294.6 900.9 286.5 900.9 277.8C900.9 252.3 921.6 231.6 947.1 231.6C948.4 231.6 949.6 231.7 950.9 231.8L907.5 301.6Z" fill="white"/>
<path opacity="0.5" d="M957.8 232.9C960 233.4 962.2 234.1 964.3 235L916.5 312.5C914.6 310.9 912.9 309 911.3 307.1L957.8 232.9Z" fill="white"/>
<path d="M867.6 692.8H670.9C666.7 692.8 663.4 689.4 663.4 685.3V488.6C663.4 484.4 666.8 481.1 670.9 481.1H867.6C871.8 481.1 875.1 484.5 875.1 488.6V685.3C875.2 689.5 871.8 692.8 867.6 692.8Z" class="change-color-in-svg" fill="#4D61FC" style="fill: rgb(77, 97, 252);"/>
<path opacity="0.5" d="M867.6 692.8H670.9C666.7 692.8 663.4 689.4 663.4 685.3V488.6C663.4 484.4 666.8 481.1 670.9 481.1H867.6C871.8 481.1 875.1 484.5 875.1 488.6V685.3C875.2 689.5 871.8 692.8 867.6 692.8Z" fill="white"/>
<path d="M857.8 692.8H661.2C657 692.8 653.7 689.4 653.7 685.3V488.6C653.7 484.4 657.1 481.1 661.2 481.1H857.9C862.1 481.1 865.4 484.5 865.4 488.6V685.3C865.4 689.5 862 692.8 857.8 692.8Z" fill="white"/>
<path d="M805.8 625.9H713.2C709.9 625.9 707.3 623.2 707.3 620C707.3 616.7 710 614.1 713.2 614.1H805.8C809.1 614.1 811.7 616.8 811.7 620C811.8 623.3 809.1 625.9 805.8 625.9Z" fill="#61656D"/>
<path d="M829.9 649H689.1C687.4 649 686 647.6 686 645.9C686 644.2 687.4 642.8 689.1 642.8H829.9C831.6 642.8 833 644.2 833 645.9C833.1 647.6 831.7 649 829.9 649Z" fill="#B2B6BB"/>
<path d="M801.5 668.2H717.6C715.9 668.2 714.5 666.8 714.5 665.1C714.5 663.4 715.9 662 717.6 662H801.5C803.2 662 804.6 663.4 804.6 665.1C804.6 666.8 803.2 668.2 801.5 668.2Z" fill="#B2B6BB"/>
<path d="M767.5 505.7H759.5V506.5C740.9 510.2 726.8 526.7 726.8 546.4C726.8 566.1 740.8 582.6 759.5 586.3V587.1H767.5C790 587.1 808.2 568.9 808.2 546.4C808.2 523.9 790 505.7 767.5 505.7Z" class="change-color-in-svg" fill="#4D61FC" style="fill: rgb(77, 97, 252);"/>
<path opacity="0.2" d="M767.5 505.7H759.5V506.5C740.9 510.2 726.8 526.7 726.8 546.4C726.8 566.1 740.8 582.6 759.5 586.3V587.1H767.5C790 587.1 808.2 568.9 808.2 546.4C808.2 523.9 790 505.7 767.5 505.7Z" fill="black"/>
<path d="M759.5 587C781.978 587 800.2 568.778 800.2 546.3C800.2 523.822 781.978 505.6 759.5 505.6C737.022 505.6 718.8 523.822 718.8 546.3C718.8 568.778 737.022 587 759.5 587Z" class="change-color-in-svg" fill="#4D61FC" style="fill: rgb(77, 97, 252);"/>
<path d="M751.999 563.3L738.299 549.6C737.599 548.9 737.599 547.7 738.299 546.9L741.899 543.3C742.599 542.6 743.799 542.6 744.599 543.3L753.399 552.1L774.599 530.8C775.299 530.1 776.499 530.1 777.299 530.8L780.899 534.4C781.599 535.1 781.599 536.3 780.899 537.1L754.699 563.3C753.899 564.1 752.699 564.1 751.999 563.3Z" fill="white"/>
<path d="M1131.6 692.8H934.9C930.7 692.8 927.4 689.4 927.4 685.3V488.6C927.4 484.4 930.8 481.1 934.9 481.1H1131.6C1135.8 481.1 1139.1 484.5 1139.1 488.6V685.3C1139.2 689.5 1135.8 692.8 1131.6 692.8Z" class="change-color-in-svg" fill="#4D61FC" style="fill: rgb(77, 97, 252);"/>
<path opacity="0.5" d="M1131.6 692.8H934.9C930.7 692.8 927.4 689.4 927.4 685.3V488.6C927.4 484.4 930.8 481.1 934.9 481.1H1131.6C1135.8 481.1 1139.1 484.5 1139.1 488.6V685.3C1139.2 689.5 1135.8 692.8 1131.6 692.8Z" fill="white"/>
<path d="M1121.9 692.8H925.2C921 692.8 917.7 689.4 917.7 685.3V488.6C917.7 484.4 921.1 481.1 925.2 481.1H1121.9C1126.1 481.1 1129.4 484.5 1129.4 488.6V685.3C1129.4 689.5 1126 692.8 1121.9 692.8Z" fill="white"/>
<path d="M1069.8 625.9H977.2C973.9 625.9 971.3 623.2 971.3 620C971.3 616.7 974 614.1 977.2 614.1H1069.8C1073.1 614.1 1075.7 616.8 1075.7 620C1075.8 623.3 1073.1 625.9 1069.8 625.9Z" fill="#61656D"/>
<path d="M1093.9 649H953.1C951.4 649 950 647.6 950 645.9C950 644.2 951.4 642.8 953.1 642.8H1093.9C1095.6 642.8 1097 644.2 1097 645.9C1097.1 647.6 1095.7 649 1093.9 649Z" fill="#B2B6BB"/>
<path d="M1065.5 668.2H981.6C979.9 668.2 978.5 666.8 978.5 665.1C978.5 663.4 979.9 662 981.6 662H1065.5C1067.2 662 1068.6 663.4 1068.6 665.1C1068.6 666.8 1067.2 668.2 1065.5 668.2Z" fill="#B2B6BB"/>
<path d="M1031.5 505.7H1023.5V506.5C1004.9 510.2 990.8 526.7 990.8 546.4C990.8 566.1 1004.8 582.6 1023.5 586.3V587.1H1031.5C1054 587.1 1072.2 568.9 1072.2 546.4C1072.2 523.9 1054 505.7 1031.5 505.7Z" class="change-color-in-svg" fill="#4D61FC" style="fill: rgb(77, 97, 252);"/>
<path opacity="0.2" d="M1031.5 505.7H1023.5V506.5C1004.9 510.2 990.8 526.7 990.8 546.4C990.8 566.1 1004.8 582.6 1023.5 586.3V587.1H1031.5C1054 587.1 1072.2 568.9 1072.2 546.4C1072.2 523.9 1054 505.7 1031.5 505.7Z" fill="black"/>
<path d="M1063.7 552.817C1067.3 530.629 1052.23 509.723 1030.05 506.122C1007.86 502.521 986.951 517.589 983.35 539.777C979.749 561.965 994.817 582.871 1017.01 586.472C1039.19 590.073 1060.1 575.005 1063.7 552.817Z" class="change-color-in-svg" fill="#4D61FC" style="fill: rgb(77, 97, 252);"/>
<path d="M1016 563.3L1002.3 549.6C1001.6 548.9 1001.6 547.7 1002.3 546.9L1005.9 543.3C1006.6 542.6 1007.8 542.6 1008.6 543.3L1017.4 552.1L1038.6 530.8C1039.3 530.1 1040.5 530.1 1041.3 530.8L1044.9 534.4C1045.6 535.1 1045.6 536.3 1044.9 537.1L1018.7 563.3C1017.9 564.1 1016.7 564.1 1016 563.3Z" fill="white"/>
<path d="M867.6 970.6H670.9C666.7 970.6 663.4 967.2 663.4 963.1V766.4C663.4 762.2 666.8 758.9 670.9 758.9H867.6C871.8 758.9 875.1 762.3 875.1 766.4V963.1C875.2 967.2 871.8 970.6 867.6 970.6Z" class="change-color-in-svg" fill="#4D61FC" style="fill: rgb(77, 97, 252);"/>
<path opacity="0.5" d="M867.6 970.6H670.9C666.7 970.6 663.4 967.2 663.4 963.1V766.4C663.4 762.2 666.8 758.9 670.9 758.9H867.6C871.8 758.9 875.1 762.3 875.1 766.4V963.1C875.2 967.2 871.8 970.6 867.6 970.6Z" fill="white"/>
<path d="M857.8 970.6H661.2C657 970.6 653.7 967.2 653.7 963.1V766.4C653.7 762.2 657.1 758.9 661.2 758.9H857.9C862.1 758.9 865.4 762.3 865.4 766.4V963.1C865.4 967.2 862 970.6 857.8 970.6Z" fill="white"/>
<path d="M805.8 903.7H713.2C709.9 903.7 707.3 901 707.3 897.8C707.3 894.5 710 891.9 713.2 891.9H805.8C809.1 891.9 811.7 894.6 811.7 897.8C811.8 901.1 809.1 903.7 805.8 903.7Z" fill="#61656D"/>
<path d="M829.9 926.801H689.1C687.4 926.801 686 925.401 686 923.701C686 922.001 687.4 920.601 689.1 920.601H829.9C831.6 920.601 833 922.001 833 923.701C833.1 925.401 831.7 926.801 829.9 926.801Z" fill="#B2B6BB"/>
<path d="M801.5 946H717.6C715.9 946 714.5 944.6 714.5 942.9C714.5 941.2 715.9 939.8 717.6 939.8H801.5C803.2 939.8 804.6 941.2 804.6 942.9C804.6 944.6 803.2 946 801.5 946Z" fill="#B2B6BB"/>
<path d="M767.5 783.5H759.5V784.3C740.9 788 726.8 804.5 726.8 824.201C726.8 843.901 740.8 860.4 759.5 864.1V864.901H767.5C790 864.901 808.2 846.701 808.2 824.201C808.2 801.701 790 783.5 767.5 783.5Z" class="change-color-in-svg" fill="#4D61FC" style="fill: rgb(77, 97, 252);"/>
<path opacity="0.2" d="M767.5 783.5H759.5V784.3C740.9 788 726.8 804.5 726.8 824.201C726.8 843.901 740.8 860.4 759.5 864.1V864.901H767.5C790 864.901 808.2 846.701 808.2 824.201C808.2 801.701 790 783.5 767.5 783.5Z" fill="black"/>
<path d="M759.5 864.8C781.978 864.8 800.2 846.578 800.2 824.1C800.2 801.622 781.978 783.4 759.5 783.4C737.022 783.4 718.8 801.622 718.8 824.1C718.8 846.578 737.022 864.8 759.5 864.8Z" class="change-color-in-svg" fill="#4D61FC" style="fill: rgb(77, 97, 252);"/>
<path d="M751.999 841.1L738.299 827.4C737.599 826.7 737.599 825.5 738.299 824.7L741.899 821.1C742.599 820.4 743.799 820.4 744.599 821.1L753.399 829.9L774.599 808.6C775.299 807.9 776.499 807.9 777.299 808.6L780.899 812.2C781.599 812.9 781.599 814.1 780.899 814.9L754.699 841.1C753.899 841.9 752.699 841.9 751.999 841.1Z" fill="white"/>
<path d="M1131.6 970.6H934.9C930.7 970.6 927.4 967.2 927.4 963.1V766.4C927.4 762.2 930.8 758.9 934.9 758.9H1131.6C1135.8 758.9 1139.1 762.3 1139.1 766.4V963.1C1139.2 967.2 1135.8 970.6 1131.6 970.6Z" class="change-color-in-svg" fill="#4D61FC" style="fill: rgb(77, 97, 252);"/>
<path opacity="0.5" d="M1131.6 970.6H934.9C930.7 970.6 927.4 967.2 927.4 963.1V766.4C927.4 762.2 930.8 758.9 934.9 758.9H1131.6C1135.8 758.9 1139.1 762.3 1139.1 766.4V963.1C1139.2 967.2 1135.8 970.6 1131.6 970.6Z" fill="white"/>
<path d="M1121.9 970.6H925.2C921 970.6 917.7 967.2 917.7 963.1V766.4C917.7 762.2 921.1 758.9 925.2 758.9H1121.9C1126.1 758.9 1129.4 762.3 1129.4 766.4V963.1C1129.4 967.2 1126 970.6 1121.9 970.6Z" fill="white"/>
<path d="M1069.8 903.7H977.2C973.9 903.7 971.3 901 971.3 897.8C971.3 894.5 974 891.9 977.2 891.9H1069.8C1073.1 891.9 1075.7 894.6 1075.7 897.8C1075.8 901.1 1073.1 903.7 1069.8 903.7Z" fill="#61656D"/>
<path d="M1093.9 926.801H953.1C951.4 926.801 950 925.401 950 923.701C950 922.001 951.4 920.601 953.1 920.601H1093.9C1095.6 920.601 1097 922.001 1097 923.701C1097.1 925.401 1095.7 926.801 1093.9 926.801Z" fill="#B2B6BB"/>
<path d="M1065.5 946H981.6C979.9 946 978.5 944.6 978.5 942.9C978.5 941.2 979.9 939.8 981.6 939.8H1065.5C1067.2 939.8 1068.6 941.2 1068.6 942.9C1068.6 944.6 1067.2 946 1065.5 946Z" fill="#B2B6BB"/>
<path d="M1031.5 783.5H1023.5V784.3C1004.9 788 990.8 804.5 990.8 824.201C990.8 843.901 1004.8 860.4 1023.5 864.1V864.901H1031.5C1054 864.901 1072.2 846.701 1072.2 824.201C1072.2 801.701 1054 783.5 1031.5 783.5Z" class="change-color-in-svg" fill="#4D61FC" style="fill: rgb(77, 97, 252);"/>
<path opacity="0.2" d="M1031.5 783.5H1023.5V784.3C1004.9 788 990.8 804.5 990.8 824.201C990.8 843.901 1004.8 860.4 1023.5 864.1V864.901H1031.5C1054 864.901 1072.2 846.701 1072.2 824.201C1072.2 801.701 1054 783.5 1031.5 783.5Z" fill="black"/>
<path d="M1063.7 830.623C1067.3 808.435 1052.24 787.529 1030.05 783.928C1007.86 780.327 986.955 795.394 983.354 817.582C979.753 839.77 994.82 860.676 1017.01 864.277C1039.2 867.878 1060.1 852.811 1063.7 830.623Z" class="change-color-in-svg" fill="#4D61FC" style="fill: rgb(77, 97, 252);"/>
<path d="M1016 841.101L1002.3 827.401C1001.6 826.701 1001.6 825.501 1002.3 824.701L1005.9 821.101C1006.6 820.401 1007.8 820.401 1008.6 821.101L1017.4 829.901L1038.6 808.601C1039.3 807.901 1040.5 807.901 1041.3 808.601L1044.9 812.201C1045.6 812.901 1045.6 814.101 1044.9 814.901L1018.7 841.101C1017.9 841.901 1016.7 841.901 1016 841.101Z" fill="white"/>
<path d="M985.9 1009.9C978.5 1009.9 972.5 1015.9 972.5 1023.3C972.5 1024.9 973.8 1026.2 975.4 1026.2H996.9C999.3 1026.2 1001.5 1024.8 1002.5 1022.5L1030.5 959.7L999.1 923.3C999.6 925.1 985.9 1009.9 985.9 1009.9Z" fill="#3F4249"/>
<path d="M1141 958.2H1087.8L1109.2 978.7C1112.3 981.7 1113.7 986 1112.9 990.3L1109.1 1009.9C1102 1009.9 1096.3 1015.6 1096.3 1022.7V1023.3C1096.3 1024.9 1097.6 1026.2 1099.2 1026.2H1118.7C1121 1026.2 1123.2 1024.9 1124.2 1022.8L1142.5 985.7C1144.9 980.8 1145.5 975.1 1144.1 969.8L1141 958.2Z" fill="#3F4249"/>
<path d="M1169.9 916.2C1181.1 912.8 1201.9 900.8 1211.5 888.5C1212.2 887.5 1212.2 886.2 1211.5 885.2C1210.7 884.2 1209.3 884 1208.2 884.6C1123.8 932.2 1037.2 875.8 1037.2 875.8C1036 869.1 1031.9 863.4 1026 860C1014.2 853.3 999.7 853.3 987.8 859.9C983.7 862.2 978.8 862.7 974.3 861.1L961.1 856.4C958.8 855.6 956.3 857.1 956.1 859.6L955.7 863.5C954.4 875.1 958.5 886.7 966.7 895L1023.3 952.4C1029.7 958.9 1032.6 968 1031.3 977L1026.3 1010C1018.9 1010 1012.9 1016 1012.9 1023.4C1012.9 1025 1014.2 1026.3 1015.8 1026.3H1037.3C1039.7 1026.3 1041.9 1024.9 1042.9 1022.6L1071.4 958.3H1127.9L1149.3 978.8C1152.4 981.8 1153.8 986.1 1153 990.4L1149.2 1010C1142.1 1010 1136.4 1015.7 1136.4 1022.8C1136.4 1024.8 1138 1026.3 1139.9 1026.3H1158.7C1161 1026.3 1163.2 1025 1164.2 1022.9L1182.5 985.8C1184.9 980.9 1185.5 975.2 1184.1 969.9L1169.9 916.2Z" fill="#868A91"/>
<path d="M999.977 868.594C1001.5 867.071 1001.88 864.981 1000.83 863.927C999.772 862.873 997.682 863.253 996.159 864.776C994.636 866.299 994.256 868.388 995.311 869.442C996.365 870.497 998.454 870.117 999.977 868.594Z" fill="#3F4249"/>
<path d="M1157.3 944C1157.3 955.4 1166.5 964.6 1177.9 964.6C1179.4 964.6 1180.9 964.4 1182.4 964.1L1172.1 924.3C1163.5 926.7 1157.3 934.6 1157.3 944Z" fill="#3F4249"/>
<path d="M1067.5 966.5L1063.8 965C1058.8 963 1053.2 964.2 1049.4 968C1046.3 971.2 1045 975.7 1045.9 980.1L1046.6 983.1C1047.1 985.5 1047 988 1046.2 990.4L1045.9 991.2C1043.9 997 1045 1003.4 1049 1008.2L1067.5 966.5Z" fill="#3F4249"/>
<path d="M1042.5 879.1L1046.1 901.2C1048.1 913.6 1059.2 921.7 1070.4 919L1080.8 916.5C1083.1 915.9 1085.6 915.9 1087.9 916.3L1110.2 920.6C1121.1 922.7 1132 917.3 1137.8 907L1139.6 903.8C1094.3 905.1 1056.2 886.7 1042.5 879.1Z" fill="#3F4249"/>
<path d="M1183.7 895.7C1185.8 897.3 1188.4 898.2 1191.3 898.2C1197.8 898.2 1203.2 893.3 1203.9 887C1197.1 890.5 1190.4 893.4 1183.7 895.7Z" fill="#3F4249"/>
<path d="M984.3 886.4C981.3 882.3 980.1 877.2 980.7 872.2L982 862C979.4 862.4 976.7 862.2 974.2 861.3L961 856.6C958.7 855.8 956.2 857.3 956 859.8L955.6 863.7C954.3 875.3 958.4 886.9 966.6 895.2L983.2 912L985.6 907.6C989.3 900.8 988.8 892.6 984.3 886.4Z" fill="#B2B6BB"/>
<path d="M1034.6 879.7L1044.9 905.6C1047.5 911.7 1045 919.8 1039.5 923.4C1033 927.7 1024.2 928 1015.6 919.7C1003.9 908.5 1008.8 883.6 1014.8 874.1" fill="#3F4249"/>
<path d="M1127.6 958.3L1116.3 946L1125.8 966.7L1127.6 958.3Z" fill="#3F4249"/>
<path d="M969.1 859.4L961.2 856.6C958.8 855.7 956.2 857.4 955.9 859.9L955.3 865.5C956.3 865.7 957.3 865.9 958.3 865.9C963 865.8 967.1 863.2 969.1 859.4Z" fill="#3F4249"/>
<path d="M1033.6 877.2L1044.4 904C1046 907.9 1044.6 912.4 1041 914.6C1035.7 917.9 1027.1 920.2 1017.8 911.3C1007.9 901.8 1009.3 881.6 1015.7 872.5" fill="#868A91"/>
<path d="M1031.3 918.2C1027.1 918.2 1022.3 916.5 1017.3 911.7C1012.6 907.2 1010 900.1 1009.9 891.6C1009.8 884.1 1011.8 876.6 1015.1 871.9C1015.3 871.6 1015.7 871.5 1016 871.7C1016.3 871.9 1016.4 872.3 1016.2 872.6C1010.2 881 1008.4 901.1 1018.2 910.6C1027.2 919.2 1035.3 917.1 1040.6 913.8C1043.9 911.7 1045.2 907.7 1043.7 904.1L1032.9 877.3C1032.8 877 1032.9 876.6 1033.3 876.4C1033.6 876.3 1034 876.4 1034.2 876.8L1045 903.6C1046.8 907.8 1045.2 912.6 1041.4 915C1038.6 916.8 1035.2 918.2 1031.3 918.2Z" fill="#3F4249"/>
<path d="M1071.2 958.3C1071.2 958.3 1083.2 944.1 1116.4 945.9L1122 958.3H1071.2Z" fill="#B2B6BB"/>
<path d="M1169.1 912.8L1169.9 916.3C1169.9 916.3 1178.4 913.6 1186 909L1169.1 912.8Z" fill="#3F4249"/>
<path d="M967.3 879.4C964.6 879.4 962.3 878.6 960.5 877.1C954.8 872.3 955.7 861.8 955.7 861.3C955.7 860.9 956.1 860.7 956.4 860.7C956.8 860.7 957 861.1 957 861.4C957 861.5 956.1 871.7 961.3 876C963.8 878.1 967.3 878.5 971.8 877.3C972.2 877.2 972.5 877.4 972.6 877.8C972.7 878.2 972.5 878.5 972.1 878.6C970.5 879.2 968.8 879.4 967.3 879.4Z" fill="#3F4249"/>
<path d="M618.6 412.4C618.6 414.5 620.3 416.2 622.4 416.2H630L631.6 432.2C631.7 433.4 632.8 434.4 634 434.4C635.3 434.4 636.3 433.4 636.4 432.1L637.4 416.8C637.4 416.6 637.6 416.4 637.9 416.4C638.1 416.4 638.3 416.6 638.4 416.8L639.4 432.1C639.5 433.4 640.6 434.4 641.9 434.4C643.2 434.4 644.4 433.3 644.4 432C644.6 427 645.2 416.5 645.2 416.5L644.5 431.7C644.4 433.2 645.6 434.4 647.1 434.4C648.4 434.4 649.4 433.5 649.6 432.2L651.9 416.6L650.2 428.2C650 429.4 651 430.6 652.2 430.6C653.1 430.6 653.9 430 654.2 429.2L657.6 419C658.1 416.5 657.2 413.9 655.3 412.3C647.6 405.6 636.6 404.3 627.6 409.2L619.2 411.8C618.9 411.7 618.6 412.1 618.6 412.4Z" fill="#FC9D9D"/>
<g opacity="0.15">
<path opacity="0.15" d="M644.48 416.46L644.012 430.551L645.411 430.598L645.879 416.506L644.48 416.46Z" fill="black"/>
</g>
<g opacity="0.15">
<path opacity="0.15" d="M651.09 417.252L650.145 428.613L651.54 428.729L652.486 417.368L651.09 417.252Z" fill="black"/>
</g>
<path opacity="0.2" d="M629.999 416.2H623.399L627.399 412.4C628.199 411.6 629.599 412.1 629.699 413.3L629.999 416.2Z" fill="black"/>
<path opacity="0.15" d="M417.7 470.2L420.8 452C420.9 451.4 421.8 451.4 421.9 452L426.9 487.8L419.8 488.3L417.7 470.2Z" fill="black"/>
</svg>